<?xml version="1.0" encoding="utf-8"?>
<svg version="1.1" id="Layer_1" xmlns="http://www.w3.org/2000/svg" xmlns:xlink="http://www.w3.org/1999/xlink" x="0px" y="0px"
	 viewBox="0 0 30 30" style="enable-background:new 0 0 30 30;" xml:space="preserve">
<style type="text/css">
	.st0{fill:#FFFFFF;}
</style>
<g id="surface10752353">
	<path class="st0" d="M0.9,6.3v17.3h8.4c0.8,0,6.1-0.2,6.1-5c0-3.1-2.1-4.1-3.2-4.4c0.8-0.4,2.3-1.2,2.3-3.6c0-1.3-0.2-4.3-5.5-4.3
		C9,6.3,0.9,6.3,0.9,6.3z M20,7.9v1.6h6.5V7.9H20z M4.7,9.3h3.6c0.3,0,2.6-0.2,2.6,2c0,1.9-1.6,2-2.3,2H4.7V9.3z M23.4,11
		c-4.9,0-5.9,4.2-5.9,6.1c0,5.5,4.5,6.1,5.9,6.1c3.9,0,5-2.5,5.4-3.9H26c-0.1,0.4-0.9,1.5-2.5,1.5c-2.6,0-2.8-2-2.8-3H29
		C29.2,14.6,27.8,11,23.4,11z M23.3,13.3c0.8,0,1.4,0.2,1.8,0.6c0.4,0.4,0.7,1,0.7,1.8h-5.2c0-0.2,0.1-0.5,0.1-0.8
		c0.1-0.3,0.2-0.6,0.4-0.8c0.2-0.3,0.5-0.5,0.8-0.6C22.4,13.4,22.8,13.3,23.3,13.3z M4.7,15.9h4.1c0.8,0,2.8,0.1,2.8,2.5
		c0,2.3-2.4,2.3-2.8,2.3H4.7V15.9z"/>
</g>
</svg>
