<?xml version="1.0" encoding="UTF-8"?>
<svg xmlns="http://www.w3.org/2000/svg" xmlns:xlink="http://www.w3.org/1999/xlink" width="30pt" height="30pt" viewBox="0 0 30 30" version="1.1">
<g id="surface10752353">
<path style=" stroke:none;fill-rule:nonzero;fill:rgb(33.333334%,33.333334%,33.333334%);fill-opacity:1;" d="M 0.9375 6.328125 L 0.9375 23.671875 L 9.316406 23.671875 C 10.09375 23.671875 15.4375 23.515625 15.4375 18.632812 C 15.4375 15.582031 13.339844 14.546875 12.277344 14.238281 C 13.058594 13.867188 14.621094 12.988281 14.621094 10.636719 C 14.621094 9.324219 14.433594 6.328125 9.082031 6.328125 Z M 20.039062 7.9375 L 20.039062 9.519531 L 26.515625 9.519531 L 26.515625 7.9375 Z M 4.746094 9.285156 L 8.320312 9.285156 C 8.65625 9.285156 10.929688 9.109375 10.929688 11.28125 C 10.929688 13.136719 9.289062 13.328125 8.613281 13.328125 L 4.746094 13.328125 Z M 23.4375 10.957031 C 18.542969 10.957031 17.519531 15.207031 17.519531 17.050781 C 17.519531 22.519531 22 23.144531 23.4375 23.144531 C 27.308594 23.144531 28.40625 20.640625 28.859375 19.25 L 26.046875 19.25 C 25.933594 19.605469 25.113281 20.773438 23.554688 20.773438 C 20.941406 20.773438 20.714844 18.726562 20.714844 17.8125 L 29.035156 17.8125 C 29.203125 14.648438 27.816406 10.957031 23.4375 10.957031 Z M 23.347656 13.328125 C 24.128906 13.328125 24.757812 13.558594 25.136719 13.972656 C 25.515625 14.394531 25.792969 15.011719 25.867188 15.820312 L 20.710938 15.820312 C 20.726562 15.597656 20.777344 15.339844 20.859375 15.058594 C 20.941406 14.769531 21.0625 14.496094 21.269531 14.238281 C 21.472656 13.984375 21.761719 13.765625 22.089844 13.59375 C 22.425781 13.417969 22.84375 13.328125 23.347656 13.328125 Z M 4.746094 15.9375 L 8.875 15.9375 C 9.699219 15.9375 11.628906 16.066406 11.628906 18.425781 C 11.628906 20.714844 9.195312 20.710938 8.816406 20.710938 L 4.746094 20.710938 Z M 4.746094 15.9375 "/>
</g>
</svg>
