<?xml version="1.0" encoding="utf-8"?>
<!-- Generator: Adobe Illustrator 25.0.0, SVG Export Plug-In . SVG Version: 6.00 Build 0)  -->
<svg version="1.1" id="Layer_1" xmlns="http://www.w3.org/2000/svg" xmlns:xlink="http://www.w3.org/1999/xlink" x="0px" y="0px"
	 viewBox="0 0 24 24" style="enable-background:new 0 0 24 24;" xml:space="preserve">
<style type="text/css">
	.st0{fill:url(#SVGID_1_);}
</style>
<linearGradient id="SVGID_1_" gradientUnits="userSpaceOnUse" x1="0.4568" y1="3.0068" x2="18.797" y2="18.4871">
	<stop  offset="0.2094" style="stop-color:#00CCFF"/>
	<stop  offset="0.8707" style="stop-color:#EE1FFF"/>
</linearGradient>
<path class="st0" d="M9.8,1.5c-1.2,0-2.2,1-2.2,2.2v0.8H2.2C1,4.5,0,5.5,0,6.8v12C0,20,1,21,2.2,21h19.5c1.2,0,2.2-1,2.2-2.2v-12
	c0-1.2-1-2.2-2.2-2.2h-5.2V3.8c0-1.2-1-2.2-2.2-2.2H9.8z M9.8,3h4.5C14.7,3,15,3.3,15,3.8v0.8H9V3.8C9,3.3,9.3,3,9.8,3z M12.6,13.4
	l9.9-2.6v8c0,0.4-0.3,0.8-0.8,0.8H2.2c-0.4,0-0.8-0.3-0.8-0.8v-8l9.9,2.6C11.8,13.5,12.2,13.5,12.6,13.4z M2.2,6h19.5
	c0.4,0,0.8,0.3,0.8,0.8v2.4l-10.3,2.7c-0.1,0-0.3,0-0.4,0L1.5,9.2V6.8C1.5,6.3,1.8,6,2.2,6z"/>
</svg>
