<?xml version="1.0" encoding="utf-8"?>
<!-- Generator: Adobe Illustrator 25.0.0, SVG Export Plug-In . SVG Version: 6.00 Build 0)  -->
<svg version="1.1" id="Layer_1" xmlns="http://www.w3.org/2000/svg" xmlns:xlink="http://www.w3.org/1999/xlink" x="0px" y="0px"
	 viewBox="0 0 24 24" style="enable-background:new 0 0 24 24;" xml:space="preserve">
<style type="text/css">
	.st0{fill:url(#SVGID_1_);}
	.st1{fill:url(#SVGID_2_);}
</style>
<linearGradient id="SVGID_1_" gradientUnits="userSpaceOnUse" x1="-0.1017" y1="7.8383" x2="23.8983" y2="7.8383">
	<stop  offset="0.2094" style="stop-color:#00CCFF"/>
	<stop  offset="0.8707" style="stop-color:#EE1FFF"/>
</linearGradient>
<path class="st0" d="M9.6,2.6c-1.2,0-2.2,1-2.2,2.2v0.8H2.1c-1.2,0-2.2,1-2.2,2.2v2.1l11.4,3c0.4,0.1,0.8,0.1,1.2,0l11.4-3V7.9
	c0-1.2-1-2.2-2.2-2.2h-5.2V4.9c0-1.2-1-2.2-2.2-2.2H9.6z M9.6,4.1h4.5c0.4,0,0.8,0.3,0.8,0.8v0.8h-6V4.9C8.9,4.5,9.2,4.1,9.6,4.1z"
	/>
<linearGradient id="SVGID_2_" gradientUnits="userSpaceOnUse" x1="-0.1017" y1="16.7525" x2="23.8983" y2="16.7525">
	<stop  offset="0.2094" style="stop-color:#00CCFF"/>
	<stop  offset="0.8707" style="stop-color:#EE1FFF"/>
</linearGradient>
<path class="st1" d="M-0.1,19.9c0,1.2,1,2.2,2.2,2.2h19.5c1.2,0,2.2-1,2.2-2.2v-8.5l-11.8,3.1c-0.1,0-0.3,0-0.4,0l-11.8-3.1V19.9z"
	/>
</svg>
