<?xml version="1.0" encoding="utf-8"?>
<!-- Generator: Adobe Illustrator 25.0.0, SVG Export Plug-In . SVG Version: 6.00 Build 0)  -->
<svg version="1.1" id="Layer_1" xmlns:svgjs="http://svgjs.com/svgjs"
	 xmlns="http://www.w3.org/2000/svg" xmlns:xlink="http://www.w3.org/1999/xlink" x="0px" y="0px" viewBox="0 0 512 512"
	 style="enable-background:new 0 0 512 512;" xml:space="preserve">
<style type="text/css">
	.st0{fill:#FFFFFF;}
</style>
<g>
	<path class="st0" d="M256,0C115,0,0,115.1,0,256c0,141,115.1,256,256,256c141,0,256-115,256-256S397,0,256,0z M429.6,111.5
		c32,38.3,51.5,87.4,52.3,140.9c-40.1-9.4-84.5-10-129.9-1.7c-11.8,2.1-23.6,4.9-35.3,8.2c-3.9-10.6-8-21.1-12.4-31.6
		c-4.5-10.6-9.2-21.1-14.2-31.4C344.1,175.3,402.6,144.6,429.6,111.5z M256,30c58.8,0,112.5,22.6,152.7,59.5
		C393,111,348.3,142.1,276.5,169c-25.1-46.7-55.1-89.5-89.8-128.1C208.5,33.8,231.8,30,256,30z M156.9,52.9
		c35.4,37.9,65.9,80.3,91,126.1c-74.7,24.2-150.3,34-212.5,27.7C50.6,139,96.1,82.7,156.9,52.9z M30,256c0-6.6,0.3-13.2,0.9-19.7
		c13.7,1.4,28,2.2,42.8,2.2c58.3,0,123.9-11.2,188.2-32.5c9.8,20.1,18.6,40.8,26.4,62c-25.1,9-49.5,20.5-72.4,34.1
		c-56.2,33.5-97.3,76.5-114.4,118.7C57.5,379.5,30,320.9,30,256z M256,482c-48.3,0-93.1-15.2-129.9-41.1
		c11.4-38.5,50-80.2,105.1-113c19.4-11.6,42.1-22.5,66.9-31.4c17.5,55.1,28.3,113.3,31.7,173.1C306.7,477.6,281.8,482,256,482z
		 M359.1,457.1c-4.2-58.3-15-115.1-32.5-169.6c48.6-13.4,102.6-17.8,153.8-4.6C471.3,358.9,424.4,423.5,359.1,457.1z"/>
</g>
</svg>
