<?xml version="1.0" encoding="utf-8"?>
<!-- Generator: Adobe Illustrator 25.0.0, SVG Export Plug-In . SVG Version: 6.00 Build 0)  -->
<svg version="1.1" id="Layer_1" xmlns:svgjs="http://svgjs.com/svgjs"
	 xmlns="http://www.w3.org/2000/svg" xmlns:xlink="http://www.w3.org/1999/xlink" x="0px" y="0px" viewBox="0 0 512 512"
	 style="enable-background:new 0 0 512 512;" xml:space="preserve">
<style type="text/css">
	.st0{fill:#858585;}
	.st1{fill:#FFFFFF;}
	.st2{fill:#2B2B2B;}
</style>
<g>
	<path class="st0" d="M512,256"/>
	<g>
		<path class="st1" d="M319.5,486.6c0-8.4,0.3-36,0.3-70.2c0-23.9-8.2-39.5-17.4-47.4c44.3-4.9,90.4-19.1,108.7-71.5
			c0.4-1,0.7-2.1,1-3.1c1-3.2,1.9-6.5,2.7-10c0.2-1,0.5-2.1,0.7-3.1c2.4-11.3,3.7-24.1,3.7-38.6c0-27.9-9.9-50.8-26.4-68.7
			c2.7-6.4,11.4-32.5-2.5-67.8c0,0-21.5-6.9-70.3,26.2c-20.5-5.7-42.4-8.5-64.1-8.6c-21.8,0.1-43.7,2.9-64.1,8.6
			c-48.9-33.1-70.4-26.2-70.4-26.2c-13.9,35.3-5.1,61.3-2.5,67.8c-16.4,17.9-26.4,40.8-26.4,68.7c0,14.5,1.3,27.3,3.7,38.6
			c0.2,1.1,0.4,2.1,0.7,3.1c0.8,3.5,1.7,6.8,2.8,10c0.3,1.1,0.7,2.1,1,3.1c18.3,52.3,64.2,66.6,108.4,71.7
			c-7.3,6.4-14,17.7-16.3,34.2c-14.6,6.5-51.7,17.8-74.5-21.3c0,0-13.5-24.6-39.2-26.4c0,0-25-0.3-1.7,15.6c0,0,16.8,7.9,28.4,37.5
			c0,0,15,45.7,86.2,30.2c0.1,21.4,0.3,41.6,0.3,47.7v21.8h127.1L319.5,486.6z"/>
		<path class="st2" d="M94.7,363.7c-1.8-0.9-3.9-0.5-4.4,0.8c-0.6,1.3,0.4,3,2.3,3.8c1.8,0.9,3.8,0.5,4.4-0.8
			C97.6,366.3,96.5,364.5,94.7,363.7z"/>
		<path class="st2" d="M106.6,373.8c-1.7-1.8-4-2.3-5.2-1.2c-1.2,1.1-0.9,3.5,0.7,5.3s4,2.3,5.2,1.2
			C108.6,378,108.3,375.6,106.6,373.8z"/>
		<path class="st2" d="M117.5,387.7c-1.6-2.3-4.1-3.2-5.7-2.2c-1.6,1.1-1.6,3.8,0,6.1c1.6,2.3,4.1,3.3,5.7,2.2
			C119,392.8,119,390,117.5,387.7z"/>
		<path class="st2" d="M129.8,401.6c-2.2-2.1-5.2-2.5-6.6-1s-0.8,4.5,1.5,6.5c2.2,2.1,5.2,2.5,6.6,1S132.1,403.6,129.8,401.6z"/>
		<path class="st2" d="M146.1,411.1c-2.9-0.9-5.8,0-6.4,2.1c-0.6,2,1.3,4.4,4.2,5.3c2.9,0.8,5.8-0.1,6.4-2.1
			C150.9,414.3,149,412,146.1,411.1z"/>
		<path class="st2" d="M165.7,414.2c-3.1,0.1-5.5,1.8-5.5,3.9s2.5,3.8,5.6,3.7c3,0,5.5-1.8,5.4-3.9
			C171.3,415.8,168.8,414.1,165.7,414.2z"/>
		<path class="st2" d="M190.8,414.6c-0.4-2.1-3.1-3.3-6.1-2.8s-5.1,2.7-4.8,4.8c0.4,2,3.1,3.3,6.1,2.8
			C189,418.8,191.1,416.7,190.8,414.6z"/>
	</g>
</g>
</svg>
