<?xml version="1.0" encoding="utf-8"?>
<!-- Generator: Adobe Illustrator 25.0.0, SVG Export Plug-In . SVG Version: 6.00 Build 0)  -->
<svg version="1.1" id="Capa_1" xmlns="http://www.w3.org/2000/svg" xmlns:xlink="http://www.w3.org/1999/xlink" x="0px" y="0px"
	 viewBox="0 0 480.2 480.2" style="enable-background:new 0 0 480.2 480.2;" xml:space="preserve">
<style type="text/css">
	.st0{fill:#FFFFFF;}
</style>
<path class="st0" d="M477.8,234.5l-77.7-77.7V56.1c0-4.4-3.6-8-8-8h-48c-4.4,0-8,3.6-8,8v36.6L245.7,2.4c-3.1-3.1-8.2-3.1-11.3,0
	L2.3,234.5c-3.1,3.1-3.1,8.2,0,11.3c1.5,1.5,3.5,2.3,5.7,2.3h32.1v224c0,4.4,3.6,8,8,8h384c4.4,0,8-3.6,8-8v-224h32.1
	c4.4,0,8-3.6,8-8C480.2,238,479.3,236,477.8,234.5L477.8,234.5z M352.1,64.1h32v76.6l-32-32V64.1z M184.1,464.1v-176h112v176H184.1z
	 M432.1,232.1c-4.4,0-8,3.6-8,8v224h-112v-184c0-4.4-3.6-8-8-8h-128c-4.4,0-8,3.6-8,8v184h-112v-224c0-4.4-3.6-8-8-8H27.3
	L240.1,19.3l212.8,212.8H432.1z"/>
</svg>
