<?xml version="1.0" encoding="utf-8"?>
<!-- Generator: Adobe Illustrator 25.0.0, SVG Export Plug-In . SVG Version: 6.00 Build 0)  -->
<svg version="1.1" id="Capa_1" xmlns="http://www.w3.org/2000/svg" xmlns:xlink="http://www.w3.org/1999/xlink" x="0px" y="0px"
	 viewBox="0 0 480.1 480.1" style="enable-background:new 0 0 480.1 480.1;" xml:space="preserve">
<style type="text/css">
	.st0{fill:#FFFFFF;}
</style>
<path class="st0" d="M477.8,234.4L245.8,2.3c-3.1-3.1-8.2-3.1-11.3,0L2.4,234.4c-3.1,3.1-3.1,8.2,0,11.3s8.2,3.1,11.3,0l26.4-26.5
	v252.8c0,4.4,3.6,8,8,8h384c4.4,0,8-3.6,8-8V219.3l26.4,26.4c3.2,3.1,8.2,3,11.3-0.2C480.8,242.4,480.8,237.5,477.8,234.4
	L477.8,234.4z M296.1,464.1h-112v-120c0-30.9,25.1-56,56-56s56,25.1,56,56l0,0V464.1z M424.1,464.1h-112v-120c0-39.8-32.2-72-72-72
	s-72,32.2-72,72v120h-112V203.3l184-184l184,184V464.1z"/>
</svg>
