<?xml version="1.0" encoding="utf-8"?>
<!-- Generator: Adobe Illustrator 25.0.0, SVG Export Plug-In . SVG Version: 6.00 Build 0)  -->
<svg version="1.1" id="Layer_1" xmlns="http://www.w3.org/2000/svg" xmlns:xlink="http://www.w3.org/1999/xlink" x="0px" y="0px"
	 viewBox="0 0 24 24" style="enable-background:new 0 0 24 24;" xml:space="preserve">
<style type="text/css">
	.st0{fill-rule:evenodd;clip-rule:evenodd;fill:url(#SVGID_1_);}
	.st1{fill-rule:evenodd;clip-rule:evenodd;fill:url(#SVGID_2_);}
</style>
<linearGradient id="SVGID_1_" gradientUnits="userSpaceOnUse" x1="2.8352" y1="12.7374" x2="20.8352" y2="12.7374">
	<stop  offset="0.2094" style="stop-color:#00CCFF"/>
	<stop  offset="0.8707" style="stop-color:#EE1FFF"/>
</linearGradient>
<path class="st0" d="M11.8,4.9l9,9v6.3c0,1.2-1,2.2-2.2,2.2H5.1c-1.2,0-2.3-1-2.3-2.2v-6.3C2.8,13.9,11.8,4.9,11.8,4.9z M19.3,3.7V9
	l-3-3V3.7c0-0.4,0.3-0.8,0.8-0.8h1.5C19,3,19.3,3.3,19.3,3.7z"/>
<linearGradient id="SVGID_2_" gradientUnits="userSpaceOnUse" x1="0.5842" y1="7.6433" x2="23.0861" y2="7.6433">
	<stop  offset="0.2094" style="stop-color:#00CCFF"/>
	<stop  offset="0.8707" style="stop-color:#EE1FFF"/>
</linearGradient>
<path class="st1" d="M10.8,2.2c0.6-0.6,1.5-0.6,2.1,0l10,10c0.3,0.3,0.3,0.8,0,1.1c-0.3,0.3-0.8,0.3-1.1,0l-10-10l-10,10
	c-0.3,0.3-0.8,0.3-1.1,0s-0.3-0.8,0-1.1L10.8,2.2z"/>
</svg>
