<?xml version="1.0" encoding="utf-8"?>
<!-- Generator: Adobe Illustrator 25.0.0, SVG Export Plug-In . SVG Version: 6.00 Build 0)  -->
<svg version="1.1" id="Layer_1" xmlns="http://www.w3.org/2000/svg" xmlns:xlink="http://www.w3.org/1999/xlink" x="0px" y="0px"
	 viewBox="0 0 24 24" style="enable-background:new 0 0 24 24;" xml:space="preserve">
<style type="text/css">
	.st0{fill-rule:evenodd;clip-rule:evenodd;fill:url(#SVGID_1_);}
	.st1{fill-rule:evenodd;clip-rule:evenodd;fill:url(#SVGID_2_);}
</style>
<linearGradient id="SVGID_1_" gradientUnits="userSpaceOnUse" x1="3.0928" y1="12.374" x2="21.0928" y2="12.374">
	<stop  offset="0.2094" style="stop-color:#00CCFF"/>
	<stop  offset="0.8707" style="stop-color:#EE1FFF"/>
</linearGradient>
<path class="st0" d="M3.1,19.9v-9.8h1.5v9.8c0,0.4,0.3,0.8,0.8,0.8h13.5c0.4,0,0.8-0.3,0.8-0.8v-9.8h1.5v9.8c0,1.2-1,2.2-2.2,2.2
	H5.3C4.1,22.1,3.1,21.1,3.1,19.9z M19.6,3.4v5.2l-3-3V3.4c0-0.4,0.3-0.8,0.8-0.8h1.5C19.3,2.6,19.6,3,19.6,3.4z"/>
<linearGradient id="SVGID_2_" gradientUnits="userSpaceOnUse" x1="0.8419" y1="7.2798" x2="23.3438" y2="7.2798">
	<stop  offset="0.2094" style="stop-color:#00CCFF"/>
	<stop  offset="0.8707" style="stop-color:#EE1FFF"/>
</linearGradient>
<path class="st1" d="M11,1.9c0.6-0.6,1.5-0.6,2.1,0l10,10c0.3,0.3,0.3,0.8,0,1.1c-0.3,0.3-0.8,0.3-1.1,0l-10-10l-10,10
	c-0.3,0.3-0.8,0.3-1.1,0s-0.3-0.8,0-1.1L11,1.9z"/>
</svg>
