<?xml version="1.0" encoding="utf-8"?>
<!-- Generator: Adobe Illustrator 25.0.0, SVG Export Plug-In . SVG Version: 6.00 Build 0)  -->
<svg version="1.1" id="Layer_1" xmlns="http://www.w3.org/2000/svg" xmlns:xlink="http://www.w3.org/1999/xlink" x="0px" y="0px"
	 viewBox="0 0 30 30" style="enable-background:new 0 0 30 30;" xml:space="preserve">
<style type="text/css">
	.st0{fill:#FFFFFF;}
</style>
<g id="surface14940189">
	<path class="st0" d="M25.3,22.5h-7.5c-0.2,0-0.4-0.1-0.4-0.3c-0.1-0.2,0-0.4,0.1-0.5l1.7-1.7v-7.2l-3.8,9.5
		c-0.1,0.2-0.2,0.3-0.4,0.3h-2.3c-0.2,0-0.4-0.1-0.4-0.3L8.9,13v6.1l1.8,2.7c0.1,0.1,0.1,0.3,0,0.5s-0.2,0.2-0.4,0.2H4.7
		c-0.2,0-0.3-0.1-0.4-0.2c-0.1-0.2-0.1-0.3,0-0.5l1.8-2.7V8.2L4.2,6.3C3.9,6,3.9,5.6,4,5.3c0.1-0.4,0.5-0.6,0.9-0.6h5.4
		c0.2,0,0.3,0.1,0.4,0.3l4.5,9.7l4-9.7c0.1-0.2,0.2-0.3,0.4-0.3H25c0.4,0,0.7,0.2,0.9,0.6s0,0.8-0.3,1L24,7.7V20l1.7,1.7
		c0.1,0.1,0.2,0.3,0.1,0.5C25.7,22.4,25.5,22.5,25.3,22.5z M18.9,21.6h5.2L23,20.5c0-0.1,0-0.2,0-0.3V7.5c0-0.1,0.1-0.3,0.2-0.4
		L25,5.6h-5L15.7,16c-0.1,0.2-0.2,0.3-0.4,0.3s-0.4-0.1-0.4-0.3L10,5.6H4.9l2,2C7,7.7,7,7.8,7,8v11.2c0,0.1,0,0.2-0.1,0.3l-1.4,2.1
		h3.9L8,19.5c0-0.1,0-0.2,0-0.3v-8.9c0-0.2,0.2-0.4,0.4-0.5c0.2,0,0.4,0.1,0.5,0.3L13,21.6h1.7l4.6-11.4c0.1-0.2,0.3-0.3,0.5-0.3
		s0.4,0.2,0.4,0.5v9.8c0,0.1-0.1,0.2-0.1,0.3L18.9,21.6z M4.7,25.8c-0.3,0-0.5-0.2-0.5-0.5v-0.9c0-0.3,0.2-0.5,0.5-0.5
		s0.5,0.2,0.5,0.5v0.9C5.1,25.6,4.9,25.8,4.7,25.8z M7,25.8c-0.3,0-0.5-0.2-0.5-0.5v-0.9c0-0.3,0.2-0.5,0.5-0.5s0.5,0.2,0.5,0.5v0.9
		C7.4,25.6,7.2,25.8,7,25.8z M9.2,25.8c-0.3,0-0.5-0.2-0.5-0.5v-0.9c0-0.3,0.2-0.5,0.5-0.5s0.5,0.2,0.5,0.5v0.9
		C9.7,25.6,9.5,25.8,9.2,25.8z M11.6,25.8c-0.3,0-0.5-0.2-0.5-0.5v-0.9c0-0.3,0.2-0.5,0.5-0.5s0.5,0.2,0.5,0.5v0.9
		C12,25.6,11.8,25.8,11.6,25.8z M13.9,25.8c-0.3,0-0.5-0.2-0.5-0.5v-0.9c0-0.3,0.2-0.5,0.5-0.5s0.5,0.2,0.5,0.5v0.9
		C14.3,25.6,14.1,25.8,13.9,25.8z M16.1,25.8c-0.3,0-0.5-0.2-0.5-0.5v-0.9c0-0.3,0.2-0.5,0.5-0.5c0.3,0,0.5,0.2,0.5,0.5v0.9
		C16.6,25.6,16.4,25.8,16.1,25.8z M18.4,25.8c-0.3,0-0.5-0.2-0.5-0.5v-0.9c0-0.3,0.2-0.5,0.5-0.5s0.5,0.2,0.5,0.5v0.9
		C18.9,25.6,18.7,25.8,18.4,25.8z M20.8,25.8c-0.3,0-0.5-0.2-0.5-0.5v-0.9c0-0.3,0.2-0.5,0.5-0.5s0.5,0.2,0.5,0.5v0.9
		C21.2,25.6,21,25.8,20.8,25.8z M23,25.8c-0.3,0-0.5-0.2-0.5-0.5v-0.9c0-0.3,0.2-0.5,0.5-0.5s0.5,0.2,0.5,0.5v0.9
		C23.5,25.6,23.3,25.8,23,25.8z M25.3,25.8c-0.3,0-0.5-0.2-0.5-0.5v-0.9c0-0.3,0.2-0.5,0.5-0.5s0.5,0.2,0.5,0.5v0.9
		C25.8,25.6,25.6,25.8,25.3,25.8z"/>
</g>
</svg>
