<?xml version="1.0" encoding="utf-8"?>
<!-- Generator: Adobe Illustrator 25.0.0, SVG Export Plug-In . SVG Version: 6.00 Build 0)  -->
<svg version="1.1" id="Layer_1" xmlns="http://www.w3.org/2000/svg" xmlns:xlink="http://www.w3.org/1999/xlink" x="0px" y="0px"
	 viewBox="0 0 512 512" style="enable-background:new 0 0 512 512;" xml:space="preserve">
<style type="text/css">
	.st0{fill:#FFFFFF;}
</style>
<g>
	<g>
		<path class="st0" d="M469.3,106.7H362.7V85.3c0-23.5-19.1-42.7-42.7-42.7H192c-23.5,0-42.7,19.1-42.7,42.7v21.3H42.7
			C19.1,106.7,0,125.8,0,149.3v277.3c0,23.5,19.1,42.7,42.7,42.7h426.7c23.5,0,42.7-19.1,42.7-42.7V149.3
			C512,125.8,492.9,106.7,469.3,106.7z M170.7,85.3c0-11.8,9.6-21.3,21.3-21.3h128c11.8,0,21.3,9.6,21.3,21.3v21.3H170.7V85.3z
			 M490.7,426.7c0,11.8-9.6,21.3-21.3,21.3H42.7c-11.8,0-21.3-9.6-21.3-21.3V271.4c6.3,3.7,13.5,5.9,21.3,5.9h170.7v32
			c0,5.9,4.8,10.7,10.7,10.7h64c5.9,0,10.7-4.8,10.7-10.7v-32h170.7c7.8,0,15-2.3,21.3-5.9L490.7,426.7L490.7,426.7z M234.7,298.7
			V256h42.7v42.7H234.7z M490.7,234.7c0,11.8-9.6,21.3-21.3,21.3H298.7v-10.7c0-5.9-4.8-10.7-10.7-10.7h-64
			c-5.9,0-10.7,4.8-10.7,10.7V256H42.7c-11.8,0-21.3-9.6-21.3-21.3v-85.3c0-11.8,9.6-21.3,21.3-21.3h426.7
			c11.8,0,21.3,9.6,21.3,21.3V234.7z"/>
	</g>
</g>
</svg>
