<svg width="720" height="626" viewBox="0 0 720 626" fill="none" xmlns="http://www.w3.org/2000/svg">
<path fill-rule="evenodd" clip-rule="evenodd" d="M637.691 238.611C640.655 240.273 643.115 241.407 645.434 242.183L648.843 243.322L645.637 244.947C643.459 246.051 641.388 247.458 639.305 249.25L637.698 250.633L636.923 248.661C635.904 246.071 635.408 243.124 635.449 239.902L635.482 237.374L637.691 238.611ZM495.285 246.978C498.06 251.983 501.409 256.911 504.648 261.676C511.797 272.193 519.189 283.068 521.465 296.073C521.73 297.689 521.844 303.383 521.844 303.383L519.726 302.52C512.65 299.639 505.142 297.496 497.882 295.424C495.076 294.623 492.175 293.795 489.331 292.933C488.173 292.623 487.021 292.261 485.907 291.911C483.203 291.061 480.649 290.259 477.964 290.122L477.147 290.08L476.738 289.372C473.038 282.967 475.813 276.861 478.989 271.156C480.898 266.997 483.352 263.09 485.726 259.31C488.187 255.393 490.732 251.342 492.591 247.103L493.812 244.32L495.285 246.978ZM631.825 300.037C627.62 304.443 623.713 308.92 620.214 313.344L617.557 312.123C618.841 305.589 622.829 300.986 630.106 297.636L631.825 300.037ZM491.128 398.468C491.549 398.468 491.944 398.631 492.24 398.927C492.54 399.228 492.705 399.633 492.703 400.068L491.128 400.063V398.468ZM666.138 507.405C668.609 503.165 668.972 496.508 665.269 492.9C666.514 485.105 664.068 476.396 658.648 470.19L658.636 470.209C650.59 458.157 649.998 453.863 655.877 440.39C666.384 439.989 677.206 439.869 687.464 437.414L687.08 435.12C687.46 435.019 689.399 434.51 689.816 434.403C689.76 434.83 689.471 436.777 689.478 437.167C689.957 437.691 691.116 438.178 691.331 437.146C697.784 409.557 703.56 382.515 709.835 354.967C716.403 327.163 729.612 282.693 697.28 267.369L697.947 264.521C699.733 264.521 700.45 262.575 701.269 259.826C704.917 249.99 697.823 240.346 691.19 234.263C682.123 225.184 673.758 215.104 665.667 205.359C642.585 177.29 611.178 139.834 571.033 146.197L571.168 147.851C564.888 148.64 558.331 150.301 551.972 149.145C530.262 145.383 506.643 153.893 493.291 171.366L492.8 168.109C492.754 167.802 492.644 167.518 492.158 167.518C491.522 167.495 491.186 168.016 490.95 168.496C467.905 177.608 458.358 207.265 450.994 227.593C450.054 231.029 450.319 232.046 450.401 232.248L451.738 233.045C437.849 251.528 430.217 273.76 423.669 294.84C421.505 300.459 421.279 304.353 424.893 307.752C401.062 322.076 382.362 344.4 392.935 369.851C406.734 394.615 443.273 410.327 470.718 424.551C481.617 430.458 497.468 433.603 507.497 443.276C508.167 444.266 509.128 445.231 509.711 445.152C514.365 445.84 521.293 416.759 520.24 414.43C525.153 416.187 530.619 416.094 535.758 417.011C535.298 418.023 533.79 419.393 534.918 420.519C534.841 423.934 535.367 427.626 536.118 431.108C529.951 430.119 530.091 433.356 536.024 431.643C536.186 433.151 536.597 436.997 536.755 438.454C534.983 437.676 531.458 437.129 530.224 438.347C530.728 439.971 535.096 438.442 536.779 438.923C537.763 446.224 538.084 453.403 538.775 460.684C533.524 465.687 525.322 466.87 520.636 472.281C516.666 476.4 517.238 483.312 521.896 486.626C519.043 489.972 521.326 495.528 525.492 496.436C531.167 497.761 537.099 495.929 542.694 494.39C551.995 491.325 561.737 486.549 572.472 479.788C576.719 477.142 579.883 472.984 581.386 468.077C592.277 434.497 595.188 411.68 590.047 400.228C587.113 398.011 583.843 399.379 581.134 398.168C579.843 397.591 578.679 396.815 577.741 394.063C591.871 392.675 612.47 395.254 623.797 388.481L623.399 387.633C624.445 386.965 626.743 384.171 627.617 383.273C626.041 402.236 624.774 421.691 624.147 440.588C622.07 444.083 620.305 447.702 618.369 451.739C617.021 453.062 614.665 455.33 616.047 456.831C616.048 456.831 604.417 484.074 600.863 497.845C597.479 497.988 596.107 503.721 596.236 507.53C596.751 514.461 605.643 515.196 613.438 515.876C618.772 516.436 624.256 516.725 629.659 516.725C639.421 516.733 663.829 516.061 666.138 507.405Z" fill="#EDB98A"/>
<path fill-rule="evenodd" clip-rule="evenodd" d="M650.4 451.482C643.88 446.351 627.953 444.368 621.204 448.444C620.89 449.516 620.062 450.176 619.225 450.247C618.398 451.15 618.07 452.514 616.966 453.132C612.781 466.962 602.372 486.826 599.536 501.051C600.036 501.212 597.504 502.274 596.778 504.807C596.123 507.091 597.255 510.866 597.781 511.067C609.56 515.561 634.441 516.834 647.933 514.823C664.734 512.319 667.248 502.548 667.241 502.553C668.095 498.362 668.257 498.807 665.235 491.536C663.974 488.501 665.623 483.972 661.725 476.011C659.406 471.276 651.65 457.972 651.65 457.972C650.784 455.911 650.002 453.773 650.4 451.482ZM554.151 392.9L554.392 393.308C555.105 394.531 558.409 403.466 557.159 410.906C556.047 417.524 550.688 419.982 546.571 420.937C541.731 421.978 541.063 419.711 536.596 417.667C536.605 417.878 532.945 418.274 533.587 420.922C534.584 425.03 536.228 436.573 537.599 443.959C538.853 450.709 539.952 453.266 538.602 458.232C537.344 462.863 523.302 469.144 520.297 472.004C515.225 476.832 522.699 492.281 523.471 493.421C527.136 497.28 537.886 494.165 542.771 492.751L542.917 492.709L543.206 492.628C552.71 489.329 563.699 484.052 572.269 478.825C576.286 476.513 579.048 470.636 580.356 466.232C586.246 445.272 593.89 423.031 590.425 401.106C589.907 400.369 583.624 397.546 577.784 395.947C576.554 395.611 575.343 393.325 574.21 393.128C566.703 391.823 556.76 392.891 554.151 392.9Z" fill="white"/>
<path fill-rule="evenodd" clip-rule="evenodd" d="M572.523 144.731C572.16 144.766 571.826 144.805 571.491 144.847L571.134 144.891L571.292 145.214C575.541 163.632 574.717 176.363 569.578 188.362C563.677 202.14 553.832 211.315 542.068 214.534C530.693 217.647 518.233 213.184 507.894 203.948C499.041 196.04 491.536 166.856 491.536 166.856C489.978 167.541 484.467 170.081 483.026 170.952C468.323 183.58 457.238 208.832 451.932 226.03C451.9 226.133 451.868 226.236 451.84 226.338L452.157 226.361C454.616 226.552 464.888 227.622 476.163 234.375C481.434 237.531 491.459 248.397 491.459 248.397L493.215 245.643C493.215 245.643 485.665 231.695 487.949 233.123C491.952 235.624 518.294 278.422 522.303 296.724C522.649 298.304 522.267 305.851 522.267 305.851C522.244 305.966 522.66 313.048 524.56 317.257C529.466 328.127 540.458 343.905 551.028 349.852C561.93 354.874 573.765 349.317 583.267 343.631L583.846 343.283C583.883 343.26 583.92 343.238 583.955 343.215C583.955 343.215 585.785 334.587 585.996 331.029C586.186 327.814 585.92 324.719 585.996 322.265C586.17 316.578 586.622 313.18 587.703 311.439C588.193 308.929 589.369 302.196 596.778 294.22C600.295 290.435 608.987 286.631 612.67 282.38C624.394 268.849 634.778 254.279 636.386 252.582L636.808 252.141L636.769 252.001C635.642 247.926 635.414 241.844 636.662 237.651L635.565 236.941C630.184 233.446 618.563 225.398 609.701 216.448C606.948 213.667 606.825 208.511 608.581 210.203C608.638 210.259 608.697 210.314 608.758 210.366L608.931 210.208C621.088 199.188 637.903 193.059 652.359 192.35C652.556 192.34 652.754 192.362 652.948 192.369L652.559 191.925C647.218 185.824 641.7 178.617 635.882 173.007C619.294 156.831 596.257 145.146 572.523 144.731Z" fill="#8FA7DF"/>
<path fill-rule="evenodd" clip-rule="evenodd" d="M527.759 413.076C531.598 413.979 535.47 414.729 539.332 415.534C540.323 415.969 545.306 416.04 544.397 417.665C544.402 417.67 544.404 417.675 544.409 417.678C543.395 418.458 542.022 418.016 540.799 418.119C550.296 422.006 556.81 413.996 555.062 404.852C554.814 403.22 554.493 401.362 553.788 399.869C553.415 399.201 550.737 394.047 550.265 395.806C550.636 396.028 549.587 396.119 549.733 395.322C517.119 394.96 525.149 379.973 522.055 411.799C523.973 411.944 525.888 412.635 527.759 413.076M535.686 426.97C535.865 427.767 536.063 428.581 536.295 429.369C542.675 430.477 547.368 433.712 537.265 433.103C537.556 434.294 537.83 435.491 538.088 436.693C539.338 437.173 543.88 438.695 543.647 440.149C542.073 440.502 540.354 439.849 538.737 439.918C539.788 446.875 541.323 453.992 541.183 461.044C541.201 463.366 537.653 463.805 537.198 461.503C532.902 467.809 519.942 470.272 521.171 479.489C521.857 481.372 522.754 482.655 524.682 482.724C526.051 483.077 527.579 484.693 526.791 486.135L526.826 486.147C526.678 487.451 525.186 487.923 524.208 488.298C523.235 489.054 523.2 490.274 523.973 491.413C527.75 495.391 538.522 491.427 543.206 490.119C552.71 486.82 561.693 482.044 570.263 476.818C574.28 474.505 577.042 470.632 578.35 466.228C584.241 445.267 591.884 423.026 588.419 401.101C586.918 398.967 583.666 399.354 581.55 398.224C585.049 411.129 579.249 424.53 576.889 437.254C572.018 460.164 568.179 478.437 542.924 486.082C539.516 486.796 532.17 489.377 529.643 486.516C528.837 485.747 528.918 484.46 529.643 483.676C530.921 481.967 533.035 482.171 534.943 481.978C539.886 481.361 544.723 479.861 549.131 477.541C558.932 472.702 565.744 463.371 567.477 452.613C570.417 440.501 573.058 428.291 576.494 416.305C578.845 408.152 582.686 401.057 574.182 395.052C568.427 395.222 562.667 395.38 556.91 395.4C558.328 397.78 559.896 400.781 559.097 403.603C562.608 411.558 558.075 422.159 549.33 424.188C544.49 425.229 539.465 423.989 534.999 421.945C535.069 423.625 535.282 425.25 535.686 426.97M625.369 388.008C625.394 387.683 625.419 387.355 625.445 387.027C625.001 387.515 624.492 387.953 623.945 388.349C624.416 388.229 624.888 388.106 625.369 388.008M624.524 441.726C624.063 443.386 623.548 445.031 622.989 446.662C631.294 444.264 642.368 442.273 649.271 448.783C650.257 446.127 651.432 443.611 653.08 441.338C644.676 440.384 636.208 440.911 627.806 440.056C627.186 441.229 625.766 441.926 624.524 441.726M650.215 460.88C650.185 460.795 650.153 460.709 650.122 460.627C649.649 460.568 649.179 460.511 648.708 460.449C649.212 460.587 649.714 460.729 650.215 460.88M620.954 452.446C620.641 453.518 619.812 454.178 618.976 454.249C618.149 455.152 617.821 456.516 616.716 457.134C612.532 470.964 606.904 484.4 604.068 498.625C623.463 504.898 641.641 505.258 661.158 498.933C660.689 498.472 660.469 497.854 660.459 497.167C660.446 497.18 660.431 497.19 660.416 497.202C663.056 484.254 661.567 480.18 654.826 469.11C645.77 468.721 636.687 468.385 627.622 468.657C625.493 468.906 621.362 467.157 623.223 464.615C625.407 462.222 628.841 462.87 631.774 463.025C638.62 463.369 645.45 464.377 651.973 466.526C651.288 465.07 651.075 463.339 650.523 461.796C644.2 461.079 637.814 460.911 631.471 461.438C629.106 461.661 626.32 462.795 624.274 461.147C620.619 454.796 646.496 458.277 649.47 458.986C648.491 456.689 647.446 454.305 647.893 451.727C641.373 446.597 627.703 448.37 620.954 452.446M601.768 503.127C601.247 503.493 600.579 503.475 600.015 503.225C598.709 506.381 599.616 509.609 603.23 510.351C609.817 511.894 616.683 512.182 623.419 512.578C630.588 512.858 637.782 512.65 644.924 511.971C656.384 511.628 666.566 508.407 666.098 494.972C665.639 496.766 665.34 499.516 663.034 499.629C645.036 509.124 621.668 510.028 603.097 501.775C602.776 502.286 602.353 502.719 601.768 503.127M687.676 436.033C687.678 435.995 687.678 435.963 687.684 435.925C687.49 435.976 687.296 436.033 687.099 436.08C687.292 436.063 687.483 436.045 687.676 436.033M636.618 239.421C636.583 242.198 636.966 245.013 637.988 247.611C640.021 245.861 642.218 244.324 644.62 243.107C641.83 242.174 639.184 240.858 636.618 239.421M694.537 264.766C694.161 264.103 695.834 264.913 696.094 264.947C695.004 264.072 695.226 262.212 696.49 261.714C702.484 251.275 695.213 241.795 687.528 234.858C674.412 221.9 663.736 206.806 651.541 193.017C636.157 195.58 621.297 202.162 609.82 212.766C621.574 223.598 633.835 234.983 648.627 241.457C650.003 240.791 651.831 240.973 652.289 242.463C653.986 242.772 655.678 243.204 657.372 243.48C657.457 243.492 657.445 243.617 657.372 243.637C655.707 244.21 653.992 244.592 652.214 244.479C635.106 250.432 628.707 268.823 616.536 280.835C606.599 289.522 592.346 295.932 590.911 310.71C588.518 315.488 586.79 320.473 587.425 325.824C587.258 330.002 588.719 334.148 587.525 338.201C590.035 347.785 592.911 357.757 600.098 364.984C600.301 364.934 600.512 364.946 600.708 365.041C600.191 361.839 599.637 358.641 599.09 355.444C597.019 351.214 595.695 346.665 594.827 342.047C594.474 339.721 597.896 339.254 598.04 341.624C600.373 349.931 603.2 359.774 611.312 364.606C609.836 359.025 608.055 353.506 605.597 348.277C604.657 346.537 603.769 344.767 602.899 342.991C601.961 341.068 604.763 339.378 605.803 341.296C609.592 348.51 613.165 356.681 620.382 360.997C618.104 353.472 615.103 346.1 612.258 338.762C611.942 338.008 612.599 337.117 613.308 336.914C614.173 336.666 614.845 337.219 615.159 337.963C616.301 340.608 617.167 343.67 619.01 345.961C619.752 348.5 624.925 352.424 622.295 346.602C619.739 339.113 618.003 331.126 614.334 324.141C613.325 311.472 615.241 303.546 627.467 297.681C629.239 296.795 631.438 295.661 633.565 295.28C639.508 289.373 645.854 283.884 652.68 278.904C666.511 268.463 687.538 259.136 703.396 270.786C700.851 268.274 697.897 266.199 694.537 264.766M634.219 174.587C617.788 158.574 596.384 145.808 572.803 145.804C573.014 145.874 573.051 146.129 572.926 146.294C590.817 221.519 504.919 250.762 489.313 168.224C472.929 178.9 460.504 206.691 454.836 225.055C469.524 226.193 482.741 235.458 491.299 247.05C492.037 245.797 492.196 244.309 490.205 244.674C489.75 244.239 491.832 244.487 492.006 244.842C488.046 236.398 483.971 227.657 481.66 218.442C481.592 218.209 481.92 218.079 482.046 218.279C485.519 223.806 489.17 229.212 492.558 234.791C504.02 257.199 526.898 276.889 525.926 303.651C525.931 303.653 525.934 303.656 525.936 303.658C525.492 304.433 525.67 305.51 524.994 306.187C528.518 321.771 537.306 337.696 551.578 345.721C562.361 350.684 574.096 344.932 583.403 339.308C583.746 336.017 584.092 332.728 584.438 329.439C582.743 329.014 582.959 325.917 582.909 324.557C582.553 318.822 584.037 313.196 587.089 308.283C588.497 300.99 592.445 294.508 598.153 289.774C601.964 286.521 606.199 283.819 610.081 280.659C620.387 272.298 625.908 259.875 635.019 250.418C633.921 246.451 633.689 242.479 634.863 238.399C628.352 234.201 592.867 211.079 599.453 202.988C600.407 201.573 602.475 201.823 603.019 203.453C603.706 205.668 604.725 207.715 606.412 209.34C618.342 198.532 634.217 191.362 650.506 191.83C645.29 185.875 639.901 180.063 634.219 174.587M571.388 147.153C561.21 152.207 548.935 148.711 538.077 149.154C521.379 149.814 505.177 158.018 494.827 171.132C498.878 189.005 508.539 209.333 528.193 213.434C547.672 216.931 564.888 200.257 569.537 182.422C572.656 170.979 572.72 158.879 571.388 147.153M431.217 274.84C429.722 278.871 428.308 282.93 426.934 287.004C425.551 291.154 423.922 295.274 422.789 299.502C423.259 301.524 424.384 303.139 425.509 304.838C433.917 317.471 451.017 316.29 463.447 322.424C465.403 323.35 467.768 324.504 469.48 326.132C471.786 326.99 472.441 329.727 472.075 331.951C470.052 343.207 468.404 354.345 467.916 365.76C467.757 368.91 467.657 372.2 468.643 375.208C472.231 372.324 474.311 355.697 474.408 350.786C474.453 349.552 476.007 349.472 476.439 350.511C481.719 364.94 478.971 380.793 479.626 395.843C487.103 384.979 487.123 371.275 487.529 358.584C487.618 356.553 490.727 356.53 490.709 358.584C491.158 371.94 489.226 386.464 490.684 399.466C496.258 385.752 497.823 370.355 496.379 355.664C499.041 363.413 498.947 374.04 498.061 382.74C500.676 383.03 498.928 390.481 499.719 392.615C514.46 358.791 499.242 338.965 483.04 310.407C479.654 302.129 470.337 287.288 473.005 278.856C473.956 275.892 475.646 273.235 477.234 270.583C481.744 263.107 486.411 255.728 490.739 248.147C489.972 247.541 489.222 246.915 488.482 246.277C478.576 237.446 469.539 230.56 455.58 229.565C444.726 243.081 437.16 258.635 431.217 274.84M490.741 399.602C490.834 399.872 490.977 399.339 490.699 399.502C490.711 399.534 490.729 399.567 490.741 399.602M477.745 377.406C477.68 371.867 477.75 366.271 476.988 360.785C477.287 366.323 477.495 371.867 477.745 377.406M483.016 289.12C495.347 292.875 507.961 295.865 519.958 300.628C519.331 279.932 503.033 264.481 493.633 247.206C489.927 255.655 483.843 262.926 479.997 271.334C477.045 276.631 474.351 282.314 477.705 288.121C479.46 288.058 481.416 288.712 483.016 289.12M618.834 311.721C622.51 307.137 626.357 302.719 630.399 298.5C624.358 301.281 620.02 305.175 618.696 311.912C618.739 311.849 618.784 311.786 618.834 311.721M551.829 395.375C552.28 395.71 552.46 395.874 552.787 396.128C552.47 395.891 552.193 395.492 551.829 395.375M391.138 340.43C396.899 325.767 409.085 314.947 422.264 306.891C418.955 303.039 420.335 298.096 421.921 293.817C428.53 272.584 435.977 251.119 449.214 232.99C446.433 231.333 452.223 218.565 453.057 215.49C460.155 198.239 470.797 173.382 489.586 166.765C490.569 165.048 493.586 164.958 493.952 167.386C508.08 150.865 530.63 143.653 551.895 147.164C558.261 148.276 564.362 146.627 570.649 145.859C567.547 145.987 564.462 146.36 561.426 147.026C561.188 147.078 561.097 146.745 561.325 146.665C580.541 139.458 602.052 145.253 618.622 156.261C648.253 176.265 666.983 207.706 691.878 232.662C698.97 239.25 705.75 248.627 702.673 258.774C701.834 261.385 701.064 265.523 697.611 265.522C731.422 282.233 717.45 325.982 710.965 354.8C704.727 382.183 698.856 409.653 692.457 436.996C691.968 439.03 689.777 439.15 688.531 438.113C678.149 440.777 667.225 440.963 656.556 441.356C651.104 454.33 652.084 457.349 659.563 468.892C659.447 468.872 659.312 468.857 659.146 468.852C659.322 468.863 659.52 468.917 659.665 469.035C659.635 468.992 659.61 468.968 659.563 468.892C660.094 468.985 660.092 469.195 659.961 469.238C659.871 469.16 659.778 469.09 659.678 469.03C659.683 469.045 659.683 469.053 659.668 469.038C659.746 469.225 659.879 469.265 659.961 469.238C665.012 475.524 667.608 483.892 666.516 491.916C670.214 496.064 669.797 503.002 667.124 507.624C663.808 514.064 656.448 515.803 649.79 516.385C641.619 517.457 633.368 517.893 625.128 517.67C621.056 517.56 616.992 517.295 612.939 516.869C606.003 516.118 595.446 516.061 594.401 507.168C594.17 503.859 595.577 496.936 599.3 496.083C602.801 482.669 607.086 469.029 614.983 457.472C612.615 455.445 615.024 451.959 616.801 450.328C618.499 446.792 620.211 443.26 622.195 439.871C621.646 437.832 623.012 436.568 622.741 434.547C622.678 419.184 624.26 403.875 625.327 388.556C614.463 396.172 592.979 393.851 579.646 394.894C581.713 399.522 587.429 394.948 590.975 398.876C598.656 415.432 588.052 450.861 582.488 468.016C580.899 473.202 577.556 477.68 572.938 480.558C563.486 486.511 553.43 491.828 542.795 495.327C537.03 496.924 530.773 498.814 524.8 497.396C520.165 496.272 517.135 490.7 519.642 486.423C514.976 482.23 515.078 475.262 519.153 470.808C523.817 465.329 531.615 464.12 536.869 459.555C536.259 452.972 535.942 446.414 535.109 439.861C533.175 439.766 531.243 440.592 529.429 439.696C525.965 436.36 531.878 434.975 534.677 435.842C534.575 434.886 534.474 433.931 534.371 432.975C528.24 434.342 528.036 428.412 533.918 428.934C533.365 426.138 533.066 423.293 533.075 420.47C532.483 419.581 532.521 418.497 533.007 417.663C529.176 417.081 525.087 417.056 521.374 415.94C521.294 420.761 513.982 455.357 506.066 443.807C501.823 439.321 496.036 436.654 490.371 434.355C483.442 431.5 476.554 428.553 469.751 425.413C449.52 416.064 429.948 405.176 411.883 392.1C393.655 380.382 381.963 362.058 391.138 340.43" fill="black"/>
<path fill-rule="evenodd" clip-rule="evenodd" d="M481.266 113.918C482.984 92.9661 488.213 74.4089 512.787 73.6177C523.877 73.7168 535.197 76.0744 545.395 80.4363C570.182 92.8727 578.046 138.316 556.208 156.608C556.338 156.682 556.37 156.896 556.216 156.999C551.705 160.036 546.69 162.535 541.667 164.635C528.288 170.295 512.539 172.754 498.894 166.614C478.072 157.748 477.76 133.077 481.266 113.918V113.918Z" fill="#EDB98A"/>
<path fill-rule="evenodd" clip-rule="evenodd" d="M539.258 48.1891C531.486 47.1267 520.759 50.5797 516.889 57.5421C498.41 53.2128 475.104 53.071 459.874 67.4831C443.982 84.579 463.943 107.12 477.179 112.202C476.215 116.856 477.718 146.673 488.349 159.973C496.787 171.242 516.436 176.443 525.529 162.983L525.6 162.872C526.574 161.317 525.735 161.367 524.735 162.524C515.832 170.305 503.726 170.437 494.398 162.226C476.915 147.217 478.717 110.415 487.036 89.1246C510.725 86.539 536.089 93.6744 552.451 111.396L551.344 118.015C551.156 119.143 550.942 120.27 550.778 121.401C550.674 122.126 550.662 122.847 551.167 123.434C552.837 125.372 555.65 122.46 557.964 121.302C558.648 121.207 559.332 121.17 560.004 121.217C571.124 122.64 568.933 144.079 556.711 140.321C555.684 139.685 554.802 139.879 554.403 140.802C551.49 143.454 549.569 148.183 544.729 152.739C543.021 154.448 541.467 155.877 539.546 157.248C538.418 158.382 535.013 159.538 536.092 161.479C538.133 165.894 550.169 152.024 552.296 148.189C558.963 150.805 566.352 149.917 573.261 149.277C609.709 147.394 604.844 109.211 574.967 85.1047C569.344 80.9902 563.139 77.6337 556.689 75.0508C555.809 74.6982 556.193 73.2613 557.086 73.6189C561.354 75.3282 565.514 77.3627 569.48 79.7174L569.486 78.3096C569.492 75.9385 569.455 73.47 569.04 71.3036C568.833 69.8024 568.485 68.199 567.948 66.9929C567.285 63.2949 556.897 50.6015 539.258 48.1891Z" fill="black"/>
<path fill-rule="evenodd" clip-rule="evenodd" d="M494.265 141.582C495.89 141.275 497.57 141.361 499.184 141.004C500.759 140.655 502.009 139.617 503.531 139.134C504.869 138.709 506.439 138.997 507.481 139.821C508.45 139.371 509.551 139.273 510.653 139.422C512.324 139.648 513.884 140.359 515.372 141.128C515.545 141.217 515.717 141.302 515.89 141.388C518.641 141.319 521.46 141.325 524.16 141.917C526.55 142.443 528.809 143.665 530.235 145.706C531.83 147.992 532.118 150.902 532.364 153.602C532.52 155.316 530.153 155.664 529.351 154.423C528.519 153.136 527.653 151.846 526.545 150.78C525.287 149.569 523.755 149.092 522.04 148.981C518.252 148.738 514.44 148.942 510.649 148.773C508.452 148.675 506.005 147.826 505.12 145.904C504.174 147.394 502.033 148.28 500.271 148.414C498.409 148.556 496.519 148.216 494.675 148.606C492.914 148.979 490.821 150.298 491.213 152.407C491.443 153.647 489.885 154.377 489.168 153.274C486.241 148.768 489.126 142.554 494.265 141.582" fill="black"/>
<path fill-rule="evenodd" clip-rule="evenodd" d="M508.126 153.94L507.588 153.797C505.658 153.272 503.655 152.437 501.813 153.581C501.147 153.994 501.047 154.872 501.573 155.44C503.066 157.053 505.269 156.74 507.287 156.756L507.387 156.757C509.417 156.785 511.433 156.684 513.443 156.392C513.708 156.354 513.76 155.914 513.52 155.808C511.77 155.041 509.97 154.436 508.126 153.94V153.94ZM504.853 124.461C502.945 125.62 500.039 128.324 502.091 131.198C504.506 133.732 507.984 130.826 509.697 129.512C511.287 128.494 513.072 131.113 511.598 132.302C499.214 141.469 494.189 124.764 503.888 123.098C504.956 122.915 505.352 124.103 504.853 124.461ZM491.591 109.216C488.514 109.122 488.511 114.01 491.591 113.997C492.51 113.993 493.43 113.992 494.349 113.99C493.815 115.938 494.12 118.26 495.085 119.896C495.722 120.976 497.245 121.172 498.135 120.289C499.671 118.764 499.974 116.535 499.431 114.514L499.543 114.249V114.249C499.579 114.163 499.605 114.075 499.627 113.987C502.598 113.989 505.57 113.996 508.542 114.001L513 114.006C515.894 114.007 518.79 114.03 521.684 114.003C521.649 114.057 521.613 114.111 521.584 114.172C521.403 114.552 521.327 115.032 521.27 115.443C521.173 116.148 521.184 116.908 521.296 117.61C521.377 118.123 521.526 118.734 521.811 119.218L521.813 119.228V119.228C521.948 119.802 522.118 120.351 522.562 120.765C522.695 120.889 522.825 120.978 522.963 121.04C523.222 121.312 523.556 121.491 523.995 121.497C524.228 121.5 524.483 121.432 524.73 121.335C525.111 121.367 525.504 121.195 525.841 121.042C526.111 120.92 526.359 120.757 526.558 120.545C526.652 120.523 526.747 120.486 526.841 120.428C527.42 120.072 527.641 119.358 527.671 118.713C527.673 118.674 527.672 118.633 527.673 118.593C527.695 118.506 527.714 118.418 527.728 118.33C527.921 117.184 527.687 115.895 527.442 114.782C527.38 114.503 527.33 114.179 527.254 113.867C527.832 113.844 528.409 113.822 528.987 113.798C530.434 113.739 532.199 113.933 533.538 113.321C533.635 113.277 533.609 113.147 533.538 113.097C532.302 112.213 530.382 112.07 528.894 111.779L528.767 111.754C526.993 111.39 525.219 111.084 523.426 110.823C519.976 110.32 516.481 110.049 513 109.854C505.873 109.455 498.725 109.434 491.591 109.216Z" fill="black"/>
<path fill-rule="evenodd" clip-rule="evenodd" d="M82.3095 238.611C79.345 240.273 76.8846 241.407 74.5663 242.183L71.157 243.322L74.3634 244.947C76.5413 246.051 78.6123 247.458 80.6946 249.25L82.3017 250.633L83.0773 248.661C84.0959 246.071 84.5916 243.124 84.5505 239.902L84.5179 237.374L82.3095 238.611ZM224.715 246.978C221.94 251.983 218.591 256.911 215.352 261.676C208.203 272.193 200.811 283.068 198.535 296.073C198.27 297.689 198.156 303.383 198.156 303.383L200.274 302.52C207.35 299.639 214.858 297.496 222.118 295.424C224.924 294.623 227.825 293.795 230.669 292.933C231.827 292.623 232.979 292.261 234.093 291.911C236.797 291.061 239.351 290.259 242.036 290.122L242.853 290.08L243.262 289.372C246.962 282.967 244.187 276.861 241.011 271.156C239.102 266.997 236.648 263.09 234.274 259.31C231.813 255.393 229.268 251.342 227.409 247.103L226.188 244.32L224.715 246.978ZM88.1746 300.037C92.3804 304.443 96.2869 308.92 99.786 313.344L102.443 312.123C101.159 305.589 97.1711 300.986 89.8936 297.636L88.1746 300.037ZM228.872 398.468C228.451 398.468 228.056 398.631 227.76 398.927C227.46 399.228 227.295 399.633 227.297 400.068L228.872 400.063V398.468ZM53.8619 507.405C51.3909 503.165 51.0278 496.508 54.7311 492.9C53.4855 485.105 55.9324 476.396 61.3516 470.19L61.3641 470.209C69.4102 458.157 70.0015 453.863 64.1227 440.39C53.6164 439.989 42.7944 439.869 32.5361 437.414L32.9198 435.12C32.5401 435.019 30.6005 434.51 30.184 434.403C30.2397 434.83 30.5288 436.777 30.5218 437.167C30.0426 437.691 28.8843 438.178 28.6689 437.146C22.2156 409.557 16.4402 382.515 10.1647 354.967C3.5968 327.163 -9.61168 282.693 22.7202 267.369L22.0527 264.521C20.2673 264.521 19.5498 262.575 18.7314 259.826C15.0833 249.99 22.1768 240.346 28.8101 234.263C37.877 225.184 46.2416 215.104 54.3334 205.359C77.4152 177.29 108.822 139.834 148.967 146.197L148.832 147.851C155.112 148.64 161.669 150.301 168.028 149.145C189.738 145.383 213.357 153.893 226.709 171.366L227.2 168.109C227.246 167.802 227.356 167.518 227.842 167.518C228.478 167.495 228.814 168.016 229.05 168.496C252.095 177.608 261.642 207.265 269.006 227.593C269.946 231.029 269.681 232.046 269.599 232.248L268.262 233.045C282.151 251.528 289.783 273.76 296.331 294.84C298.495 300.459 298.721 304.353 295.107 307.752C318.938 322.076 337.638 344.4 327.065 369.851C313.266 394.615 276.727 410.327 249.282 424.551C238.383 430.458 222.532 433.603 212.503 443.276C211.833 444.266 210.872 445.231 210.289 445.152C205.635 445.84 198.707 416.759 199.76 414.43C194.847 416.187 189.381 416.094 184.242 417.011C184.702 418.023 186.21 419.393 185.082 420.519C185.159 423.934 184.633 427.626 183.882 431.108C190.049 430.119 189.909 433.356 183.976 431.643C183.814 433.151 183.403 436.997 183.245 438.454C185.017 437.676 188.542 437.129 189.776 438.347C189.272 439.971 184.904 438.442 183.221 438.923C182.237 446.224 181.916 453.403 181.225 460.684C186.476 465.687 194.678 466.87 199.364 472.281C203.334 476.4 202.762 483.312 198.104 486.626C200.957 489.972 198.674 495.528 194.508 496.436C188.833 497.761 182.901 495.929 177.306 494.39C168.005 491.325 158.263 486.549 147.528 479.788C143.281 477.142 140.117 472.984 138.614 468.077C127.723 434.497 124.812 411.68 129.953 400.228C132.887 398.011 136.157 399.379 138.866 398.168C140.157 397.591 141.321 396.815 142.259 394.063C128.129 392.675 107.53 395.254 96.2028 388.481L96.6013 387.633C95.5554 386.965 93.2572 384.171 92.3828 383.273C93.9588 402.236 95.2256 421.691 95.8525 440.588C97.9303 444.083 99.6946 447.702 101.631 451.739C102.979 453.062 105.335 455.33 103.953 456.831C103.952 456.831 115.583 484.074 119.137 497.845C122.521 497.988 123.893 503.721 123.764 507.53C123.249 514.461 114.357 515.196 106.562 515.876C101.228 516.436 95.7437 516.725 90.3408 516.725C80.579 516.733 56.1712 516.061 53.8619 507.405Z" fill="#FFDBB4"/>
<path fill-rule="evenodd" clip-rule="evenodd" d="M69.6005 451.481C76.1205 446.351 92.0467 444.367 98.7964 448.444C99.1098 449.516 99.9383 450.175 100.775 450.247C101.602 451.149 101.93 452.514 103.034 453.131C107.219 466.962 117.628 486.825 120.464 501.05C119.964 501.212 122.496 502.274 123.222 504.806C123.877 507.091 122.745 510.866 122.219 511.066C110.44 515.561 85.5586 516.833 72.0672 514.822C55.2664 512.318 52.7524 502.547 52.7588 502.553C51.9045 498.362 51.7429 498.807 54.7649 491.535C56.0262 488.5 54.3775 483.972 58.2755 476.01C60.5938 471.275 68.35 457.971 68.35 457.971C69.2164 455.911 69.9977 453.772 69.6005 451.481ZM165.849 392.9L165.608 393.308C164.895 394.531 161.591 403.466 162.841 410.906C163.953 417.524 169.312 419.982 173.429 420.937C178.269 421.978 178.937 419.711 183.404 417.667C183.395 417.878 187.055 418.274 186.413 420.922C185.416 425.03 183.772 436.573 182.401 443.959C181.147 450.709 180.048 453.266 181.398 458.232C182.656 462.863 196.698 469.144 199.703 472.004C204.775 476.832 197.301 492.281 196.529 493.421C192.864 497.28 182.114 494.165 177.229 492.751L177.083 492.709L176.794 492.628C167.29 489.329 156.301 484.052 147.731 478.825C143.714 476.513 140.952 470.636 139.644 466.232C133.754 445.272 126.11 423.031 129.575 401.106C130.093 400.369 136.376 397.546 142.216 395.947C143.446 395.611 144.657 393.325 145.79 393.128C153.297 391.823 163.24 392.891 165.849 392.9Z" fill="white"/>
<path fill-rule="evenodd" clip-rule="evenodd" d="M13.6647 273.452C24.8856 266.221 37.3138 266.328 50.6562 272.381C60.5863 276.887 70.1442 284.091 81.2293 294.443L81.5657 294.757L81.9576 295.131C88.2959 301.193 93.7609 307.197 98.4197 313.345L98.7292 313.754C98.9319 314.01 99.0742 314.046 99.2421 313.968L99.2689 313.955L100.793 313.157L101.724 314.602C102.49 315.793 102.859 317.082 102.926 318.529L102.933 318.709C102.956 319.417 102.919 320.029 102.802 321.02L102.754 321.41L102.639 322.297C102.428 323.939 102.381 324.792 102.506 325.643L102.528 325.781L102.552 325.913L102.64 326.382L102.08 328.116C100.581 332.762 99.1213 337.352 97.699 341.891L97.2735 343.252L96.4873 345.774L96.1631 346.759L95.9949 347.277L95.9162 347.53C95.8044 347.896 95.7197 348.205 95.651 348.504L95.6129 348.675C95.2956 350.149 95.4843 350.715 96.3246 351.037C96.8768 351.249 97.4947 351.148 98.2535 350.699L98.3354 350.649L102.755 347.921L101.108 352.842C100.854 353.6 100.559 354.332 100.133 355.289L100.06 355.451L99.9292 355.741L99.3645 356.978L99.2417 357.252C98.3436 359.264 97.9592 360.386 97.8121 361.596L97.7971 361.728L97.8135 361.851C97.8678 362.226 97.9455 362.521 98.0371 362.736L98.0603 362.788L98.0841 362.837L98.1182 362.901C98.16 362.975 98.1876 363.006 98.2049 363.018L98.2142 363.023L98.2201 363.025L98.2426 363.03C98.2866 363.037 98.3482 363.039 98.4284 363.033C98.6528 363.014 98.951 362.934 99.3056 362.786C100.703 362.204 102.549 360.768 104.168 359.156L104.28 359.043L104.425 358.897L110.735 352.366L107.694 360.69C106.703 363.402 106.306 365.409 106.423 366.613C106.444 366.827 106.48 366.996 106.525 367.121C106.541 367.164 106.555 367.197 106.567 367.22L106.578 367.238L106.619 367.244C107.812 367.384 110.595 365.665 113.399 362.731L113.594 362.525L113.79 362.314L118.194 357.527L117.025 363.922C116.718 365.598 117.048 366.683 118.012 367.239L118.1 367.288L118.171 367.328C119.129 367.854 120.291 367.2 122.048 365.13L122.207 364.941L122.364 364.75L122.618 364.437L123.208 363.698L123.347 363.517C128.069 357.342 131.03 349.368 132.194 340.482L132.23 340.201L132.265 339.923L132.641 336.836L133.918 337.718L133.695 336.212L137.766 340.42C147.279 350.25 157.596 352.776 167.751 348.835C176.901 345.284 185.479 336.536 191.378 325.081L191.556 324.733L191.762 324.317C193.454 320.872 195.044 317.247 196.211 313.91L196.316 313.606C197.732 309.481 198.247 306.361 197.743 305.026L197.724 304.978L196.915 303.003L198.98 302.453L218.695 297.191C225.812 295.301 231.184 293.898 236.537 292.537L237.163 292.379L242.704 290.981L241.285 294.427C238.58 300.998 235.767 306.337 229.925 316.403L229.178 317.686L226.663 321.998L225.88 323.349C219.804 333.869 216.524 340.41 214.079 347.541L214.002 347.766L213.845 348.233C210.582 358.013 209.757 367.293 211.68 376.963L211.719 377.154L211.901 377.713C213.86 383.68 216.012 389.366 218.054 393.407L218.156 393.608L218.353 393.989L218.451 394.175C219.087 395.374 219.685 396.344 220.226 397.053L220.359 397.224C220.588 397.511 220.794 397.733 220.961 397.888L221.026 397.946L221.034 397.933C221.269 397.5 221.516 396.77 221.736 395.752L221.762 395.628L221.787 395.506L222.798 390.518L225.314 395.038L225.405 395.205C225.674 395.704 225.908 396.191 226.223 396.902L226.332 397.147L226.826 398.282L227.066 398.821C227.395 399.554 227.639 400.043 227.9 400.486L227.936 400.546L228.038 400.712L228.089 400.793L228.116 400.824C228.658 401.415 229.614 401.24 230.157 400.297L230.191 400.236L230.224 400.174C230.711 399.229 230.905 398.038 230.894 396.322L230.892 396.11C230.889 395.888 230.883 395.675 230.874 395.42L230.87 395.308L230.787 393.418L230.777 393.121L230.774 393.028L230.767 392.66L230.757 392.318C230.744 391.796 230.739 391.256 230.739 390.605L230.739 390.269L230.749 388.13C230.75 387.221 230.743 386.611 230.721 385.992L230.715 385.815L230.252 375.022L234.503 385.223C235.086 386.615 235.664 387.953 236.478 389.807L236.651 390.198L238.881 395.244L239.51 396.679L239.922 397.628L239.944 397.618L240.18 397.339C240.706 396.717 241.034 395.582 241.16 394.07L241.171 393.935L241.18 393.803L241.186 393.704L241.198 393.491L241.312 390.575L241.421 387.688L242.07 369.855L242.782 351.728L245.954 364.932C246.785 368.391 248.221 371.769 250.582 376.154L250.838 376.628L251.097 377.101L251.223 377.33L251.244 377.287C251.339 377.095 251.428 376.883 251.502 376.669L251.545 376.541L251.569 376.464L251.589 376.394L251.737 375.853L252.067 375.509C252.367 375.196 252.601 374.637 252.733 373.905L252.75 373.804L252.768 373.685L252.771 373.619C252.934 368.495 250.95 346.534 249.835 338.951L249.768 338.505L249.742 338.322L249.712 338.128L249.675 337.898C249.663 337.824 249.65 337.75 249.635 337.668L249.603 337.492L249.309 335.957C249.257 335.679 249.215 335.447 249.177 335.22L249.163 335.135L249.111 334.808C248.861 333.171 248.83 331.866 249.107 330.62C249.477 328.949 250.397 327.579 251.91 326.597L252.016 326.529L252.196 326.417L253.039 326.125L253.676 325.908C255.118 325.421 256.631 324.933 258.57 324.325L259.232 324.118L265.405 322.202L266.799 321.762L267.674 321.482C273.425 319.633 277.588 318.078 281.515 316.223C286.633 313.805 290.87 311.045 294.403 307.695L294.598 307.508L295.649 306.497L296.891 307.263C298.166 308.049 299.42 308.855 300.65 309.68L301.176 310.034L301.333 310.141L301.709 310.526L306.724 315.624L307.562 316.486C314.091 323.229 318.13 327.995 321.479 333.293L321.585 333.461L321.805 333.814C326.512 341.412 328.862 349.041 328.585 357.251L328.576 357.5L328.573 357.669C328.401 363.961 326.021 369.698 321.734 375.065C318.335 379.322 313.945 383.156 308.099 387.31L307.524 387.716L306.944 388.121C289.742 400.472 270.872 411.405 250.481 420.98C244.139 423.964 237.493 426.889 230.323 429.871L229.649 430.15L228.332 430.694L227.598 430.992L226.85 431.298L226.377 431.494C219.584 434.321 215.289 436.752 211.784 440.14L211.664 440.257L209.982 441.902L208.747 439.9C203.713 431.745 200.81 422.366 198.588 409.378L198.466 408.662L198.347 407.942L198.066 404.71C197.899 402.821 197.767 401.394 197.632 400.057L197.537 399.123L197.401 397.851L197.289 397.21L196.991 395.484L196.791 394.343L196.682 393.734L196.564 393.082C196.426 392.331 196.291 391.614 196.155 390.923L196.097 390.628C195.913 389.699 195.733 388.844 195.559 388.069L195.444 387.569L195.306 387.617C185.793 390.918 175.677 392.481 165.695 392.184L165.334 392.172L165.032 392.161L164 392.176C160.041 392.227 156.082 392.212 151.032 392.137L148.798 392.101L145.408 392.039L136.934 391.871C130.678 391.754 126.794 391.714 122.735 391.736L122.277 391.739L120.714 391.752L118.411 391.781L117.509 391.796L113.83 391.873L112.538 391.897C108.548 391.961 106.164 391.918 103.565 391.696L103.024 391.647L102.56 391.602L102.347 391.555L102.14 391.507C100.394 391.093 99.0177 390.485 96.4801 389.141L95.3277 388.527C94.4892 388.083 93.9582 387.816 93.3972 387.559L93.25 387.492L92.2411 387.038L92.1308 385.725C91.9366 383.488 91.6698 381.661 91.3537 380.278L91.2919 380.016L91.2783 379.961L91.2668 380.034C91.1002 381.102 91.0246 382.381 91.0595 383.771L91.0655 383.981L91.0725 384.173L91.1386 386.924C91.2277 390.365 91.3426 393.746 91.5233 398.303L91.6329 401.016L92.24 415.457L92.3537 418.315C92.6051 424.786 92.7601 429.94 92.8411 434.956L92.8574 436.029L92.8886 438.438L91.2075 438.637C73.4292 440.737 54.815 440.067 32.1172 437.111L31.4282 437.021L30.1227 436.849L28.952 431.583C27.6446 425.728 26.3582 420.064 24.6715 412.735L23.2174 406.432L16.8027 378.756C16.126 375.828 15.5348 373.262 14.9821 370.853L14.0075 366.592L12.7682 361.137L12.6984 360.768C12.3056 358.707 11.8041 356.416 11.1386 353.606L10.8969 352.593L10.4543 350.771L8.47295 342.78L7.78713 340.003L7.37161 338.29C5.8602 332.015 4.78879 327.046 3.93734 322.147L3.83131 321.53C2.08765 311.276 1.60955 302.598 2.651 295.056C3.89473 286.049 7.31552 278.884 13.2878 273.752L13.4695 273.597L13.5624 273.518L13.6647 273.452Z" fill="#8FA7DF"/>
<path fill-rule="evenodd" clip-rule="evenodd" d="M101.378 156.261C117.948 145.254 139.459 139.458 158.675 146.665C158.903 146.746 158.812 147.079 158.574 147.026C155.538 146.36 152.453 145.987 149.351 145.859C155.638 146.627 161.739 148.276 168.105 147.164C189.37 143.653 211.92 150.866 226.048 167.386C226.414 164.959 229.43 165.049 230.414 166.765C249.203 173.382 259.845 198.24 266.942 215.49C267.776 218.565 273.567 231.334 270.786 232.991C284.022 251.119 291.47 272.585 298.078 293.818L298.268 294.334C299.768 298.49 300.912 303.193 297.735 306.891C310.915 314.947 323.101 325.768 328.862 340.43C338.037 362.058 326.346 380.382 308.117 392.1C290.051 405.177 270.48 416.064 250.249 425.413C243.446 428.553 236.558 431.5 229.629 434.355L228.94 434.637C223.497 436.874 218.005 439.504 213.934 443.808C206.018 455.357 198.706 420.762 198.625 415.941C194.913 417.056 190.825 417.081 186.993 417.664C187.479 418.497 187.517 419.582 186.925 420.471C186.934 423.293 186.634 426.138 186.082 428.934C191.964 428.412 191.76 434.343 185.629 432.975L185.322 435.842V435.842C188.122 434.975 194.035 436.36 190.571 439.696C188.757 440.592 186.825 439.766 184.891 439.861C184.058 446.415 183.741 452.973 183.131 459.555C188.384 464.12 196.183 465.329 200.847 470.808C204.922 475.262 205.024 482.231 200.358 486.423C202.865 490.701 199.835 496.272 195.2 497.396C189.226 498.815 182.97 496.924 177.205 495.328C166.722 491.878 156.801 486.663 147.467 480.813L147.062 480.559C142.443 477.681 139.101 473.202 137.512 468.016L137.173 466.965C131.531 449.452 121.498 415.102 129.025 398.876C132.571 394.948 138.287 399.522 140.354 394.894C127.021 393.852 105.537 396.172 94.6731 388.557C95.7399 403.875 97.3221 419.184 97.259 434.548C96.9881 436.568 98.354 437.832 97.8051 439.871C99.7884 443.26 101.501 446.792 103.199 450.328L103.306 450.428C105.07 452.098 107.337 455.486 105.017 457.472C112.914 469.029 117.199 482.669 120.699 496.084C124.423 496.936 125.83 503.86 125.599 507.169C124.554 516.061 113.997 516.119 107.061 516.869C103.008 517.295 98.9435 517.56 94.8712 517.671C86.6315 517.893 78.3813 517.458 70.2093 516.386C63.5519 515.803 56.1922 514.065 52.8764 507.625C50.203 503.002 49.7858 496.065 53.4835 491.917C52.4026 483.972 54.9365 475.691 59.8878 469.427L60.0386 469.238L60.0259 469.233C59.9124 469.184 59.9225 468.996 60.3859 468.902L60.4373 468.893L60.6597 468.549C67.9349 457.288 68.8413 454.2 63.4436 441.356L58.5387 441.181C49.4495 440.849 40.2651 440.37 31.4693 438.113C30.2233 439.15 28.0314 439.03 27.5425 436.997C21.1438 409.654 15.2728 382.183 9.03419 354.8C2.55007 325.982 -11.422 282.233 22.3894 265.523C18.9359 265.524 18.1663 261.386 17.327 258.775C14.25 248.627 21.0302 239.251 28.122 232.663C53.0171 207.707 71.7472 176.266 101.378 156.261ZM53.9018 494.972C53.4339 508.407 63.616 511.629 75.0761 511.972C82.2175 512.65 89.412 512.858 96.581 512.578L99.9579 512.383C105.598 512.051 111.28 511.637 116.769 510.352C120.384 509.61 121.29 506.381 119.985 503.225C119.42 503.476 118.753 503.493 118.231 503.127C117.647 502.719 117.224 502.286 116.902 501.776C98.3315 510.028 74.9635 509.124 56.9661 499.629C54.6599 499.516 54.3604 496.766 53.9018 494.972ZM99.0472 452.447C92.2975 448.37 78.6282 446.598 72.1082 451.728C72.555 454.305 71.5104 456.69 70.5309 458.987C73.5056 458.278 99.3817 454.796 95.7269 461.148C93.6807 462.796 90.895 461.661 88.5301 461.438C82.1877 460.912 75.8013 461.079 69.4777 461.797C68.9265 463.34 68.7136 465.071 68.0281 466.526C74.4327 464.416 81.1332 463.406 87.8533 463.046L88.2267 463.026C91.1606 462.871 94.5937 462.222 96.7778 464.616C98.6392 467.157 94.508 468.907 92.3795 468.657C83.3146 468.386 74.2311 468.721 65.1744 469.111L64.7763 469.767C58.3764 480.347 56.9983 484.514 59.585 497.203C59.5702 497.19 59.5549 497.18 59.5424 497.168C59.5324 497.854 59.3119 498.473 58.8428 498.933C78.3601 505.258 96.5386 504.899 115.933 498.626C113.097 484.401 107.47 470.965 103.285 457.134C102.18 456.516 101.853 455.152 101.025 454.249C100.189 454.178 99.3606 453.518 99.0472 452.447ZM145.818 395.052C137.314 401.057 141.155 408.153 143.506 416.306C146.942 428.291 149.583 440.502 152.523 452.614C154.255 463.372 161.068 472.703 170.868 477.541C175.277 479.861 180.114 481.361 185.056 481.978C186.965 482.172 189.079 481.968 190.357 483.676C191.082 484.46 191.162 485.747 190.357 486.516C187.83 489.377 180.483 486.796 177.075 486.082C151.821 478.438 147.982 460.165 143.111 437.254C140.751 424.53 134.951 411.129 138.45 398.225C136.334 399.355 133.082 398.967 131.581 401.102C128.116 423.026 135.759 445.268 141.65 466.228C142.958 470.632 145.719 474.506 149.737 476.818C158.307 482.044 167.29 486.821 176.794 490.119L177.082 490.201C181.905 491.583 192.325 495.312 196.027 491.413C196.799 490.274 196.764 489.055 195.791 488.298L195.32 488.119C194.414 487.77 193.348 487.277 193.183 486.221L193.173 486.148L193.208 486.135C192.421 484.693 193.949 483.078 195.317 482.725C197.246 482.655 198.143 481.372 198.828 479.489C200.058 470.272 187.098 467.809 182.802 461.503C182.346 463.805 178.798 463.367 178.817 461.045C178.677 453.993 180.212 446.876 181.262 439.919C179.645 439.85 177.927 440.502 176.352 440.149C176.12 438.696 180.662 437.174 181.912 436.694C182.17 435.492 182.444 434.295 182.734 433.103C172.632 433.713 177.325 430.477 183.705 429.37C183.903 428.694 184.078 427.999 184.236 427.313L184.314 426.97C184.718 425.25 184.931 423.625 185.001 421.945C180.535 423.989 175.51 425.229 170.67 424.189C161.925 422.16 157.392 411.559 160.903 403.603C160.104 400.781 161.672 397.78 163.09 395.4C157.333 395.38 151.572 395.222 145.818 395.052ZM60.3213 469.03C60.2458 469.075 60.1748 469.126 60.106 469.182L60.0379 469.238L60.055 469.243C60.1379 469.26 60.2585 469.213 60.3313 469.038C60.316 469.053 60.316 469.045 60.3213 469.03ZM60.8531 468.853C60.7152 468.857 60.5982 468.868 60.4962 468.883L60.4368 468.893L60.4179 468.922C60.3825 468.976 60.3605 468.998 60.334 469.036C60.4797 468.918 60.6773 468.863 60.8531 468.853ZM71.2933 460.449C70.8224 460.511 70.3522 460.568 69.8788 460.627L69.786 460.88V460.88C70.2875 460.729 70.789 460.587 71.2933 460.449ZM92.1936 440.057C83.7917 440.911 75.324 440.385 66.9196 441.339C68.5676 443.612 69.7431 446.128 70.7289 448.783C77.6318 442.274 88.7055 444.265 97.0107 446.662C96.4517 445.032 95.9369 443.387 95.476 441.727C94.2333 441.927 92.8142 441.23 92.1936 440.057ZM297.12 307.688C285.635 319.375 268.278 322.588 253.423 327.748C249.816 330.003 251.579 334.473 252.039 337.868C252.899 343.441 253.582 349.041 254.078 354.658C255.913 352.538 260.72 352.261 263.411 351.4L263.769 351.319C267.358 350.497 271.088 349.263 274.75 350.063C276.227 350.383 276.327 352.424 275.154 353.15C272.181 354.994 268.544 355.047 265.137 355.45L264.265 355.555C261.25 355.913 258.21 356.24 255.181 356.113C254.8 356.173 254.416 356.027 254.175 355.77C254.553 361.642 255.309 367.598 255.053 373.48C254.913 374.524 254.577 375.661 253.834 376.435L253.81 376.524C253.389 378.01 252.023 380.662 250.449 378.699L250.153 378.168C247.842 374.003 245.651 369.648 244.534 364.997C244.162 374.403 243.861 383.804 243.485 393.207L243.473 393.433C243.377 395.029 243.065 396.949 242.026 398.177C242.118 398.907 241.463 399.332 240.878 399.071L240.8 399.107C240.239 399.358 239.337 399.59 238.994 398.906C237.021 394.296 234.919 389.759 232.994 385.136C233.095 387.509 232.98 389.886 233.056 392.26C233.094 394.97 233.598 398.155 232.304 400.661C231.199 402.857 228.447 403.431 226.97 401.52C225.787 399.695 225.116 397.44 224.039 395.505C221.005 410.479 213.323 388.468 211.912 383.932C207.577 386.464 203.006 388.602 198.278 390.312C199.579 392.279 199.264 394.953 199.673 397.213C200.041 400.584 200.332 403.956 200.623 407.335L200.73 407.981C202.501 418.546 205.08 429.345 210.756 438.542C215.562 433.842 221.867 431.07 228.034 428.581C235.459 425.523 242.824 422.326 250.088 418.908C269.724 409.687 288.631 398.877 306.255 386.223L306.854 385.804C316.649 378.921 326.855 369.895 327.106 357.052C327.951 335.997 310.322 321.634 297.12 307.688ZM80.6887 295.753C63.9222 280.044 38.2515 259.732 15.0945 274.657C-6.53601 292.939 10.6019 336.776 15.0202 360.384C20.6385 385.2 26.5765 409.947 32.0841 434.785C51.7241 437.374 71.6594 438.73 91.3964 436.398C91.1732 418.885 89.9899 401.394 89.6032 383.874C89.2436 374.848 89.3685 365.786 88.0139 356.846C86.8644 349.577 88.3406 340.795 84.2871 334.445C82.7868 332.133 80.3467 330.109 79.8013 327.322C79.7888 327.191 79.959 327.149 80.0418 327.221C81.2281 328.263 82.181 329.505 83.4395 330.504L84.3651 331.22C85.8704 332.39 87.3698 333.64 88.302 335.304C88.3978 334.595 86.6011 328.272 87.6771 329.027L87.8799 329.581C89.3269 333.556 90.6313 337.577 91.0027 341.83C92.423 356.324 93.2166 370.891 94.4328 385.407C97.3662 386.727 100.061 388.669 103.265 389.37C108.511 389.889 113.765 389.596 119.021 389.526L119.514 389.521C134.849 389.292 150.136 390.152 165.46 389.909C181.124 390.516 197.135 386.418 210.504 378.185C203.18 345.146 228.328 321.582 239.956 293.34C226.561 296.714 213.232 300.339 199.874 303.894C201.677 308.296 195.847 320.769 193.653 325.19C181.914 348.306 158.173 363.413 136.824 341.351C136.834 341.419 136.841 341.486 136.849 341.557C136.132 340.903 135.34 340.328 134.542 339.776C133.469 348.567 130.569 357.427 125.096 364.486L124.499 365.234C122.791 367.36 120.319 370.156 117.586 368.55C115.573 367.462 115.194 365.346 115.585 363.211C109.008 370.36 101.843 371.974 106.337 359.673L106.188 359.827C103.672 362.407 96.9957 368.109 96.316 361.368C96.6124 358.012 98.6822 355.017 99.7341 351.873C98.6105 352.567 97.3466 352.91 96.0602 352.416C92.6101 351.094 94.3854 347.153 95.155 344.672C97.1037 338.399 99.0919 332.137 101.114 325.887C100.413 322.171 102.632 318.474 100.552 315.245C99.6614 315.71 98.4625 315.613 97.6027 314.466C92.5574 307.755 86.7674 301.538 80.6887 295.753ZM32.3175 435.925C32.3228 435.963 32.3228 435.995 32.3251 436.033C32.5184 436.046 32.709 436.063 32.9018 436.08C32.7052 436.033 32.5111 435.976 32.3175 435.925ZM197.945 411.799C194.851 379.973 202.881 394.961 170.267 395.323C170.413 396.12 169.364 396.028 169.735 395.806C169.263 394.047 166.585 399.201 166.212 399.87C165.507 401.362 165.186 403.22 164.938 404.852C163.19 413.996 169.704 422.006 179.201 418.119C177.979 418.017 176.605 418.458 175.59 417.678C175.595 417.676 175.598 417.671 175.603 417.666C174.694 416.04 179.677 415.97 180.668 415.535C184.53 414.729 188.401 413.98 192.241 413.076C194.112 412.635 196.027 411.944 197.945 411.799ZM229.301 399.502C229.023 399.339 229.165 399.872 229.258 399.602C229.271 399.567 229.288 399.534 229.301 399.502ZM264.419 229.565C250.46 230.561 241.423 237.447 231.517 246.277C230.777 246.915 230.027 247.541 229.26 248.147C233.589 255.728 238.255 263.108 242.766 270.583L243.611 271.989C244.927 274.182 246.211 276.415 246.994 278.857C249.662 287.288 240.345 302.129 236.959 310.407C220.758 338.965 205.539 358.792 220.28 392.616C221.072 390.481 219.324 383.03 221.938 382.74L221.885 382.21C221.05 373.612 221.012 363.257 223.62 355.664C222.177 370.355 223.741 385.752 229.315 399.467C230.774 386.465 228.841 371.94 229.29 358.584C229.273 356.531 232.382 356.553 232.47 358.584L232.576 362.032C232.94 373.719 233.57 385.957 240.374 395.843C241.029 380.793 238.28 364.94 243.561 350.511C243.992 349.472 245.547 349.552 245.592 350.787C245.689 355.698 247.769 372.324 251.357 375.208C252.343 372.201 252.242 368.91 252.084 365.76C251.595 354.345 249.947 343.207 247.924 331.952C247.559 329.728 248.214 326.99 250.519 326.132C252.232 324.505 254.597 323.35 256.553 322.424C268.983 316.29 286.082 317.471 294.49 304.838L294.898 304.223C295.878 302.742 296.797 301.279 297.211 299.502C296.078 295.275 294.449 291.155 293.066 287.005C291.829 283.338 290.56 279.683 289.229 276.05L288.783 274.84C282.84 258.636 275.273 243.081 264.419 229.565ZM168.171 395.375C167.853 395.479 167.601 395.797 167.33 396.034L167.272 396.083L167.437 395.951C167.612 395.81 167.771 395.679 168.014 395.493L168.171 395.375ZM94.555 387.027L94.6303 388.008V388.008C95.1117 388.106 95.5834 388.229 96.0548 388.349C95.5079 387.953 94.9991 387.515 94.555 387.027ZM165.67 364.854C165.615 364.661 165.891 364.549 165.994 364.718C170.051 371.847 178.037 374.685 185.726 375.814C187.035 376.12 186.874 377.925 185.726 378.306C181.428 379.728 176.465 377.812 172.947 375.261C169.341 372.649 166.881 369.121 165.67 364.854ZM243.012 360.785C242.251 366.272 242.32 371.868 242.255 377.406C242.506 371.868 242.714 366.324 243.012 360.785ZM131.01 370.448C131.808 370.723 132.633 370.904 133.445 370.974C132.583 371.385 131.597 371.179 131.01 370.448ZM68.4581 193.017C56.2637 206.806 45.5881 221.9 32.4722 234.859C24.7869 241.795 17.5159 251.275 23.5095 261.714C24.7736 262.212 24.9958 264.072 23.9057 264.947C24.166 264.913 25.8388 264.104 25.463 264.766C22.103 266.199 19.1488 268.275 16.6036 270.786C32.4616 259.136 53.4888 268.463 67.3196 278.904C74.1455 283.884 80.492 289.373 86.435 295.28C88.5617 295.661 90.7606 296.795 92.5332 297.682C104.759 303.547 106.675 311.472 105.666 324.141C101.997 331.126 100.261 339.114 97.7043 346.602C95.0749 352.424 100.248 348.5 100.989 345.961C102.79 343.724 103.658 340.75 104.762 338.149L104.841 337.964C105.154 337.22 105.826 336.666 106.692 336.914C107.386 337.113 108.03 337.971 107.761 338.714L107.207 340.139C104.525 347.023 101.753 353.943 99.6176 360.998C106.834 356.681 110.408 348.511 114.197 341.296C115.237 339.378 118.038 341.068 117.101 342.991C116.23 344.767 115.343 346.537 114.402 348.277C111.945 353.507 110.163 359.025 108.688 364.606C116.799 359.774 119.627 349.931 121.96 341.624C122.104 339.255 125.526 339.721 125.172 342.047C124.305 346.665 122.981 351.215 120.91 355.444L120.362 358.642C119.997 360.774 119.636 362.907 119.292 365.042C119.488 364.946 119.698 364.934 119.901 364.984C127.088 357.757 129.965 347.786 132.474 338.202C131.281 334.148 132.741 330.003 132.575 325.824C133.209 320.474 131.481 315.488 129.088 310.711C127.654 295.932 113.401 289.522 103.464 280.835C91.2927 268.824 84.8933 250.432 67.7861 244.479C66.0074 244.592 64.2927 244.211 62.6279 243.638C62.5552 243.618 62.5427 243.492 62.6279 243.48C64.3213 243.204 66.0137 242.772 67.7111 242.463C68.1685 240.973 69.9972 240.791 71.3724 241.457C86.1647 234.983 98.4253 223.598 110.18 212.766C98.7024 202.163 83.8424 195.58 68.4581 193.017ZM136.525 343.32C136.77 343.593 136.986 343.888 137.147 344.211C137.191 344.294 137.185 344.393 137.199 344.484C136.988 344.089 136.765 343.698 136.525 343.32ZM89.6008 298.501C93.6872 302.782 97.6108 307.244 101.304 311.912C99.9792 305.175 95.6411 301.281 89.6008 298.501ZM226.367 247.206C217.494 263.212 203.601 277.272 200.353 295.831C200.092 297.419 200.074 299.027 200.042 300.629C209.947 296.596 220.374 294.083 230.592 290.988C234.465 289.955 238.226 288.329 242.295 288.121C245.648 282.315 242.955 276.631 240.003 271.335C236.157 262.927 230.073 255.656 226.367 247.206ZM83.3813 239.421C80.8158 240.859 78.17 242.174 75.3796 243.107C77.7818 244.324 79.9782 245.861 82.0121 247.612C83.034 245.013 83.4166 242.198 83.3813 239.421ZM148.612 147.154C147.28 158.879 147.344 170.979 150.462 182.423C155.112 200.258 172.328 216.931 191.807 213.435C211.461 209.333 221.121 189.006 225.173 171.132C214.823 158.018 198.621 149.815 181.922 149.154C171.065 148.711 158.79 152.207 148.612 147.154Z" fill="black"/>
<path fill-rule="evenodd" clip-rule="evenodd" d="M197.768 59.7725C208.971 59.7725 222.413 65.2073 223.556 65.316L223.587 65.3176C224.188 65.3176 226.538 67.1088 230.635 70.6911L226.197 79.3535L226.556 79.6967C228.275 81.3456 229.742 82.8486 230.9 84.0334C240.357 93.7075 242.057 131.691 239.828 144.936C237.599 158.182 233.472 171.144 214.254 171.144C195.037 171.144 173.657 159.581 170.364 155.98C168.168 153.58 165.702 152.43 162.965 152.53C162.853 152.388 162.741 152.246 162.631 152.105L162.228 152.048C158.44 151.499 155.726 150.76 154.086 149.832C150.882 148.018 147.361 138.483 147.361 136.382C147.361 134.303 142.103 119.176 141.998 117.575L141.996 117.531C141.996 116.192 135.127 110.041 135.127 108.087C135.127 106.133 133.743 106.252 135.127 99.3675L135.529 97.345C137.003 90.0152 139.887 77.878 150.882 72.604C162.965 66.8084 186.452 59.7725 197.768 59.7725Z" fill="#FFDBB4"/>
<path fill-rule="evenodd" clip-rule="evenodd" d="M165.956 119.77C165.956 119.77 160.909 122.161 155.863 126.065C150.816 129.97 153.308 130.098 153.308 130.098C153.308 130.098 153.091 138.465 154.646 141.784C156.201 145.103 165.412 145.69 165.412 145.69L166.972 150.918L166.756 153.34C165.556 152.8 164.291 152.555 162.963 152.603C162.851 152.461 162.739 152.32 162.629 152.178L162.226 152.121C158.438 151.572 155.724 150.834 154.084 149.905C150.88 148.091 147.359 138.556 147.359 136.456C147.359 135.288 145.7 130.002 144.227 125.31C143.078 121.65 142.042 118.35 141.996 117.648L141.994 117.604C141.994 116.998 140.586 115.405 139.044 113.661C137.182 111.555 135.125 109.229 135.125 108.16C135.125 107.59 135.007 107.197 134.875 106.754C134.553 105.679 134.145 104.316 135.125 99.4407L135.527 97.4183C137.001 90.0884 139.885 77.9512 150.88 72.6772C162.963 66.8817 186.45 59.8457 197.766 59.8457C206.591 59.8457 216.805 63.218 221.303 64.7029C222.515 65.1031 223.311 65.3661 223.554 65.3892L223.585 65.3909C224.186 65.3909 226.536 67.182 230.633 70.7644L229.592 72.7963C216.059 73.1919 193.805 74.4 184.091 78.0892C169.647 83.5747 165.956 119.77 165.956 119.77Z" fill="white"/>
<path fill-rule="evenodd" clip-rule="evenodd" d="M149.017 72.3318C155.043 65.9311 189.255 56.0308 206.564 58.1294L207.083 58.1967C208.465 58.372 209.826 58.6374 211.169 58.998C215.512 60.0129 219.997 61.5496 223.585 64.1164C226.581 66.2163 236.03 69.6455 233.245 75.1388C234.278 77.0966 234.663 79.5155 233.966 81.4438C233.878 82.1099 233.672 82.7234 233.41 83.3594C235.616 86.6174 237.363 90.3017 238.777 93.8061C241.248 102.625 242.786 111.804 243.011 120.802C243.76 137.897 241.887 158.317 227.008 169.372C218.019 176.377 203.939 176.612 193.838 167.927C193.265 167.248 190.569 165.416 191.469 165.095C191.737 165.378 192.012 165.653 192.292 165.924C192.279 165.894 192.277 165.864 192.282 165.831L192.019 165.592C191.522 165.133 190.879 164.466 191.612 164.597C191.644 164.634 191.679 164.667 191.714 164.704C191.869 164.797 191.986 164.878 192.077 164.949L192.124 164.987L192.11 164.972C191.688 164.522 191.435 164.062 192.066 164.356L192.149 164.396C192.43 164.692 192.715 164.975 193.005 165.25C193 165.218 193.005 165.185 193.023 165.15L192.752 164.888C192.488 164.629 192.528 164.628 192.658 164.419C192.096 163.631 193.144 164.099 193.218 164.406C193.874 164.251 194.449 165.483 194.872 165.633C213.389 179.879 240.26 167.239 239.825 127.544L239.818 126.767C239.691 114.075 238.624 101.029 233.377 89.5393C232.867 88.4325 232.296 87.3558 231.668 86.3141C231.236 85.5329 230.773 84.7717 230.275 84.0305C228.881 83.9178 227.504 83.6624 226.148 83.2668C225.683 83.1491 225.222 83.0189 224.762 82.8661C218.036 83.2332 211.46 83.6326 204.715 84.0112L202.608 84.1425C196.894 84.5101 190.985 85.0988 186.374 88.6353C181.85 91.855 181.829 98.2039 177.957 101.739C172.434 105.489 172.394 108.872 171.33 114.399C171.409 118.566 174.296 124.62 168.998 126.373C169.892 127.648 168.646 127.036 168.548 126.588C168.538 126.591 168.528 126.593 168.52 126.593C169.317 128.075 168.146 127.142 168.042 126.666C167.98 126.649 167.917 126.603 167.855 126.541C168.657 127.839 167.36 126.93 167.437 126.694C165.886 124.309 162.695 123.938 160.445 124.57C160.418 124.655 160.318 124.663 160.255 124.618C150.69 126.692 153.158 146.508 162.96 144.592C163.38 144.507 163.37 144.708 163.453 144.727C163.227 144.132 163.865 144.375 163.858 144.5L163.897 144.498C163.928 144.495 163.915 144.492 163.938 144.5C163.719 143.283 164.952 145.046 164.854 145.118C164.892 145.096 164.935 145.083 164.972 145.078L164.93 144.962C164.725 144.417 164.743 144.644 164.744 144.332C164.591 143.946 164.579 144.115 164.615 143.863C165.155 143.445 165.315 144.715 165.495 144.808C165.186 144.377 165.432 144.025 165.723 144.259C167.931 148.906 170.782 153.272 174.468 156.712C174.871 157.03 175.279 157.343 175.702 157.638C177.269 159.004 179.674 159.883 181.142 161.094C181.142 161.114 181.132 161.139 181.117 161.164L181.151 161.194V161.194L181.185 161.226L181.695 161.472C181.845 161.599 181.98 161.742 182.1 161.9C182.228 162.048 182.34 162.21 182.436 162.383C182.483 162.593 182.378 162.681 182.178 162.591C182.09 162.561 182.003 162.526 181.915 162.493C181.92 162.501 181.922 162.506 181.928 162.511C181.956 162.554 182.151 163.005 181.927 162.932L181.9 162.921C181.777 162.876 181.655 162.826 181.535 162.779C181.677 162.957 181.807 163.149 181.922 163.312C182.045 163.44 182.12 163.59 182.15 163.76C182.145 163.855 182.093 163.896 181.998 163.883C181.853 163.835 181.71 163.785 181.567 163.733L181.608 163.81C181.709 164.009 181.852 164.342 181.597 164.231C181.379 164.163 181.169 164.086 180.959 164.001C180.942 164.036 180.907 164.048 180.837 164.016C180.169 163.778 179.523 163.487 178.905 163.144C178.362 162.749 177.814 162.361 177.268 161.967C176.755 161.659 176.26 161.316 175.787 160.931C172.623 158.886 169.852 156.287 167.655 153.394C163.979 156.579 156.63 153.536 152.084 151.043C148.063 148.814 146.483 144.693 146.074 140.251C145.224 134.27 140.34 132.222 140.68 119.099C140.672 119.101 140.665 119.101 140.655 119.101C140.477 119.049 140.304 118.979 140.142 118.889C139.974 118.809 139.817 118.713 139.669 118.598L139.486 118.345V118.345C139.391 118.293 139.306 118.238 139.241 118.183L139.207 118.226C139.1 118.355 139.172 118.161 139.178 118.122L138.861 117.691C138.109 116.663 137.283 115.509 136.611 114.587L136.59 114.624C136.574 114.653 136.566 114.673 136.574 114.682C134.973 112.381 133.468 109.602 133.05 106.912C132.557 104.84 132.75 102.704 133.18 100.785C135.027 94.0627 141.075 78.8514 149.017 72.3318ZM192.444 165.294L192.344 165.204L192.432 165.315C192.478 165.372 192.525 165.423 192.602 165.476C192.597 165.458 192.597 165.441 192.6 165.421C192.549 165.382 192.496 165.339 192.444 165.294ZM206.487 61.5069C194.749 60.4971 183.204 63.0847 172.003 66.217L171.231 66.4392C164.862 68.2577 158.127 69.8941 152.745 73.7865C145.226 79.55 141.342 88.7186 137.954 97.1839C134.995 103.473 136.508 110.566 140.967 114.957C141.431 110.593 142.222 106.357 143.458 102.154C143.716 101.498 143.52 101.282 144.076 101.197C144.916 112.522 140.78 120.889 148.965 134.311C152.517 140.644 148.405 145.278 158.435 148.611L158.706 148.715C160.796 149.504 163.077 150.126 165.124 149.685L164.94 149.387C164.753 149.08 164.697 148.93 164.969 148.799C164.961 148.784 164.951 148.769 164.941 148.751C164.721 148.336 164.508 147.915 164.306 147.489C164.223 147.517 164.141 147.537 164.055 147.559C164.111 147.662 164.118 147.765 163.963 147.8C163.412 147.989 162.845 148.065 162.266 148.029L162.141 148.02C161.486 147.98 161.074 147.861 160.705 147.75C160.582 147.73 160.46 147.71 160.339 147.685C159.152 147.421 157.895 146.751 157.082 146.087C147.809 140.817 148.767 122.876 160.197 121.18C160.431 109.884 165.801 90.8263 174.711 80.0623C182.766 70.1613 204.754 65.8699 220.053 67.3831C220.275 67.4569 220.498 67.5316 220.721 67.6069C223.082 67.8168 225.331 68.8689 227.693 69.3577C225.997 68.0859 224.073 67.2388 222.092 66.5189C218.144 64.1023 213.617 62.7947 209.245 61.8725C208.339 61.6497 207.42 61.527 206.487 61.5069ZM159.675 130.254C160.29 129.92 160.219 130.243 160.361 130.149C164.781 129.788 169.548 133.661 172.019 136.89C171.824 137.093 171.296 136.492 171.203 136.397C171.191 136.409 171.176 136.419 171.161 136.424L171.229 136.521C172.231 137.959 170.246 136.267 170.06 135.918C170.027 135.936 169.995 135.946 169.957 135.938C170.114 136.093 170.595 136.496 170.678 136.782L170.805 136.888C172.007 137.918 171.907 138.693 170.543 137.23C170.575 137.298 170.588 137.361 170.565 137.411L170.612 137.442C171.283 137.911 171.835 139.219 170.433 137.876C170.578 138.857 169.043 136.962 168.994 136.975C166.337 134.888 162.425 132.858 159.092 132.585L158.977 132.572C158.366 132.494 158.077 132.312 158.291 131.912C157.538 131.733 157.715 131.361 158.071 131.374C157.54 131.024 158.018 130.69 158.326 130.82C158.114 130.233 158.964 130.624 159.042 130.542C159.483 129.861 159.602 130.429 159.675 130.254ZM150.409 93.8587C152.532 93.0804 158.804 95.4102 158.302 98.4956C158.003 99.204 157.019 99.6099 156.327 99.21L155.424 98.6031C153.853 97.5499 152.435 96.6264 150.748 95.7079C149.83 95.2519 149.434 94.2839 150.409 93.8587ZM162.488 89.2735L161.668 88.7395C157.243 85.8415 150.988 81.4503 162.082 85.9935C163.346 86.5361 165.026 86.8572 165.716 88.0621C166.8 90.2829 163.948 90.4321 162.488 89.2735ZM162.986 76.2705C162.631 74.9221 167.049 76.5043 168.336 76.9215L168.532 76.9955C169.783 77.4621 171.217 77.8948 171.965 78.9753C172.842 80.4682 171.067 80.7774 169.968 80.1031C167.714 78.6292 165.243 77.5172 162.986 76.2705ZM174.221 69.9892C171.734 67.2715 178.39 69.8749 179.387 70.5976L179.415 70.6189C180.159 71.143 180.008 72.2718 179.31 72.6033C177.321 72.6412 175.858 70.9825 174.221 69.9892ZM185.538 67.0117C181.584 64.1684 186.792 65.5209 188.601 66.6351C189.834 67.7231 188.564 69.5598 185.538 67.0117Z" fill="black"/>
<path fill-rule="evenodd" clip-rule="evenodd" d="M194.99 127.42C200.098 127.42 204.239 123.786 204.239 119.304C204.239 114.821 200.098 111.188 194.99 111.188C189.882 111.188 185.741 114.821 185.741 119.304C185.741 123.786 189.882 127.42 194.99 127.42Z" fill="white"/>
<path fill-rule="evenodd" clip-rule="evenodd" d="M228.483 125.461C233.049 125.461 236.751 122.328 236.751 118.464C236.751 114.6 233.049 111.468 228.483 111.468C223.916 111.468 220.214 114.6 220.214 118.464C220.214 122.328 223.916 125.461 228.483 125.461Z" fill="white"/>
<path fill-rule="evenodd" clip-rule="evenodd" d="M198.554 146.623C199.88 143.03 207.644 139.933 212.989 139.933C218.334 139.933 226.901 143.03 226.901 143.03L224.45 149.81C224.45 149.81 202.007 148.86 200.717 148.86C199.427 148.86 197.228 150.216 198.554 146.623Z" fill="white"/>
<path fill-rule="evenodd" clip-rule="evenodd" d="M208.853 138.749C214.614 138.521 225.281 139.576 229.632 142.978C234.107 146.346 228.494 157.193 227.865 157.17C221.435 156.929 215.061 157.849 208.705 158.704L207.425 158.875C203.136 159.465 197.157 160.502 195.119 155.561C192.589 147.012 200.253 138.71 208.853 138.749ZM219.006 142.372C215.592 141.86 212.13 141.782 208.655 142.128C205.563 142.436 202.654 143.279 200.718 145.622C201.183 145.7 201.595 146.043 201.878 146.5C206.024 146.625 210.307 146.443 214.502 146.663C216.846 146.714 219.252 146.964 221.593 146.854C223.611 146.76 223.056 145.075 223.339 143.652C222.003 143.053 220.403 142.585 219.006 142.372ZM181.266 109.96C185.405 103.137 197.906 107.392 204.17 108.795C208.978 107.75 209.462 115.735 204.459 114.904C207.181 118.843 206.133 123.994 202.453 126.993C192.859 134.977 175.246 121.934 187.405 112.626C187.544 111.457 189.093 111.124 190.007 110.68L189.68 110.603C187.007 109.986 184.301 109.576 181.646 110.459C181.376 110.475 181.215 110.196 181.266 109.96ZM215.118 124.164C217.234 125.449 220.459 128.444 218.182 131.629C215.502 134.437 211.644 131.217 209.742 129.761C207.979 128.633 205.998 131.535 207.634 132.853C221.374 143.011 226.95 124.5 216.188 122.654C215.004 122.451 214.563 123.767 215.118 124.164ZM236.881 102.513C237.033 102.496 237.098 102.708 237.002 102.804C234.392 105.378 231.131 107.264 228.211 109.46C232.921 109.827 237.217 113.417 238.678 117.869C239.977 124.949 229.733 128.204 224.265 126.066C219.753 124.511 216.482 120.139 218.943 115.496C216.369 115.521 213.765 112.158 215.662 110.224C217.344 108.509 219.299 109.548 220.059 109.142L220.874 108.708C225.95 106.015 231.214 103.426 236.881 102.513ZM201.927 116.887C198.664 111.766 185.863 111.676 186.207 119.572C186.724 130.008 207.419 127.641 201.927 116.887ZM228.341 112.514C225.934 112 223.825 114.758 222.475 114.047C214.844 122.745 230.372 127.742 235.458 121.095C238.241 117.504 231.751 112.593 228.341 112.514ZM196.086 117.33C199.245 116.181 199.219 120.857 196.881 121.781C194.207 122.831 193.32 117.267 196.086 117.33ZM224.455 117.833C224.289 114.965 228.617 113.658 229.705 116.494C231.241 120.341 224.682 122.267 224.455 117.833Z" fill="#231F20"/>
<path fill-rule="evenodd" clip-rule="evenodd" d="M234.407 120.721C233.773 122.449 232.806 124.249 231.625 125.704C226.845 129.755 222.2 127.512 219.841 122.022C218.945 118.142 221.324 113.963 223.846 111.109C227.487 107.457 233.429 109.374 235.104 113.715C235.205 114.278 235.267 114.839 235.296 115.398C235.261 117.216 235.043 118.769 234.407 120.496M188.459 117.234C194.756 109.738 206.537 109.338 206.237 120.874C204.884 135.476 182.105 131.892 188.459 117.234ZM236.388 110.981C236.167 110.607 235.922 110.245 235.655 109.899C235.556 109.84 235.5 109.318 235.136 109.279C230.281 103.92 221.752 106.961 218.67 112.301C218.108 112.976 217.649 113.767 217.31 114.602C214.274 114.045 210.734 114.153 207.909 115.301C205.109 107.984 196.631 107.331 191.044 110.457C187.57 112.167 185.316 115.748 181.937 117.716C173.992 118.288 165.466 116.507 157.665 118.501C151.513 119.781 156.656 122.898 157.688 120.818C165.043 118.643 173.756 120.481 181.393 119.991C182.187 121.335 183.709 122.435 185.227 122.388C186.866 136.927 208.054 134.516 208.785 121.592C209.614 120.28 210.645 119.025 212.121 118.208C212.686 118.091 213.232 117.938 213.731 117.703C214.583 117.583 215.897 117.944 216.681 118.655C219.368 134.787 234.848 132.908 237.614 118.775C237.669 118.719 237.823 118.509 237.941 118.171C238.888 116.918 241.206 116.452 240.836 114.337C240.506 112.222 237.836 112.247 236.388 110.981Z" fill="black"/>
</svg>
