<svg width="101" height="22" viewBox="0 0 101 22" fill="none" xmlns="http://www.w3.org/2000/svg">
<path d="M23.3542 13.384L25.2902 8.072L27.3862 13.384H23.3542ZM31.3222 16.792C30.8742 16.76 30.5382 16.776 30.0102 15.496C30.0102 15.496 28.0262 10.44 26.0742 5.736H25.8982L23.2262 13.016C21.8342 16.712 21.4342 16.776 20.8262 16.792V17H24.3942V16.792C22.1702 16.856 22.8742 14.872 23.3062 13.592H27.4502L28.0102 14.984C28.3782 15.88 28.5382 16.792 27.6742 16.792V17H31.3222V16.792ZM36.5599 5.944C37.5359 5.944 38.8639 6.104 38.8639 8.456C38.8639 10.888 37.8079 11.192 36.8159 11.192H35.8559V5.944H36.5599ZM41.3439 14.136C41.3439 11.432 38.9599 11.224 37.9199 11.224C38.2399 11.224 40.5919 10.968 40.5919 8.472C40.5919 5.864 38.7039 5.736 36.4799 5.736H33.2799V5.88C33.9839 5.88 34.2079 6.632 34.2079 7.624V15.08C34.2079 16.168 33.9679 16.856 33.2799 16.856V17H36.4799C39.2479 17 41.3439 16.92 41.3439 14.136ZM39.5519 14.072C39.5519 16.824 38.0959 16.792 36.5599 16.792H35.8559V11.4H36.8159C37.9999 11.4 39.5519 11.48 39.5519 14.072ZM52.4436 11.448C52.4436 15.848 50.9876 16.936 49.0996 16.936C47.1956 16.936 45.7396 15.848 45.7396 11.448C45.7396 7.064 47.1956 5.8 49.0996 5.8C50.9876 5.8 52.4436 7.064 52.4436 11.448ZM54.2996 11.448C54.2996 8.28 52.6196 5.592 49.0996 5.592C45.5796 5.592 43.8996 8.28 43.8996 11.448C43.8996 14.632 45.5796 17.144 49.0996 17.144C52.6196 17.144 54.2996 14.632 54.2996 11.448ZM61.2481 17.144C63.2161 17.144 65.1361 16.088 65.1361 13.224V8.872C65.1361 7.368 65.0881 5.944 67.1841 5.944V5.736H63.0241V5.944C64.8961 5.944 64.9281 7.368 64.9281 8.872V13.224C64.9281 15.288 63.6641 16.424 62.0321 16.424C60.3041 16.424 59.1201 15.288 59.1201 13.304V7.352C59.1201 6.088 59.6961 5.944 60.3841 5.944V5.736H56.4001V5.944C57.1041 5.944 57.5361 6.248 57.5361 7.336V13.16C57.5361 15.768 59.1681 17.144 61.2481 17.144ZM68.8932 5.736V8.552H69.1012C69.1652 5.976 71.5492 5.944 72.0452 5.944H72.9892V15.448C72.9892 16.504 72.5092 16.792 71.8372 16.792V17H75.7412V16.792C75.0692 16.792 74.5732 16.504 74.5732 15.448V5.944H75.5172C75.7412 5.944 78.4132 5.976 78.4772 8.552H78.6852V5.736H68.8932Z" fill="#181818"/>
<path d="M23.3542 13.384L23.0723 13.2813L22.9256 13.684H23.3542V13.384ZM25.2902 8.072L25.5693 7.96189L25.2791 7.22644L25.0083 7.96927L25.2902 8.072ZM27.3862 13.384V13.684H27.8271L27.6653 13.2739L27.3862 13.384ZM31.3222 16.792H31.6222V16.5127L31.3436 16.4928L31.3222 16.792ZM30.0102 15.496L29.7309 15.6056L29.7329 15.6104L30.0102 15.496ZM26.0742 5.736L26.3513 5.62102L26.2745 5.436H26.0742V5.736ZM25.8982 5.736V5.436H25.6887L25.6166 5.63263L25.8982 5.736ZM23.2262 13.016L23.507 13.1217L23.5078 13.1194L23.2262 13.016ZM20.8262 16.792L20.8183 16.4921L20.5262 16.4998V16.792H20.8262ZM20.8262 17H20.5262V17.3H20.8262V17ZM24.3942 17V17.3H24.6942V17H24.3942ZM24.3942 16.792H24.6942V16.4832L24.3856 16.4921L24.3942 16.792ZM23.3062 13.592V13.292H23.0908L23.022 13.4961L23.3062 13.592ZM27.4502 13.592L27.7285 13.48L27.6529 13.292H27.4502V13.592ZM28.0102 14.984L27.7319 15.096L27.7327 15.098L28.0102 14.984ZM27.6742 16.792V16.492H27.3742V16.792H27.6742ZM27.6742 17H27.3742V17.3H27.6742V17ZM31.3222 17V17.3H31.6222V17H31.3222ZM23.6361 13.4867L25.5721 8.17473L25.0083 7.96927L23.0723 13.2813L23.6361 13.4867ZM25.0111 8.18211L27.1071 13.4941L27.6653 13.2739L25.5693 7.96189L25.0111 8.18211ZM27.3862 13.084H23.3542V13.684H27.3862V13.084ZM31.3436 16.4928C31.1037 16.4756 31.003 16.4704 30.8802 16.3751C30.7396 16.2658 30.5479 16.0129 30.2875 15.3816L29.7329 15.6104C30.0005 16.2591 30.2408 16.6382 30.5122 16.8489C30.8014 17.0736 31.0927 17.0764 31.3008 17.0912L31.3436 16.4928ZM30.0102 15.496C30.2895 15.3864 30.2895 15.3864 30.2894 15.3864C30.2894 15.3863 30.2894 15.3863 30.2894 15.3862C30.2893 15.386 30.2892 15.3858 30.2891 15.3855C30.2889 15.3848 30.2885 15.3839 30.288 15.3827C30.287 15.3802 30.2856 15.3766 30.2837 15.3717C30.2799 15.3619 30.2742 15.3474 30.2666 15.3283C30.2516 15.2901 30.2293 15.2334 30.2003 15.1596C30.1422 15.0121 30.057 14.7961 29.9487 14.5222C29.7321 13.9744 29.4229 13.1951 29.0528 12.2687C28.3125 10.4161 27.328 7.97472 26.3513 5.62102L25.7971 5.85098C26.7724 8.20128 27.7559 10.6399 28.4956 12.4913C28.8655 13.4169 29.1743 14.1956 29.3907 14.7428C29.4989 15.0164 29.584 15.2322 29.642 15.3795C29.671 15.4531 29.6933 15.5097 29.7082 15.5478C29.7157 15.5669 29.7214 15.5813 29.7252 15.591C29.7271 15.5959 29.7285 15.5995 29.7295 15.6019C29.73 15.6032 29.7303 15.6041 29.7306 15.6047C29.7307 15.605 29.7308 15.6052 29.7308 15.6054C29.7309 15.6054 29.7309 15.6055 29.7309 15.6055C29.7309 15.6056 29.7309 15.6056 30.0102 15.496ZM26.0742 5.436H25.8982V6.036H26.0742V5.436ZM25.6166 5.63263L22.9446 12.9126L23.5078 13.1194L26.1798 5.83937L25.6166 5.63263ZM22.9455 12.9103C22.248 14.7621 21.8124 15.6648 21.4898 16.1072C21.333 16.3223 21.2195 16.4047 21.1375 16.442C21.0537 16.4803 20.9702 16.4881 20.8183 16.4921L20.8341 17.0919C20.9862 17.0879 21.1807 17.0817 21.3864 16.988C21.5939 16.8933 21.7814 16.7257 21.9746 16.4608C22.352 15.9432 22.8124 14.9659 23.5069 13.1217L22.9455 12.9103ZM20.5262 16.792V17H21.1262V16.792H20.5262ZM20.8262 17.3H24.3942V16.7H20.8262V17.3ZM24.6942 17V16.792H24.0942V17H24.6942ZM24.3856 16.4921C23.868 16.507 23.578 16.4005 23.4155 16.2671C23.2588 16.1385 23.1735 15.9457 23.1534 15.6738C23.1329 15.3972 23.1831 15.0676 23.2721 14.7143C23.3606 14.3631 23.4813 14.0112 23.5904 13.6879L23.022 13.4961C22.9151 13.8128 22.7858 14.1889 22.6903 14.5677C22.5953 14.9444 22.5275 15.3468 22.555 15.7182C22.5829 16.0943 22.7116 16.4655 23.0349 16.7309C23.3524 16.9915 23.8084 17.109 24.4028 17.0919L24.3856 16.4921ZM23.3062 13.892H27.4502V13.292H23.3062V13.892ZM27.1719 13.704L27.7319 15.096L28.2885 14.872L27.7285 13.48L27.1719 13.704ZM27.7327 15.098C27.9148 15.5415 28.0221 15.9383 28.0048 16.2046C27.9966 16.331 27.9627 16.3919 27.9321 16.422C27.9042 16.4496 27.8383 16.492 27.6742 16.492V17.092C27.9421 17.092 28.1802 17.0204 28.3538 16.849C28.5247 16.6801 28.5898 16.457 28.6036 16.2434C28.6303 15.8297 28.4736 15.3225 28.2877 14.87L27.7327 15.098ZM27.3742 16.792V17H27.9742V16.792H27.3742ZM27.6742 17.3H31.3222V16.7H27.6742V17.3ZM31.6222 17V16.792H31.0222V17H31.6222ZM35.8559 11.192H35.5559V11.492H35.8559V11.192ZM35.8559 5.944V5.644H35.5559V5.944H35.8559ZM33.2799 5.736V5.436H32.9799V5.736H33.2799ZM33.2799 5.88H32.9799V6.18H33.2799V5.88ZM33.2799 16.856V16.556H32.9799V16.856H33.2799ZM33.2799 17H32.9799V17.3H33.2799V17ZM35.8559 16.792H35.5559V17.092H35.8559V16.792ZM35.8559 11.4V11.1H35.5559V11.4H35.8559ZM36.5599 6.244C37.0447 6.244 37.5313 6.28826 37.9002 6.55965C38.2495 6.81665 38.5639 7.33459 38.5639 8.456H39.1639C39.1639 7.22541 38.8144 6.48735 38.2557 6.07635C37.7166 5.67974 37.0512 5.644 36.5599 5.644V6.244ZM38.5639 8.456C38.5639 9.63885 38.3056 10.2244 38.002 10.5217C37.7007 10.8168 37.2903 10.892 36.8159 10.892V11.492C37.3336 11.492 37.9472 11.4152 38.4219 10.9503C38.8943 10.4876 39.1639 9.70515 39.1639 8.456H38.5639ZM36.8159 10.892H35.8559V11.492H36.8159V10.892ZM36.1559 11.192V5.944H35.5559V11.192H36.1559ZM35.8559 6.244H36.5599V5.644H35.8559V6.244ZM41.6439 14.136C41.6439 13.4148 41.4845 12.8396 41.2125 12.3859C40.9404 11.9324 40.5663 11.6179 40.1639 11.4017C39.3696 10.975 38.4507 10.924 37.9199 10.924V11.524C38.4292 11.524 39.2223 11.577 39.88 11.9303C40.2036 12.1041 40.4905 12.3486 40.6979 12.6946C40.9054 13.0404 41.0439 13.5052 41.0439 14.136H41.6439ZM37.9199 11.524C38.118 11.524 38.8433 11.4526 39.5301 11.0414C40.2382 10.6174 40.8919 9.83704 40.8919 8.472H40.292C40.292 9.60295 39.7697 10.1986 39.2218 10.5266C38.6526 10.8674 38.0419 10.924 37.9199 10.924V11.524ZM40.8919 8.472C40.8919 7.78524 40.7678 7.23382 40.5241 6.79785C40.2781 6.35784 39.9224 6.05726 39.4992 5.85526C38.6771 5.46285 37.5774 5.436 36.4799 5.436V6.036C37.6065 6.036 38.5628 6.07315 39.2407 6.39674C39.5675 6.55274 39.8228 6.77316 40.0003 7.09065C40.1801 7.41218 40.292 7.85476 40.292 8.472H40.8919ZM36.4799 5.436H33.2799V6.036H36.4799V5.436ZM32.9799 5.736V5.88H33.5799V5.736H32.9799ZM33.2799 6.18C33.3992 6.18 33.4828 6.21068 33.5472 6.25684C33.6146 6.30512 33.6792 6.3837 33.7356 6.50572C33.8519 6.75773 33.9079 7.14088 33.9079 7.624H34.5079C34.5079 7.11512 34.452 6.62627 34.2803 6.25428C34.1927 6.0643 34.0693 5.89288 33.8967 5.76915C33.7211 5.64332 33.5127 5.58 33.2799 5.58V6.18ZM33.9079 7.624V15.08H34.5079V7.624H33.9079ZM33.9079 15.08C33.9079 15.6125 33.8475 16.0014 33.7309 16.2475C33.6748 16.3658 33.6112 16.4392 33.5459 16.4838C33.4827 16.527 33.3994 16.556 33.2799 16.556V17.156C33.5045 17.156 33.7092 17.099 33.8845 16.9792C34.0577 16.8608 34.1831 16.6942 34.273 16.5045C34.4484 16.1346 34.5079 15.6355 34.5079 15.08H33.9079ZM32.9799 16.856V17H33.5799V16.856H32.9799ZM33.2799 17.3H36.4799V16.7H33.2799V17.3ZM36.4799 17.3C37.8451 17.3 39.1292 17.2849 40.0668 16.8883C40.5489 16.6844 40.9521 16.3756 41.2303 15.9125C41.5063 15.4533 41.6439 14.8681 41.6439 14.136H41.0439C41.0439 14.7959 40.9196 15.2647 40.7161 15.6035C40.5148 15.9384 40.2209 16.1716 39.8331 16.3357C39.0307 16.6751 37.8828 16.7 36.4799 16.7V17.3ZM39.2519 14.072C39.2519 15.4025 38.9016 15.9506 38.4768 16.2072C38.2502 16.3442 37.9718 16.4184 37.6416 16.4559C37.3096 16.4936 36.9494 16.492 36.5599 16.492V17.092C36.9385 17.092 37.3363 17.0944 37.7093 17.0521C38.0841 17.0096 38.4577 16.9198 38.7871 16.7208C39.4743 16.3054 39.8519 15.4935 39.8519 14.072H39.2519ZM36.5599 16.492H35.8559V17.092H36.5599V16.492ZM36.1559 16.792V11.4H35.5559V16.792H36.1559ZM35.8559 11.7H36.8159V11.1H35.8559V11.7ZM36.8159 11.7C37.4181 11.7 38.0142 11.7265 38.4659 12.0165C38.8859 12.286 39.2519 12.8365 39.2519 14.072H39.8519C39.8519 12.7155 39.442 11.93 38.79 11.5115C38.1697 11.1135 37.3978 11.1 36.8159 11.1V11.7ZM52.1436 11.448C52.1436 13.6269 51.7808 14.9205 51.2373 15.6651C50.7106 16.3866 49.9805 16.636 49.0996 16.636V17.236C50.1066 17.236 51.0485 16.9414 51.7219 16.0189C52.3784 15.1195 52.7436 13.6691 52.7436 11.448H52.1436ZM49.0996 16.636C48.2098 16.636 47.4759 16.3861 46.9476 15.6647C46.4024 14.9203 46.0396 13.6269 46.0396 11.448H45.4396C45.4396 13.6691 45.8047 15.1197 46.4635 16.0193C47.1392 16.9419 48.0853 17.236 49.0996 17.236V16.636ZM46.0396 11.448C46.0396 9.27859 46.4018 7.94073 46.9517 7.1515C47.4858 6.38491 48.2231 6.1 49.0996 6.1V5.5C48.072 5.5 47.1293 5.84709 46.4594 6.8085C45.8053 7.74727 45.4396 9.23341 45.4396 11.448H46.0396ZM49.0996 6.1C49.9672 6.1 50.7007 6.38432 51.2332 7.15112C51.7814 7.94053 52.1436 9.27867 52.1436 11.448H52.7436C52.7436 9.23333 52.3778 7.74747 51.726 6.80888C51.0585 5.84768 50.1199 5.5 49.0996 5.5V6.1ZM54.5996 11.448C54.5996 9.81501 54.167 8.27856 53.2532 7.14384C52.3326 6.0005 50.9443 5.292 49.0996 5.292V5.892C50.7749 5.892 51.9866 6.5275 52.7859 7.52015C53.5922 8.52144 53.9996 9.91299 53.9996 11.448H54.5996ZM49.0996 5.292C47.2549 5.292 45.8666 6.0005 44.9459 7.14384C44.0322 8.27856 43.5996 9.81501 43.5996 11.448H44.1996C44.1996 9.91299 44.607 8.52144 45.4132 7.52015C46.2126 6.5275 47.4243 5.892 49.0996 5.892V5.292ZM43.5996 11.448C43.5996 13.0891 44.0323 14.5883 44.9497 15.6827C45.8734 16.7848 47.2619 17.444 49.0996 17.444V16.844C47.4172 16.844 46.2057 16.2472 45.4095 15.2973C44.6068 14.3397 44.1996 12.9909 44.1996 11.448H43.5996ZM49.0996 17.444C50.9372 17.444 52.3257 16.7848 53.2495 15.6827C54.1668 14.5883 54.5996 13.0891 54.5996 11.448H53.9996C53.9996 12.9909 53.5923 14.3397 52.7897 15.2973C51.9934 16.2472 50.7819 16.844 49.0996 16.844V17.444ZM67.1841 5.944V6.244H67.4841V5.944H67.1841ZM67.1841 5.736H67.4841V5.436H67.1841V5.736ZM63.0241 5.736V5.436H62.7241V5.736H63.0241ZM63.0241 5.944H62.7241V6.244H63.0241V5.944ZM60.3841 5.944V6.244H60.6841V5.944H60.3841ZM60.3841 5.736H60.6841V5.436H60.3841V5.736ZM56.4001 5.736V5.436H56.1001V5.736H56.4001ZM56.4001 5.944H56.1001V6.244H56.4001V5.944ZM61.2481 17.444C62.2812 17.444 63.33 17.1672 64.1253 16.4858C64.9286 15.7976 65.4361 14.7283 65.4361 13.224H64.8361C64.8361 14.5837 64.3836 15.4744 63.7349 16.0302C63.0781 16.5928 62.1829 16.844 61.2481 16.844V17.444ZM65.4361 13.224V8.872H64.8361V13.224H65.4361ZM65.4361 8.872C65.4361 8.49069 65.4333 8.13432 65.4603 7.80448C65.4873 7.47503 65.5426 7.19565 65.6467 6.96927C65.7476 6.74971 65.8955 6.57666 66.1226 6.45387C66.3554 6.32794 66.6917 6.244 67.1841 6.244V5.644C66.6284 5.644 66.1848 5.73805 65.8371 5.92613C65.4836 6.11733 65.2506 6.39429 65.1015 6.71873C64.9555 7.03635 64.8918 7.39497 64.8623 7.75552C64.8328 8.11568 64.8361 8.50131 64.8361 8.872H65.4361ZM67.4841 5.944V5.736H66.8841V5.944H67.4841ZM67.1841 5.436H63.0241V6.036H67.1841V5.436ZM62.7241 5.736V5.944H63.3241V5.736H62.7241ZM63.0241 6.244C63.4553 6.244 63.7514 6.32606 63.9589 6.44842C64.1629 6.5687 64.304 6.74127 64.404 6.96593C64.6149 7.44012 64.6281 8.10169 64.6281 8.872H65.2281C65.2281 8.1383 65.2252 7.33588 64.9522 6.72206C64.8101 6.40272 64.5922 6.1253 64.2637 5.93158C63.9387 5.73994 63.5289 5.644 63.0241 5.644V6.244ZM64.6281 8.872V13.224H65.2281V8.872H64.6281ZM64.6281 13.224C64.6281 14.1939 64.3322 14.9143 63.8756 15.3903C63.4191 15.8661 62.7769 16.124 62.0321 16.124V16.724C62.9192 16.724 63.7251 16.4139 64.3086 15.8057C64.8919 15.1977 65.2281 14.3181 65.2281 13.224H64.6281ZM62.0321 16.124C61.2353 16.124 60.5905 15.8636 60.1442 15.4C59.6972 14.9355 59.4201 14.2362 59.4201 13.304H58.8201C58.8201 14.3558 59.1349 15.2165 59.7119 15.816C60.2897 16.4164 61.1008 16.724 62.0321 16.724V16.124ZM59.4201 13.304V7.352H58.8201V13.304H59.4201ZM59.4201 7.352C59.4201 6.75501 59.5573 6.5131 59.6875 6.40332C59.828 6.28478 60.044 6.244 60.3841 6.244V5.644C60.0362 5.644 59.6201 5.67522 59.3006 5.94468C58.9708 6.2229 58.8201 6.68499 58.8201 7.352H59.4201ZM60.6841 5.944V5.736H60.0841V5.944H60.6841ZM60.3841 5.436H56.4001V6.036H60.3841V5.436ZM56.1001 5.736V5.944H56.7001V5.736H56.1001ZM56.4001 6.244C56.7154 6.244 56.8981 6.31268 57.0118 6.43566C57.1319 6.56555 57.2361 6.82094 57.2361 7.336H57.8361C57.8361 6.76306 57.7243 6.32245 57.4524 6.02834C57.174 5.72732 56.7887 5.644 56.4001 5.644V6.244ZM57.2361 7.336V13.16H57.8361V7.336H57.2361ZM57.2361 13.16C57.2361 14.5281 57.6656 15.6056 58.3996 16.3418C59.1326 17.077 60.1415 17.444 61.2481 17.444V16.844C60.2746 16.844 59.4276 16.523 58.8245 15.9182C58.2225 15.3144 57.8361 14.3999 57.8361 13.16H57.2361ZM68.8932 5.736V5.436H68.5932V5.736H68.8932ZM68.8932 8.552H68.5932V8.852H68.8932V8.552ZM69.1012 8.552V8.852H69.3938L69.4011 8.55945L69.1012 8.552ZM72.9892 5.944H73.2892V5.644H72.9892V5.944ZM71.8372 16.792V16.492H71.5372V16.792H71.8372ZM71.8372 17H71.5372V17.3H71.8372V17ZM75.7412 17V17.3H76.0412V17H75.7412ZM75.7412 16.792H76.0412V16.492H75.7412V16.792ZM74.5732 5.944V5.644H74.2732V5.944H74.5732ZM78.4772 8.552L78.1773 8.55945L78.1846 8.852H78.4772V8.552ZM78.6852 8.552V8.852H78.9852V8.552H78.6852ZM78.6852 5.736H78.9852V5.436H78.6852V5.736ZM68.5932 5.736V8.552H69.1932V5.736H68.5932ZM68.8932 8.852H69.1012V8.252H68.8932V8.852ZM69.4011 8.55945C69.4159 7.96329 69.5639 7.53462 69.7691 7.22261C69.9748 6.90989 70.2496 6.69688 70.5444 6.55081C71.1436 6.25389 71.8027 6.244 72.0452 6.244V5.644C71.7917 5.644 71.0108 5.65011 70.278 6.01319C69.9068 6.19712 69.5426 6.47511 69.2678 6.89289C68.9925 7.31138 68.8185 7.85271 68.8013 8.54455L69.4011 8.55945ZM72.0452 6.244H72.9892V5.644H72.0452V6.244ZM72.6892 5.944V15.448H73.2892V5.944H72.6892ZM72.6892 15.448C72.6892 15.9377 72.5771 16.1798 72.4531 16.3039C72.33 16.427 72.137 16.492 71.8372 16.492V17.092C72.2094 17.092 72.5924 17.013 72.8773 16.7281C73.1613 16.4442 73.2892 16.0143 73.2892 15.448H72.6892ZM71.5372 16.792V17H72.1372V16.792H71.5372ZM71.8372 17.3H75.7412V16.7H71.8372V17.3ZM76.0412 17V16.792H75.4412V17H76.0412ZM75.7412 16.492C75.4414 16.492 75.2428 16.4269 75.1153 16.3018C74.9881 16.1771 74.8732 15.9352 74.8732 15.448H74.2732C74.2732 16.0168 74.4063 16.4469 74.6951 16.7302C74.9836 17.0131 75.369 17.092 75.7412 17.092V16.492ZM74.8732 15.448V5.944H74.2732V15.448H74.8732ZM74.5732 6.244H75.5172V5.644H74.5732V6.244ZM75.5172 6.244C75.617 6.244 76.287 6.25227 76.9299 6.55364C77.2475 6.70251 77.5494 6.91876 77.7757 7.23305C78.0003 7.54496 78.1627 7.97022 78.1773 8.55945L78.7771 8.54455C78.7597 7.84578 78.5641 7.30104 78.2627 6.88245C77.963 6.46624 77.5709 6.19149 77.1845 6.01036C76.4194 5.65173 75.6414 5.644 75.5172 5.644V6.244ZM78.4772 8.852H78.6852V8.252H78.4772V8.852ZM78.9852 8.552V5.736H78.3852V8.552H78.9852ZM78.6852 5.436H68.8932V6.036H78.6852V5.436Z" fill="black"/>
<ellipse cx="6.85152" cy="11" rx="6.85152" ry="7" fill="#181818"/>
<path d="M96.1045 6.1875V16.2708M96.1045 16.2708H86.6837M96.1045 16.2708L84.8892 4.8125" stroke="#1A1A1A" stroke-width="2"/>
</svg>
