<svg width="103" height="22" viewBox="0 0 103 22" fill="none" xmlns="http://www.w3.org/2000/svg">
<path d="M23.8 13.384L25.736 8.072L27.832 13.384H23.8ZM31.768 16.792C31.32 16.76 30.984 16.776 30.456 15.496C30.456 15.496 28.472 10.44 26.52 5.736H26.344L23.672 13.016C22.28 16.712 21.88 16.776 21.272 16.792V17H24.84V16.792C22.616 16.856 23.32 14.872 23.752 13.592H27.896L28.456 14.984C28.824 15.88 28.984 16.792 28.12 16.792V17H31.768V16.792ZM37.0058 5.944C37.9818 5.944 39.3098 6.104 39.3098 8.456C39.3098 10.888 38.2538 11.192 37.2618 11.192H36.3018V5.944H37.0058ZM41.7898 14.136C41.7898 11.432 39.4058 11.224 38.3658 11.224C38.6858 11.224 41.0378 10.968 41.0378 8.472C41.0378 5.864 39.1498 5.736 36.9258 5.736H33.7257V5.88C34.4297 5.88 34.6538 6.632 34.6538 7.624V15.08C34.6538 16.168 34.4138 16.856 33.7257 16.856V17H36.9258C39.6938 17 41.7898 16.92 41.7898 14.136ZM39.9978 14.072C39.9978 16.824 38.5418 16.792 37.0058 16.792H36.3018V11.4H37.2618C38.4458 11.4 39.9978 11.48 39.9978 14.072ZM52.8894 11.448C52.8894 15.848 51.4334 16.936 49.5454 16.936C47.6414 16.936 46.1854 15.848 46.1854 11.448C46.1854 7.064 47.6414 5.8 49.5454 5.8C51.4334 5.8 52.8894 7.064 52.8894 11.448ZM54.7454 11.448C54.7454 8.28 53.0654 5.592 49.5454 5.592C46.0254 5.592 44.3454 8.28 44.3454 11.448C44.3454 14.632 46.0254 17.144 49.5454 17.144C53.0654 17.144 54.7454 14.632 54.7454 11.448ZM61.6939 17.144C63.6619 17.144 65.5819 16.088 65.5819 13.224V8.872C65.5819 7.368 65.5339 5.944 67.6299 5.944V5.736H63.4699V5.944C65.3419 5.944 65.3739 7.368 65.3739 8.872V13.224C65.3739 15.288 64.1099 16.424 62.4779 16.424C60.7499 16.424 59.5659 15.288 59.5659 13.304V7.352C59.5659 6.088 60.1419 5.944 60.8299 5.944V5.736H56.8459V5.944C57.5499 5.944 57.9819 6.248 57.9819 7.336V13.16C57.9819 15.768 59.6139 17.144 61.6939 17.144ZM69.339 5.736V8.552H69.547C69.611 5.976 71.995 5.944 72.491 5.944H73.435V15.448C73.435 16.504 72.955 16.792 72.283 16.792V17H76.187V16.792C75.515 16.792 75.019 16.504 75.019 15.448V5.944H75.963C76.187 5.944 78.859 5.976 78.923 8.552H79.131V5.736H69.339Z" fill="#181818"/>
<path d="M23.8 13.384L23.5181 13.2813L23.3714 13.684H23.8V13.384ZM25.736 8.072L26.0151 7.96189L25.7249 7.22644L25.4541 7.96927L25.736 8.072ZM27.832 13.384V13.684H28.2729L28.1111 13.2739L27.832 13.384ZM31.768 16.792H32.068V16.5127L31.7894 16.4928L31.768 16.792ZM30.456 15.496L30.1767 15.6056L30.1787 15.6104L30.456 15.496ZM26.52 5.736L26.7971 5.62102L26.7203 5.436H26.52V5.736ZM26.344 5.736V5.436H26.1345L26.0624 5.63263L26.344 5.736ZM23.672 13.016L23.9528 13.1217L23.9536 13.1194L23.672 13.016ZM21.272 16.792L21.2641 16.4921L20.972 16.4998V16.792H21.272ZM21.272 17H20.972V17.3H21.272V17ZM24.84 17V17.3H25.14V17H24.84ZM24.84 16.792H25.14V16.4832L24.8314 16.4921L24.84 16.792ZM23.752 13.592V13.292H23.5366L23.4678 13.4961L23.752 13.592ZM27.896 13.592L28.1743 13.48L28.0987 13.292H27.896V13.592ZM28.456 14.984L28.1777 15.096L28.1785 15.098L28.456 14.984ZM28.12 16.792V16.492H27.82V16.792H28.12ZM28.12 17H27.82V17.3H28.12V17ZM31.768 17V17.3H32.068V17H31.768ZM24.0819 13.4867L26.0179 8.17473L25.4541 7.96927L23.5181 13.2813L24.0819 13.4867ZM25.4569 8.18211L27.5529 13.4941L28.1111 13.2739L26.0151 7.96189L25.4569 8.18211ZM27.832 13.084H23.8V13.684H27.832V13.084ZM31.7894 16.4928C31.5495 16.4756 31.4488 16.4704 31.326 16.3751C31.1854 16.2658 30.9937 16.0129 30.7333 15.3816L30.1787 15.6104C30.4463 16.2591 30.6866 16.6382 30.958 16.8489C31.2472 17.0736 31.5385 17.0764 31.7466 17.0912L31.7894 16.4928ZM30.456 15.496C30.7353 15.3864 30.7353 15.3864 30.7352 15.3864C30.7352 15.3863 30.7352 15.3863 30.7352 15.3862C30.7351 15.386 30.735 15.3858 30.7349 15.3855C30.7347 15.3848 30.7343 15.3839 30.7338 15.3827C30.7328 15.3802 30.7314 15.3766 30.7295 15.3717C30.7257 15.3619 30.72 15.3474 30.7124 15.3283C30.6974 15.2901 30.6751 15.2334 30.6461 15.1596C30.588 15.0121 30.5028 14.7961 30.3945 14.5222C30.1779 13.9744 29.8687 13.1951 29.4986 12.2687C28.7583 10.4161 27.7738 7.97472 26.7971 5.62102L26.2429 5.85098C27.2182 8.20128 28.2017 10.6399 28.9414 12.4913C29.3113 13.4169 29.6201 14.1956 29.8365 14.7428C29.9447 15.0164 30.0298 15.2322 30.0878 15.3795C30.1168 15.4531 30.1391 15.5097 30.154 15.5478C30.1615 15.5669 30.1672 15.5813 30.171 15.591C30.1729 15.5959 30.1743 15.5995 30.1753 15.6019C30.1758 15.6032 30.1761 15.6041 30.1764 15.6047C30.1765 15.605 30.1766 15.6052 30.1766 15.6054C30.1767 15.6054 30.1767 15.6055 30.1767 15.6055C30.1767 15.6056 30.1767 15.6056 30.456 15.496ZM26.52 5.436H26.344V6.036H26.52V5.436ZM26.0624 5.63263L23.3904 12.9126L23.9536 13.1194L26.6256 5.83937L26.0624 5.63263ZM23.3913 12.9103C22.6938 14.7621 22.2582 15.6648 21.9356 16.1072C21.7788 16.3223 21.6653 16.4047 21.5833 16.442C21.4995 16.4803 21.416 16.4881 21.2641 16.4921L21.2799 17.0919C21.432 17.0879 21.6265 17.0817 21.8322 16.988C22.0397 16.8933 22.2272 16.7257 22.4204 16.4608C22.7978 15.9432 23.2582 14.9659 23.9527 13.1217L23.3913 12.9103ZM20.972 16.792V17H21.572V16.792H20.972ZM21.272 17.3H24.84V16.7H21.272V17.3ZM25.14 17V16.792H24.54V17H25.14ZM24.8314 16.4921C24.3138 16.507 24.0238 16.4005 23.8613 16.2671C23.7046 16.1385 23.6193 15.9457 23.5992 15.6738C23.5787 15.3972 23.6289 15.0676 23.7179 14.7143C23.8064 14.3631 23.9271 14.0112 24.0362 13.6879L23.4678 13.4961C23.3609 13.8128 23.2316 14.1889 23.1361 14.5677C23.0411 14.9444 22.9733 15.3468 23.0008 15.7182C23.0287 16.0943 23.1574 16.4655 23.4807 16.7309C23.7982 16.9915 24.2542 17.109 24.8486 17.0919L24.8314 16.4921ZM23.752 13.892H27.896V13.292H23.752V13.892ZM27.6177 13.704L28.1777 15.096L28.7343 14.872L28.1743 13.48L27.6177 13.704ZM28.1785 15.098C28.3606 15.5415 28.4679 15.9383 28.4506 16.2046C28.4424 16.331 28.4085 16.3919 28.3779 16.422C28.35 16.4496 28.2841 16.492 28.12 16.492V17.092C28.3879 17.092 28.626 17.0204 28.7996 16.849C28.9705 16.6801 29.0356 16.457 29.0494 16.2434C29.0761 15.8297 28.9194 15.3225 28.7335 14.87L28.1785 15.098ZM27.82 16.792V17H28.42V16.792H27.82ZM28.12 17.3H31.768V16.7H28.12V17.3ZM32.068 17V16.792H31.468V17H32.068ZM36.3018 11.192H36.0017V11.492H36.3018V11.192ZM36.3018 5.944V5.644H36.0017V5.944H36.3018ZM33.7257 5.736V5.436H33.4257V5.736H33.7257ZM33.7257 5.88H33.4257V6.18H33.7257V5.88ZM33.7257 16.856V16.556H33.4257V16.856H33.7257ZM33.7257 17H33.4257V17.3H33.7257V17ZM36.3018 16.792H36.0017V17.092H36.3018V16.792ZM36.3018 11.4V11.1H36.0017V11.4H36.3018ZM37.0058 6.244C37.4905 6.244 37.9771 6.28826 38.346 6.55965C38.6953 6.81665 39.0098 7.33459 39.0098 8.456H39.6098C39.6098 7.22541 39.2602 6.48735 38.7015 6.07635C38.1624 5.67974 37.497 5.644 37.0058 5.644V6.244ZM39.0098 8.456C39.0098 9.63885 38.7514 10.2244 38.4478 10.5217C38.1465 10.8168 37.7361 10.892 37.2617 10.892V11.492C37.7794 11.492 38.393 11.4152 38.8677 10.9503C39.3401 10.4876 39.6098 9.70515 39.6098 8.456H39.0098ZM37.2617 10.892H36.3018V11.492H37.2617V10.892ZM36.6018 11.192V5.944H36.0017V11.192H36.6018ZM36.3018 6.244H37.0058V5.644H36.3018V6.244ZM42.0898 14.136C42.0898 13.4148 41.9303 12.8396 41.6583 12.3859C41.3862 11.9324 41.0121 11.6179 40.6097 11.4017C39.8154 10.975 38.8965 10.924 38.3657 10.924V11.524C38.875 11.524 39.6681 11.577 40.3258 11.9303C40.6494 12.1041 40.9363 12.3486 41.1437 12.6946C41.3512 13.0404 41.4897 13.5052 41.4897 14.136H42.0898ZM38.3657 11.524C38.5638 11.524 39.2891 11.4526 39.9759 11.0414C40.684 10.6174 41.3377 9.83704 41.3377 8.472H40.7378C40.7378 9.60295 40.2155 10.1986 39.6676 10.5266C39.0984 10.8674 38.4877 10.924 38.3657 10.924V11.524ZM41.3377 8.472C41.3377 7.78524 41.2136 7.23382 40.9699 6.79785C40.7239 6.35784 40.3682 6.05726 39.945 5.85526C39.1229 5.46285 38.0232 5.436 36.9258 5.436V6.036C38.0523 6.036 39.0086 6.07315 39.6865 6.39674C40.0133 6.55274 40.2686 6.77316 40.4461 7.09065C40.6259 7.41218 40.7378 7.85476 40.7378 8.472H41.3377ZM36.9258 5.436H33.7257V6.036H36.9258V5.436ZM33.4257 5.736V5.88H34.0258V5.736H33.4257ZM33.7257 6.18C33.845 6.18 33.9286 6.21068 33.993 6.25684C34.0604 6.30512 34.125 6.3837 34.1814 6.50572C34.2977 6.75773 34.3538 7.14088 34.3538 7.624H34.9537C34.9537 7.11512 34.8978 6.62627 34.7261 6.25428C34.6385 6.0643 34.5151 5.89288 34.3425 5.76915C34.1669 5.64332 33.9585 5.58 33.7257 5.58V6.18ZM34.3538 7.624V15.08H34.9537V7.624H34.3538ZM34.3538 15.08C34.3538 15.6125 34.2933 16.0014 34.1767 16.2475C34.1206 16.3658 34.057 16.4392 33.9917 16.4838C33.9285 16.527 33.8452 16.556 33.7257 16.556V17.156C33.9503 17.156 34.155 17.099 34.3303 16.9792C34.5035 16.8608 34.6289 16.6942 34.7188 16.5045C34.8942 16.1346 34.9537 15.6355 34.9537 15.08H34.3538ZM33.4257 16.856V17H34.0258V16.856H33.4257ZM33.7257 17.3H36.9258V16.7H33.7257V17.3ZM36.9258 17.3C38.2909 17.3 39.575 17.2849 40.5126 16.8883C40.9947 16.6844 41.3979 16.3756 41.6761 15.9125C41.9521 15.4533 42.0898 14.8681 42.0898 14.136H41.4897C41.4897 14.7959 41.3654 15.2647 41.1619 15.6035C40.9606 15.9384 40.6667 16.1716 40.2789 16.3357C39.4765 16.6751 38.3286 16.7 36.9258 16.7V17.3ZM39.6978 14.072C39.6978 15.4025 39.3474 15.9506 38.9226 16.2072C38.696 16.3442 38.4176 16.4184 38.0874 16.4559C37.7554 16.4936 37.3952 16.492 37.0058 16.492V17.092C37.3843 17.092 37.7821 17.0944 38.1551 17.0521C38.5299 17.0096 38.9035 16.9198 39.2329 16.7208C39.9201 16.3054 40.2978 15.4935 40.2978 14.072H39.6978ZM37.0058 16.492H36.3018V17.092H37.0058V16.492ZM36.6018 16.792V11.4H36.0017V16.792H36.6018ZM36.3018 11.7H37.2617V11.1H36.3018V11.7ZM37.2617 11.7C37.8639 11.7 38.46 11.7265 38.9117 12.0165C39.3317 12.286 39.6978 12.8365 39.6978 14.072H40.2978C40.2978 12.7155 39.8878 11.93 39.2358 11.5115C38.6155 11.1135 37.8436 11.1 37.2617 11.1V11.7ZM52.5894 11.448C52.5894 13.6269 52.2266 14.9205 51.6831 15.6651C51.1564 16.3866 50.4263 16.636 49.5454 16.636V17.236C50.5524 17.236 51.4943 16.9414 52.1677 16.0189C52.8242 15.1195 53.1894 13.6691 53.1894 11.448H52.5894ZM49.5454 16.636C48.6556 16.636 47.9217 16.3861 47.3934 15.6647C46.8482 14.9203 46.4854 13.6269 46.4854 11.448H45.8854C45.8854 13.6691 46.2505 15.1197 46.9093 16.0193C47.585 16.9419 48.5311 17.236 49.5454 17.236V16.636ZM46.4854 11.448C46.4854 9.27859 46.8476 7.94073 47.3975 7.1515C47.9317 6.38491 48.6689 6.1 49.5454 6.1V5.5C48.5178 5.5 47.5751 5.84709 46.9052 6.8085C46.2511 7.74727 45.8854 9.23341 45.8854 11.448H46.4854ZM49.5454 6.1C50.413 6.1 51.1465 6.38432 51.679 7.15112C52.2272 7.94053 52.5894 9.27867 52.5894 11.448H53.1894C53.1894 9.23333 52.8236 7.74747 52.1718 6.80888C51.5043 5.84768 50.5657 5.5 49.5454 5.5V6.1ZM55.0454 11.448C55.0454 9.81501 54.6128 8.27856 53.699 7.14384C52.7784 6.0005 51.3901 5.292 49.5454 5.292V5.892C51.2207 5.892 52.4324 6.5275 53.2317 7.52015C54.038 8.52144 54.4454 9.91299 54.4454 11.448H55.0454ZM49.5454 5.292C47.7007 5.292 46.3124 6.0005 45.3917 7.14384C44.478 8.27856 44.0454 9.81501 44.0454 11.448H44.6454C44.6454 9.91299 45.0528 8.52144 45.859 7.52015C46.6584 6.5275 47.8701 5.892 49.5454 5.892V5.292ZM44.0454 11.448C44.0454 13.0891 44.4781 14.5883 45.3955 15.6827C46.3192 16.7848 47.7077 17.444 49.5454 17.444V16.844C47.863 16.844 46.6515 16.2472 45.8553 15.2973C45.0526 14.3397 44.6454 12.9909 44.6454 11.448H44.0454ZM49.5454 17.444C51.383 17.444 52.7715 16.7848 53.6953 15.6827C54.6126 14.5883 55.0454 13.0891 55.0454 11.448H54.4454C54.4454 12.9909 54.0381 14.3397 53.2355 15.2973C52.4392 16.2472 51.2277 16.844 49.5454 16.844V17.444ZM67.6299 5.944V6.244H67.9299V5.944H67.6299ZM67.6299 5.736H67.9299V5.436H67.6299V5.736ZM63.4699 5.736V5.436H63.1699V5.736H63.4699ZM63.4699 5.944H63.1699V6.244H63.4699V5.944ZM60.8299 5.944V6.244H61.1299V5.944H60.8299ZM60.8299 5.736H61.1299V5.436H60.8299V5.736ZM56.8459 5.736V5.436H56.5459V5.736H56.8459ZM56.8459 5.944H56.5459V6.244H56.8459V5.944ZM61.6939 17.444C62.7271 17.444 63.7758 17.1672 64.5711 16.4858C65.3744 15.7976 65.8819 14.7283 65.8819 13.224H65.2819C65.2819 14.5837 64.8294 15.4744 64.1807 16.0302C63.5239 16.5928 62.6287 16.844 61.6939 16.844V17.444ZM65.8819 13.224V8.872H65.2819V13.224H65.8819ZM65.8819 8.872C65.8819 8.49069 65.8791 8.13432 65.9061 7.80448C65.9331 7.47503 65.9884 7.19565 66.0925 6.96927C66.1934 6.74971 66.3413 6.57666 66.5684 6.45387C66.8012 6.32794 67.1375 6.244 67.6299 6.244V5.644C67.0742 5.644 66.6306 5.73805 66.2829 5.92613C65.9294 6.11733 65.6964 6.39429 65.5473 6.71873C65.4013 7.03635 65.3376 7.39497 65.3081 7.75552C65.2786 8.11568 65.2819 8.50131 65.2819 8.872H65.8819ZM67.9299 5.944V5.736H67.3299V5.944H67.9299ZM67.6299 5.436H63.4699V6.036H67.6299V5.436ZM63.1699 5.736V5.944H63.7699V5.736H63.1699ZM63.4699 6.244C63.9011 6.244 64.1972 6.32606 64.4047 6.44842C64.6087 6.5687 64.7498 6.74127 64.8498 6.96593C65.0607 7.44012 65.0739 8.10169 65.0739 8.872H65.6739C65.6739 8.1383 65.671 7.33588 65.398 6.72206C65.2559 6.40272 65.038 6.1253 64.7095 5.93158C64.3845 5.73994 63.9747 5.644 63.4699 5.644V6.244ZM65.0739 8.872V13.224H65.6739V8.872H65.0739ZM65.0739 13.224C65.0739 14.1939 64.778 14.9143 64.3214 15.3903C63.8649 15.8661 63.2227 16.124 62.4779 16.124V16.724C63.365 16.724 64.1709 16.4139 64.7544 15.8057C65.3377 15.1977 65.6739 14.3181 65.6739 13.224H65.0739ZM62.4779 16.124C61.6811 16.124 61.0363 15.8636 60.59 15.4C60.143 14.9355 59.8659 14.2362 59.8659 13.304H59.2659C59.2659 14.3558 59.5807 15.2165 60.1577 15.816C60.7355 16.4164 61.5466 16.724 62.4779 16.724V16.124ZM59.8659 13.304V7.352H59.2659V13.304H59.8659ZM59.8659 7.352C59.8659 6.75501 60.0031 6.5131 60.1333 6.40332C60.2738 6.28478 60.4898 6.244 60.8299 6.244V5.644C60.482 5.644 60.0659 5.67522 59.7464 5.94468C59.4166 6.2229 59.2659 6.68499 59.2659 7.352H59.8659ZM61.1299 5.944V5.736H60.5299V5.944H61.1299ZM60.8299 5.436H56.8459V6.036H60.8299V5.436ZM56.5459 5.736V5.944H57.1459V5.736H56.5459ZM56.8459 6.244C57.1612 6.244 57.3439 6.31268 57.4576 6.43566C57.5777 6.56555 57.6819 6.82094 57.6819 7.336H58.2819C58.2819 6.76306 58.1701 6.32245 57.8982 6.02834C57.6199 5.72732 57.2345 5.644 56.8459 5.644V6.244ZM57.6819 7.336V13.16H58.2819V7.336H57.6819ZM57.6819 13.16C57.6819 14.5281 58.1114 15.6056 58.8454 16.3418C59.5784 17.077 60.5873 17.444 61.6939 17.444V16.844C60.7204 16.844 59.8734 16.523 59.2703 15.9182C58.6683 15.3144 58.2819 14.3999 58.2819 13.16H57.6819ZM69.339 5.736V5.436H69.039V5.736H69.339ZM69.339 8.552H69.039V8.852H69.339V8.552ZM69.547 8.552V8.852H69.8396L69.8469 8.55945L69.547 8.552ZM73.435 5.944H73.735V5.644H73.435V5.944ZM72.283 16.792V16.492H71.983V16.792H72.283ZM72.283 17H71.983V17.3H72.283V17ZM76.187 17V17.3H76.487V17H76.187ZM76.187 16.792H76.487V16.492H76.187V16.792ZM75.019 5.944V5.644H74.719V5.944H75.019ZM78.923 8.552L78.6231 8.55945L78.6304 8.852H78.923V8.552ZM79.131 8.552V8.852H79.431V8.552H79.131ZM79.131 5.736H79.431V5.436H79.131V5.736ZM69.039 5.736V8.552H69.639V5.736H69.039ZM69.339 8.852H69.547V8.252H69.339V8.852ZM69.8469 8.55945C69.8617 7.96329 70.0097 7.53462 70.2149 7.22261C70.4206 6.90989 70.6954 6.69688 70.9902 6.55081C71.5894 6.25389 72.2485 6.244 72.491 6.244V5.644C72.2375 5.644 71.4566 5.65011 70.7238 6.01319C70.3526 6.19712 69.9884 6.47511 69.7136 6.89289C69.4383 7.31138 69.2643 7.85271 69.2471 8.54455L69.8469 8.55945ZM72.491 6.244H73.435V5.644H72.491V6.244ZM73.135 5.944V15.448H73.735V5.944H73.135ZM73.135 15.448C73.135 15.9377 73.0229 16.1798 72.8989 16.3039C72.7758 16.427 72.5828 16.492 72.283 16.492V17.092C72.6552 17.092 73.0382 17.013 73.3231 16.7281C73.6071 16.4442 73.735 16.0143 73.735 15.448H73.135ZM71.983 16.792V17H72.583V16.792H71.983ZM72.283 17.3H76.187V16.7H72.283V17.3ZM76.487 17V16.792H75.887V17H76.487ZM76.187 16.492C75.8872 16.492 75.6886 16.4269 75.5611 16.3018C75.4339 16.1771 75.319 15.9352 75.319 15.448H74.719C74.719 16.0168 74.8521 16.4469 75.1409 16.7302C75.4294 17.0131 75.8148 17.092 76.187 17.092V16.492ZM75.319 15.448V5.944H74.719V15.448H75.319ZM75.019 6.244H75.963V5.644H75.019V6.244ZM75.963 6.244C76.0628 6.244 76.7328 6.25227 77.3757 6.55364C77.6933 6.70251 77.9952 6.91876 78.2215 7.23305C78.4461 7.54496 78.6085 7.97022 78.6231 8.55945L79.2229 8.54455C79.2055 7.84578 79.0099 7.30104 78.7085 6.88245C78.4088 6.46624 78.0167 6.19149 77.6303 6.01036C76.8652 5.65173 76.0872 5.644 75.963 5.644V6.244ZM78.923 8.852H79.131V8.252H78.923V8.852ZM79.431 8.552V5.736H78.831V8.552H79.431ZM79.131 5.436H69.339V6.036H79.131V5.436Z" fill="black"/>
<circle cx="5" cy="12" r="5" fill="#181818"/>
<path d="M98.1875 15.8125V5.72917M98.1875 5.72917H88.5625M98.1875 5.72917L86.7292 17.1875" stroke="#1A1A1A" stroke-width="2"/>
</svg>
