<svg width="218" height="95" viewBox="0 0 218 95" fill="none" xmlns="http://www.w3.org/2000/svg">
<path d="M0.323 2.032V5.024H0.544C0.612 2.287 3.145 2.253 3.672 2.253H4.675V12.351C4.675 13.473 4.165 13.779 3.451 13.779V14H7.599V13.779C6.885 13.779 6.358 13.473 6.358 12.351V2.253H7.361C7.599 2.253 10.438 2.287 10.506 5.024H10.727V2.032H0.323ZM20.192 13.796C19.597 13.643 19.495 13.354 19.495 12.419V8.73C19.495 6.69 18.543 5.993 17.149 5.993C16.044 5.993 14.769 6.945 14.514 7.914V1.454L12.168 1.964V2.185C12.865 2.304 13.018 2.508 13.018 3.103V12.419C13.018 13.286 12.984 13.592 12.338 13.779V14H15.211V13.779C14.599 13.626 14.514 13.354 14.514 12.419V8.22C14.786 7.642 15.415 6.86 16.265 6.86C17.455 6.86 18.033 7.574 18.033 8.798V12.419C18.033 13.286 17.999 13.609 17.353 13.796V14H20.192V13.796ZM26.6662 9.801C26.6662 9.801 26.6662 12.317 26.6662 12.334C26.4962 12.742 26.0712 13.388 25.1702 13.388C24.1332 13.388 23.8272 12.538 23.8272 12.045C23.8272 11.025 24.6942 10.277 26.6662 9.801ZM28.9612 13.354C28.1792 13.354 28.1962 12.283 28.1962 12.283V9.393C28.1962 7.37 27.6862 5.993 25.8332 5.993C25.8332 5.993 25.0002 5.942 24.2692 6.316C23.3512 6.809 23.0622 7.319 22.9432 7.574C22.8072 7.812 22.8412 8.152 23.0282 8.407C23.2832 8.764 23.7762 8.832 24.1162 8.56C24.4732 8.305 24.5412 7.795 24.2862 7.455C24.1502 7.268 23.9632 7.183 23.7592 7.149C23.6572 7.132 23.7592 6.809 24.4222 6.486C25.7822 5.857 26.6662 6.843 26.6662 8.594V9.58C23.7592 10.328 22.3142 10.702 22.3142 12.402C22.3142 14.153 24.2522 14.153 24.2522 14.153C25.4422 14.153 26.4282 13.541 26.6662 12.725C26.7682 14.187 28.1112 14.153 28.1112 14.153C28.9952 14.153 29.5732 13.507 29.6752 12.997L29.4712 12.912C29.3522 13.354 28.9612 13.354 28.9612 13.354ZM34.3902 13.779C33.7952 13.626 33.7102 13.371 33.7102 12.436V1.454L31.3642 1.913V2.134C32.0612 2.27 32.2142 2.508 32.2142 3.103V12.436C32.2142 13.303 32.1802 13.592 31.5342 13.779V14H34.3902V13.779ZM38.2062 9.699C38.2062 7.557 39.2942 6.214 40.2632 6.214C41.0792 6.214 42.1842 7.217 42.1842 9.699H38.2062ZM43.1702 11.909C42.8642 12.742 41.6572 13.371 40.6372 13.269C39.2942 13.133 38.2742 12.215 38.2062 9.92H43.6462C43.6462 7.251 42.2862 5.993 40.3142 5.993C38.2062 5.993 36.6082 7.625 36.6082 10.141C36.6082 12.385 38.1212 14.153 40.2462 14.153C42.2522 14.153 43.1872 12.793 43.3742 11.994L43.1702 11.909ZM51.4018 13.32C52.2178 12.147 51.7248 10.77 50.1948 9.818L48.4778 8.747C46.9988 7.812 47.1178 6.214 48.7328 6.214C50.7048 6.214 51.1808 7.608 51.2998 8.611H51.5038V6.537C51.5038 6.537 50.6878 5.993 48.7328 5.993C46.9988 5.993 46.4888 6.962 46.4888 6.962C45.8088 8.135 46.1828 9.155 47.8148 10.243L49.5318 11.28C50.8238 12.13 51.0448 13.932 49.2428 13.932C47.0328 13.932 46.6078 12.283 46.4888 11.161H46.2678V13.473C46.2678 13.473 47.1858 14.153 49.2428 14.153C50.8238 14.153 51.4018 13.32 51.4018 13.32ZM68.1466 10.311C67.8576 13.779 64.9676 13.796 63.1486 13.779H62.5366V3.766C62.5366 2.542 63.0636 2.253 63.7946 2.253V2.032H59.7486V2.253C60.4796 2.253 60.8196 2.644 60.8196 3.681V11.977C60.8196 13.133 60.6156 13.779 59.8846 13.779V14H68.3676V10.311H68.1466ZM72.4026 4.582C72.8786 4.582 73.2696 4.191 73.2696 3.715C73.2696 3.222 72.8786 2.848 72.4026 2.848C71.9096 2.848 71.5356 3.222 71.5356 3.715C71.5356 4.191 71.9096 4.582 72.4026 4.582ZM74.0006 13.779C73.3886 13.626 73.3036 13.371 73.3036 12.419V5.993L70.9746 6.486V6.69C71.6886 6.877 71.8246 7.115 71.8246 7.71V12.419C71.8246 13.286 71.7906 13.592 71.1446 13.779V14H74.0006V13.779ZM83.9136 13.796C83.3186 13.643 83.2166 13.354 83.2166 12.419V8.713C83.2166 6.656 82.2476 5.993 80.8706 5.993C79.7996 5.993 78.6266 6.792 78.2696 7.778V5.993L75.9236 6.486V6.69C76.6376 6.877 76.7736 7.098 76.7736 7.693V12.436C76.7736 13.303 76.7566 13.592 76.1106 13.779V14H78.9666V13.779C78.3546 13.626 78.2696 13.371 78.2696 12.436V8.305C78.4056 7.693 79.1196 6.843 80.0036 6.843C81.1256 6.843 81.7376 7.608 81.7376 8.764V12.419C81.7376 13.286 81.7036 13.609 81.0576 13.796V14H83.9136V13.796ZM92.1732 11.654C92.1732 12.844 91.3232 13.66 90.2012 13.66C88.7222 13.66 87.8552 12.436 87.8552 9.733C87.8552 7.013 88.9942 6.214 90.1162 6.214C91.1532 6.214 92.1732 7.03 92.1732 8.679V11.654ZM94.5022 13.609C93.8222 13.609 93.6352 13.507 93.6352 12.674V1.454L91.3062 1.913V2.134C92.0032 2.27 92.1732 2.491 92.1732 3.086V6.622C91.6122 6.231 90.9152 5.993 90.0822 5.993C87.8042 5.993 86.0872 7.336 86.0872 9.971C86.0872 12.351 87.3962 14.153 89.6742 14.153C90.5072 14.153 91.6462 13.762 92.1732 12.895V13.83C92.1732 13.83 92.1732 14.221 92.6492 14.136L94.5022 13.83V13.609ZM102.729 10.379C102.729 13.082 101.624 13.932 100.485 13.932C99.3459 13.932 98.4109 13.099 98.4109 11.331V8.764C98.4109 7.455 99.1249 6.554 100.366 6.554C101.845 6.554 102.729 7.71 102.729 10.379ZM104.514 10.141C104.514 7.812 103.205 5.993 100.944 5.993C100.077 5.993 98.9209 6.435 98.4109 7.353V1.454L96.0649 1.913V2.134C96.7789 2.27 96.9319 2.508 96.9319 3.086V13.915C96.9319 14.187 97.6969 13.779 98.1559 13.303C98.7169 13.83 99.5329 14.153 100.536 14.153C102.797 14.153 104.514 12.759 104.514 10.141ZM108.489 9.699C108.489 7.557 109.577 6.214 110.546 6.214C111.362 6.214 112.467 7.217 112.467 9.699H108.489ZM113.453 11.909C113.147 12.742 111.94 13.371 110.92 13.269C109.577 13.133 108.557 12.215 108.489 9.92H113.929C113.929 7.251 112.569 5.993 110.597 5.993C108.489 5.993 106.891 7.625 106.891 10.141C106.891 12.385 108.404 14.153 110.529 14.153C112.535 14.153 113.47 12.793 113.657 11.994L113.453 11.909ZM120.596 6.044C119.916 6.129 118.947 6.622 118.318 7.778V5.993L115.972 6.486V6.69C116.669 6.877 116.822 7.115 116.822 7.71V12.419C116.822 13.303 116.788 13.592 116.142 13.779V14H119.015V13.779C118.403 13.626 118.318 13.371 118.318 12.419V8.186C118.845 7.047 119.984 6.639 119.933 6.928C119.882 7.149 119.967 7.387 120.12 7.574C120.477 7.982 121.055 8.016 121.446 7.693C121.854 7.353 121.905 6.775 121.565 6.367C121.327 6.095 120.902 6.01 120.596 6.044ZM129.033 8.594C129.033 10.498 128.098 10.991 127.316 10.991C126.568 10.991 125.616 10.498 125.616 8.594C125.616 6.69 126.466 6.214 127.316 6.214C128.047 6.214 129.033 6.69 129.033 8.594ZM131.923 7.217C132.246 6.945 132.297 6.469 132.042 6.129C131.855 5.908 131.532 5.823 131.26 5.84C130.852 5.891 130.172 6.129 129.73 6.792C129.169 6.299 128.336 5.993 127.316 5.993C125.361 5.993 124.137 7.217 124.137 8.594C124.137 9.495 124.579 10.43 125.48 10.821C123.899 11.28 123.967 12.708 123.967 12.708C123.967 13.32 124.239 13.779 124.732 14.017C123.61 14.646 122.862 15.904 123.491 17.06C124.188 18.352 126.857 18.607 129.186 17.298C130.971 16.295 131.022 14.969 131.022 14.969C131.328 12.742 129.271 12.81 128.098 12.81H126.058C124.052 12.81 124.902 11.059 125.701 10.923C126.143 11.11 126.653 11.212 127.316 11.212C129.305 11.212 130.512 9.971 130.512 8.594C130.512 7.982 130.308 7.353 129.883 6.928C130.189 6.486 130.716 6.418 130.682 6.554C130.631 6.741 130.699 6.945 130.835 7.115C131.09 7.455 131.583 7.489 131.923 7.217ZM124.63 16.652C124.664 16.686 123.338 15.207 124.953 14.136C125.548 14.374 126.211 14.357 126.398 14.357H128.744C130.206 14.357 130.274 15.224 130.274 15.224C130.274 15.224 130.393 16.295 129.067 17.111C127.554 18.046 125.429 17.604 124.63 16.652Z" fill="#181818"/>
<path d="M4.998 32.606C4.862 32.963 4.454 33.32 3.961 33.32C3.162 33.32 2.669 32.861 2.669 31.501V26.367H4.641L4.692 26.146H2.669V23.494L1.19 23.732V26.146H0.289L0.323 26.367H1.19V31.552C1.19 33.609 1.938 34.153 3.179 34.153C4.165 34.153 4.93 33.439 5.168 32.691L4.998 32.606ZM14.7799 33.796C14.1849 33.643 14.0829 33.354 14.0829 32.419V28.73C14.0829 26.69 13.1309 25.993 11.7369 25.993C10.6319 25.993 9.35691 26.945 9.10191 27.914V21.454L6.75591 21.964V22.185C7.45291 22.304 7.60591 22.508 7.60591 23.103V32.419C7.60591 33.286 7.57191 33.592 6.92591 33.779V34H9.79891V33.779C9.18691 33.626 9.10191 33.354 9.10191 32.419V28.22C9.37391 27.642 10.0029 26.86 10.8529 26.86C12.0429 26.86 12.6209 27.574 12.6209 28.798V32.419C12.6209 33.286 12.5869 33.609 11.9409 33.796V34H14.7799V33.796ZM21.2541 29.801C21.2541 29.801 21.2541 32.317 21.2541 32.334C21.0841 32.742 20.6591 33.388 19.7581 33.388C18.7211 33.388 18.4151 32.538 18.4151 32.045C18.4151 31.025 19.2821 30.277 21.2541 29.801ZM23.5491 33.354C22.7671 33.354 22.7841 32.283 22.7841 32.283V29.393C22.7841 27.37 22.2741 25.993 20.4211 25.993C20.4211 25.993 19.5881 25.942 18.8571 26.316C17.9391 26.809 17.6501 27.319 17.5311 27.574C17.3951 27.812 17.4291 28.152 17.6161 28.407C17.8711 28.764 18.3641 28.832 18.7041 28.56C19.0611 28.305 19.1291 27.795 18.8741 27.455C18.7381 27.268 18.5511 27.183 18.3471 27.149C18.2451 27.132 18.3471 26.809 19.0101 26.486C20.3701 25.857 21.2541 26.843 21.2541 28.594V29.58C18.3471 30.328 16.9021 30.702 16.9021 32.402C16.9021 34.153 18.8401 34.153 18.8401 34.153C20.0301 34.153 21.0161 33.541 21.2541 32.725C21.3561 34.187 22.6991 34.153 22.6991 34.153C23.5831 34.153 24.1611 33.507 24.2631 32.997L24.0591 32.912C23.9401 33.354 23.5491 33.354 23.5491 33.354ZM28.9781 33.779C28.3831 33.626 28.2981 33.371 28.2981 32.436V21.454L25.9521 21.913V22.134C26.6491 22.27 26.8021 22.508 26.8021 23.103V32.436C26.8021 33.303 26.7681 33.592 26.1221 33.779V34H28.9781V33.779ZM32.7941 29.699C32.7941 27.557 33.8821 26.214 34.8511 26.214C35.6671 26.214 36.7721 27.217 36.7721 29.699H32.7941ZM37.7581 31.909C37.4521 32.742 36.2451 33.371 35.2251 33.269C33.8821 33.133 32.8621 32.215 32.7941 29.92H38.2341C38.2341 27.251 36.8741 25.993 34.9021 25.993C32.7941 25.993 31.1961 27.625 31.1961 30.141C31.1961 32.385 32.7091 34.153 34.8341 34.153C36.8401 34.153 37.7751 32.793 37.9621 31.994L37.7581 31.909ZM45.9897 33.32C46.8057 32.147 46.3127 30.77 44.7827 29.818L43.0657 28.747C41.5867 27.812 41.7057 26.214 43.3207 26.214C45.2927 26.214 45.7687 27.608 45.8877 28.611H46.0917V26.537C46.0917 26.537 45.2757 25.993 43.3207 25.993C41.5867 25.993 41.0767 26.962 41.0767 26.962C40.3966 28.135 40.7706 29.155 42.4027 30.243L44.1197 31.28C45.4117 32.13 45.6327 33.932 43.8307 33.932C41.6207 33.932 41.1957 32.283 41.0767 31.161H40.8556V33.473C40.8556 33.473 41.7737 34.153 43.8307 34.153C45.4117 34.153 45.9897 33.32 45.9897 33.32ZM50.1715 34.085C50.7155 34.085 51.1745 33.643 51.1745 33.082C51.1745 32.521 50.7155 32.062 50.1715 32.062C49.6105 32.062 49.1685 32.521 49.1685 33.082C49.1685 33.643 49.6105 34.085 50.1715 34.085ZM56.5241 33.779C55.9291 33.626 55.8441 33.371 55.8441 32.436V21.454L53.4981 21.913V22.134C54.1951 22.27 54.3481 22.508 54.3481 23.103V32.436C54.3481 33.303 54.3141 33.592 53.6681 33.779V34H56.5241V33.779ZM60.051 24.582C60.527 24.582 60.918 24.191 60.918 23.715C60.918 23.222 60.527 22.848 60.051 22.848C59.558 22.848 59.184 23.222 59.184 23.715C59.184 24.191 59.558 24.582 60.051 24.582ZM61.649 33.779C61.037 33.626 60.952 33.371 60.952 32.419V25.993L58.623 26.486V26.69C59.337 26.877 59.473 27.115 59.473 27.71V32.419C59.473 33.286 59.439 33.592 58.793 33.779V34H61.649V33.779ZM71.562 33.796C70.967 33.643 70.865 33.354 70.865 32.419V28.713C70.865 26.656 69.896 25.993 68.519 25.993C67.448 25.993 66.275 26.792 65.918 27.778V25.993L63.572 26.486V26.69C64.286 26.877 64.422 27.098 64.422 27.693V32.436C64.422 33.303 64.405 33.592 63.759 33.779V34H66.615V33.779C66.003 33.626 65.918 33.371 65.918 32.436V28.305C66.054 27.693 66.768 26.843 67.652 26.843C68.774 26.843 69.386 27.608 69.386 28.764V32.419C69.386 33.286 69.352 33.609 68.706 33.796V34H71.562V33.796ZM79.8216 31.654C79.8216 32.844 78.9716 33.66 77.8496 33.66C76.3706 33.66 75.5036 32.436 75.5036 29.733C75.5036 27.013 76.6426 26.214 77.7646 26.214C78.8016 26.214 79.8216 27.03 79.8216 28.679V31.654ZM82.1506 33.609C81.4706 33.609 81.2836 33.507 81.2836 32.674V21.454L78.9546 21.913V22.134C79.6516 22.27 79.8216 22.491 79.8216 23.086V26.622C79.2606 26.231 78.5636 25.993 77.7306 25.993C75.4526 25.993 73.7356 27.336 73.7356 29.971C73.7356 32.351 75.0446 34.153 77.3226 34.153C78.1556 34.153 79.2946 33.762 79.8216 32.895V33.83C79.8216 33.83 79.8216 34.221 80.2976 34.136L82.1506 33.83V33.609ZM90.3773 30.379C90.3773 33.082 89.2723 33.932 88.1333 33.932C86.9943 33.932 86.0593 33.099 86.0593 31.331V28.764C86.0593 27.455 86.7733 26.554 88.0143 26.554C89.4933 26.554 90.3773 27.71 90.3773 30.379ZM92.1623 30.141C92.1623 27.812 90.8533 25.993 88.5923 25.993C87.7253 25.993 86.5693 26.435 86.0593 27.353V21.454L83.7133 21.913V22.134C84.4273 22.27 84.5803 22.508 84.5803 23.086V33.915C84.5803 34.187 85.3453 33.779 85.8043 33.303C86.3653 33.83 87.1813 34.153 88.1843 34.153C90.4453 34.153 92.1623 32.759 92.1623 30.141ZM96.137 29.699C96.137 27.557 97.225 26.214 98.194 26.214C99.01 26.214 100.115 27.217 100.115 29.699H96.137ZM101.101 31.909C100.795 32.742 99.588 33.371 98.568 33.269C97.225 33.133 96.205 32.215 96.137 29.92H101.577C101.577 27.251 100.217 25.993 98.245 25.993C96.137 25.993 94.539 27.625 94.539 30.141C94.539 32.385 96.052 34.153 98.177 34.153C100.183 34.153 101.118 32.793 101.305 31.994L101.101 31.909ZM108.245 26.044C107.565 26.129 106.596 26.622 105.967 27.778V25.993L103.621 26.486V26.69C104.318 26.877 104.471 27.115 104.471 27.71V32.419C104.471 33.303 104.437 33.592 103.791 33.779V34H106.664V33.779C106.052 33.626 105.967 33.371 105.967 32.419V28.186C106.494 27.047 107.633 26.639 107.582 26.928C107.531 27.149 107.616 27.387 107.769 27.574C108.126 27.982 108.704 28.016 109.095 27.693C109.503 27.353 109.554 26.775 109.214 26.367C108.976 26.095 108.551 26.01 108.245 26.044ZM116.681 28.594C116.681 30.498 115.746 30.991 114.964 30.991C114.216 30.991 113.264 30.498 113.264 28.594C113.264 26.69 114.114 26.214 114.964 26.214C115.695 26.214 116.681 26.69 116.681 28.594ZM119.571 27.217C119.894 26.945 119.945 26.469 119.69 26.129C119.503 25.908 119.18 25.823 118.908 25.84C118.5 25.891 117.82 26.129 117.378 26.792C116.817 26.299 115.984 25.993 114.964 25.993C113.009 25.993 111.785 27.217 111.785 28.594C111.785 29.495 112.227 30.43 113.128 30.821C111.547 31.28 111.615 32.708 111.615 32.708C111.615 33.32 111.887 33.779 112.38 34.017C111.258 34.646 110.51 35.904 111.139 37.06C111.836 38.352 114.505 38.607 116.834 37.298C118.619 36.295 118.67 34.969 118.67 34.969C118.976 32.742 116.919 32.81 115.746 32.81H113.706C111.7 32.81 112.55 31.059 113.349 30.923C113.791 31.11 114.301 31.212 114.964 31.212C116.953 31.212 118.16 29.971 118.16 28.594C118.16 27.982 117.956 27.353 117.531 26.928C117.837 26.486 118.364 26.418 118.33 26.554C118.279 26.741 118.347 26.945 118.483 27.115C118.738 27.455 119.231 27.489 119.571 27.217ZM112.278 36.652C112.312 36.686 110.986 35.207 112.601 34.136C113.196 34.374 113.859 34.357 114.046 34.357H116.392C117.854 34.357 117.922 35.224 117.922 35.224C117.922 35.224 118.041 36.295 116.715 37.111C115.202 38.046 113.077 37.604 112.278 36.652ZM129.822 32.742C129.822 32.742 129.397 33.473 128.547 33.405C127.731 33.32 126.898 32.623 127.255 30.6C127.544 28.9 128.513 27.727 129.584 27.727C130.706 27.727 130.57 29.359 130.502 29.631C130.4 30.209 129.907 32.317 129.822 32.742ZM129.924 23.732C125.895 23.579 121.917 26.214 121.679 30.974C121.407 36.159 125.572 37.536 128.037 37.536C130.842 37.536 132.049 36.312 132.049 36.312L131.913 36.142C131.692 36.329 130.23 37.247 128.275 37.094C122.24 36.601 123.26 30.651 123.26 30.651C123.685 27.2 126.116 24.208 130.077 24.514C133.902 24.803 134.514 27.88 134.31 29.869C134.021 32.81 132.287 33.626 131.573 33.626C130.978 33.626 130.995 33.099 131.063 32.759C131.199 32.147 132.134 27.676 132.134 27.676L130.944 27.659C130.944 27.659 130.859 27.965 130.842 28.101C130.825 28.101 130.502 27.455 129.346 27.455C127 27.438 125.861 29.699 125.725 31.348C125.606 32.742 126.269 34.153 127.663 34.153C128.887 34.153 129.584 33.405 129.754 33.15C129.669 33.745 130.026 34.153 130.791 34.153C131.947 34.153 134.463 33.575 134.888 29.92C135.364 26.044 132.848 23.851 129.924 23.732ZM142.98 28.594C142.98 30.498 142.045 30.991 141.263 30.991C140.515 30.991 139.563 30.498 139.563 28.594C139.563 26.69 140.413 26.214 141.263 26.214C141.994 26.214 142.98 26.69 142.98 28.594ZM145.87 27.217C146.193 26.945 146.244 26.469 145.989 26.129C145.802 25.908 145.479 25.823 145.207 25.84C144.799 25.891 144.119 26.129 143.677 26.792C143.116 26.299 142.283 25.993 141.263 25.993C139.308 25.993 138.084 27.217 138.084 28.594C138.084 29.495 138.526 30.43 139.427 30.821C137.846 31.28 137.914 32.708 137.914 32.708C137.914 33.32 138.186 33.779 138.679 34.017C137.557 34.646 136.809 35.904 137.438 37.06C138.135 38.352 140.804 38.607 143.133 37.298C144.918 36.295 144.969 34.969 144.969 34.969C145.275 32.742 143.218 32.81 142.045 32.81H140.005C137.999 32.81 138.849 31.059 139.648 30.923C140.09 31.11 140.6 31.212 141.263 31.212C143.252 31.212 144.459 29.971 144.459 28.594C144.459 27.982 144.255 27.353 143.83 26.928C144.136 26.486 144.663 26.418 144.629 26.554C144.578 26.741 144.646 26.945 144.782 27.115C145.037 27.455 145.53 27.489 145.87 27.217ZM138.577 36.652C138.611 36.686 137.285 35.207 138.9 34.136C139.495 34.374 140.158 34.357 140.345 34.357H142.691C144.153 34.357 144.221 35.224 144.221 35.224C144.221 35.224 144.34 36.295 143.014 37.111C141.501 38.046 139.376 37.604 138.577 36.652ZM159.708 33.796C159.113 33.643 159.011 33.354 159.011 32.419V28.713C159.011 26.656 158.178 25.993 156.784 25.993C155.696 25.993 154.676 26.809 154.37 27.812C154.149 26.537 153.384 25.993 152.194 25.993C151.123 25.993 150.171 26.775 149.797 27.744V25.993L147.451 26.486V26.69C148.165 26.877 148.301 27.166 148.301 27.761V32.436C148.301 33.303 148.284 33.592 147.638 33.779V34H150.494V33.779C149.882 33.626 149.797 33.371 149.797 32.436V28.305C149.916 27.727 150.545 26.843 151.395 26.843C152.483 26.843 152.942 27.54 152.942 28.764V32.419C152.942 33.286 152.908 33.609 152.262 33.796V34H155.118V33.796C154.506 33.643 154.421 33.354 154.421 32.419V28.747C154.421 28.594 154.421 28.458 154.421 28.339C154.421 27.71 155.135 26.843 155.985 26.843C157.073 26.843 157.532 27.54 157.532 28.764V32.419C157.532 33.286 157.498 33.609 156.852 33.796V34H159.708V33.796ZM166.152 29.801C166.152 29.801 166.152 32.317 166.152 32.334C165.982 32.742 165.557 33.388 164.656 33.388C163.619 33.388 163.313 32.538 163.313 32.045C163.313 31.025 164.18 30.277 166.152 29.801ZM168.447 33.354C167.665 33.354 167.682 32.283 167.682 32.283V29.393C167.682 27.37 167.172 25.993 165.319 25.993C165.319 25.993 164.486 25.942 163.755 26.316C162.837 26.809 162.548 27.319 162.429 27.574C162.293 27.812 162.327 28.152 162.514 28.407C162.769 28.764 163.262 28.832 163.602 28.56C163.959 28.305 164.027 27.795 163.772 27.455C163.636 27.268 163.449 27.183 163.245 27.149C163.143 27.132 163.245 26.809 163.908 26.486C165.268 25.857 166.152 26.843 166.152 28.594V29.58C163.245 30.328 161.8 30.702 161.8 32.402C161.8 34.153 163.738 34.153 163.738 34.153C164.928 34.153 165.914 33.541 166.152 32.725C166.254 34.187 167.597 34.153 167.597 34.153C168.481 34.153 169.059 33.507 169.161 32.997L168.957 32.912C168.838 33.354 168.447 33.354 168.447 33.354ZM172.38 24.582C172.856 24.582 173.247 24.191 173.247 23.715C173.247 23.222 172.856 22.848 172.38 22.848C171.887 22.848 171.513 23.222 171.513 23.715C171.513 24.191 171.887 24.582 172.38 24.582ZM173.978 33.779C173.366 33.626 173.281 33.371 173.281 32.419V25.993L170.952 26.486V26.69C171.666 26.877 171.802 27.115 171.802 27.71V32.419C171.802 33.286 171.768 33.592 171.122 33.779V34H173.978V33.779ZM179.148 33.779C178.553 33.626 178.468 33.371 178.468 32.436V21.454L176.122 21.913V22.134C176.819 22.27 176.972 22.508 176.972 23.103V32.436C176.972 33.303 176.938 33.592 176.292 33.779V34H179.148V33.779ZM182.692 34.085C183.236 34.085 183.695 33.643 183.695 33.082C183.695 32.521 183.236 32.062 182.692 32.062C182.131 32.062 181.689 32.521 181.689 33.082C181.689 33.643 182.131 34.085 182.692 34.085ZM193.056 31.824C192.75 32.521 191.696 33.32 190.455 33.218C189.248 33.099 187.973 32.164 187.973 29.903C187.973 26.724 189.843 26.214 190.523 26.214C191.662 26.214 192.121 26.69 191.968 26.724C191.798 26.741 191.611 26.877 191.492 27.081C191.271 27.438 191.39 27.931 191.781 28.152C192.138 28.373 192.648 28.22 192.869 27.863C193.022 27.591 192.988 27.268 192.852 27.03C192.699 26.758 192.189 25.993 190.523 25.993C187.922 25.993 186.392 27.999 186.392 30.09C186.392 32.589 188.194 34.153 190.098 34.153C192.189 34.153 193.056 32.759 193.243 31.909L193.056 31.824ZM201.683 30.073C201.683 33.15 200.816 33.932 199.524 33.932C198.215 33.932 197.331 33.15 197.331 30.073C197.331 26.996 198.215 26.214 199.524 26.214C200.816 26.214 201.683 26.996 201.683 30.073ZM203.434 30.073C203.434 27.829 202.125 25.993 199.524 25.993C196.94 25.993 195.597 27.829 195.597 30.073C195.597 32.3 196.94 34.153 199.524 34.153C202.125 34.153 203.434 32.3 203.434 30.073ZM217.646 33.796C217.051 33.643 216.949 33.354 216.949 32.419V28.713C216.949 26.656 216.116 25.993 214.722 25.993C213.634 25.993 212.614 26.809 212.308 27.812C212.087 26.537 211.322 25.993 210.132 25.993C209.061 25.993 208.109 26.775 207.735 27.744V25.993L205.389 26.486V26.69C206.103 26.877 206.239 27.166 206.239 27.761V32.436C206.239 33.303 206.222 33.592 205.576 33.779V34H208.432V33.779C207.82 33.626 207.735 33.371 207.735 32.436V28.305C207.854 27.727 208.483 26.843 209.333 26.843C210.421 26.843 210.88 27.54 210.88 28.764V32.419C210.88 33.286 210.846 33.609 210.2 33.796V34H213.056V33.796C212.444 33.643 212.359 33.354 212.359 32.419V28.747C212.359 28.594 212.359 28.458 212.359 28.339C212.359 27.71 213.073 26.843 213.923 26.843C215.011 26.843 215.47 27.54 215.47 28.764V32.419C215.47 33.286 215.436 33.609 214.79 33.796V34H217.646V33.796Z" fill="#181818"/>
<a href="mailto:thales.lindberg@gmail.com">
<rect fill="black" fill-opacity="0" y="-0.2" width="217.935" height="20.4"/>
</a>
<path d="M11.169 63.152H6.63V58.477H5.491V63.152H0.952V64.308H5.491V69H6.63V64.308H11.169V63.152ZM21.4513 64.869C21.2473 62.761 18.9863 60.789 14.6683 61.775L15.1953 58.613H20.6013L21.0603 57.032H15.1783L14.1583 63.288C17.9153 62.489 19.6833 63.934 20.0913 65.311C20.7033 67.3 19.2413 68.932 17.1163 68.932C15.7563 68.932 15.2463 68.388 15.4503 68.303C15.6543 68.235 15.8583 68.065 15.9433 67.81C16.1133 67.3 15.8583 66.739 15.3653 66.569C14.8553 66.399 14.2943 66.654 14.1243 67.164C14.0053 67.504 14.1243 67.929 14.3453 68.167C14.5833 68.422 15.4163 69.153 17.1163 69.153C19.2923 69.153 21.7403 67.912 21.4513 64.869ZM31.654 64.869C31.45 62.761 29.189 60.789 24.871 61.775L25.398 58.613H30.804L31.263 57.032H25.381L24.361 63.288C28.118 62.489 29.886 63.934 30.294 65.311C30.906 67.3 29.444 68.932 27.319 68.932C25.959 68.932 25.449 68.388 25.653 68.303C25.857 68.235 26.061 68.065 26.146 67.81C26.316 67.3 26.061 66.739 25.568 66.569C25.058 66.399 24.497 66.654 24.327 67.164C24.208 67.504 24.327 67.929 24.548 68.167C24.786 68.422 25.619 69.153 27.319 69.153C29.495 69.153 31.943 67.912 31.654 64.869ZM44.2537 56.318C42.2307 57.729 40.3607 61.333 40.3607 64.665C40.3607 68.014 42.2137 71.346 44.2197 72.485L44.4237 72.281C41.7887 69.901 41.8737 65.634 41.8737 64.716C41.8737 63.815 41.7887 59.667 44.4577 56.505L44.2537 56.318ZM52.266 59.633C52.283 60.925 51.433 61.826 50.838 62.03C49.019 61.299 48.118 60.534 48.118 59.038C48.118 57.797 49.087 57.1 50.09 57.1C51.11 57.1 52.232 57.593 52.266 59.633ZM50.294 69.153C52.487 69.153 54.17 68.184 54.17 65.787C54.17 64.138 52.759 62.999 51.11 62.183C52.402 61.86 53.354 60.534 53.354 59.531C53.354 57.916 52.13 56.879 50.09 56.879C48.322 56.879 46.775 57.882 46.775 59.854C46.775 61.163 47.37 62.064 49.053 63.067C47.591 63.543 46.18 64.835 46.18 66.297C46.18 68.337 47.778 69.153 50.294 69.153ZM49.92 63.56C51.688 64.495 52.674 65.243 52.691 66.518C52.708 68.388 51.263 68.932 50.294 68.932C48.781 68.932 47.506 68.116 47.506 66.229C47.506 64.291 48.73 63.492 49.308 63.22C49.563 63.373 49.631 63.407 49.92 63.56ZM56.7546 68.184C57.2646 68.694 58.1996 69.153 59.6106 69.153C61.2086 69.153 63.6226 68.388 63.5206 65.43C63.4866 64.206 62.5346 62.914 60.7836 62.421C63.9966 60.619 62.4836 56.879 59.7466 56.879C59.4746 56.879 56.8056 56.879 56.6186 59.633L56.8736 59.667C57.1626 58.103 59.2706 57.542 60.3416 58.477C61.8206 59.718 61.3106 62.353 58.7096 62.795V63.033C61.2256 63.22 61.9056 64.869 61.9906 65.889C62.1436 67.827 61.3276 68.932 59.5936 68.932C58.2336 68.932 57.7406 68.405 57.8596 68.371C58.0806 68.303 58.2336 68.133 58.3356 67.895C58.5226 67.402 58.2846 66.858 57.7916 66.671C57.3156 66.484 56.7716 66.722 56.5846 67.215C56.4486 67.555 56.5336 67.963 56.7546 68.184ZM65.4242 56.505C68.0932 59.667 68.0082 63.815 68.0082 64.716C68.0082 65.634 68.0932 69.901 65.4582 72.281L65.6622 72.485C67.6682 71.346 69.5212 68.014 69.5212 64.665C69.5212 61.333 67.6512 57.729 65.6282 56.318L65.4242 56.505ZM79.7261 60.398C79.7261 57.916 80.5931 57.1 81.8681 57.1C83.3811 57.1 84.0101 58.409 84.0101 61.741C84.0101 62.846 83.0241 63.764 81.6811 63.764C80.7121 63.764 79.7261 62.948 79.7261 60.398ZM78.0261 60.687C78.0261 62.438 78.7911 64.359 81.2051 64.359C82.5311 64.359 83.5171 63.798 84.0101 62.455C84.0101 67.572 83.2791 69.017 81.1031 68.932C80.1851 68.881 79.7941 68.473 79.9301 68.473C80.1681 68.473 80.3721 68.337 80.5421 68.15C80.8651 67.742 80.7971 67.13 80.3891 66.824C79.9811 66.484 79.3861 66.552 79.0631 66.977C78.8251 67.249 78.7911 67.674 78.9441 67.963C79.0631 68.218 79.4881 69.153 81.3581 69.153C84.4181 69.153 85.8121 66.569 85.8121 62.268C85.8121 58.885 84.7411 56.879 81.8681 56.879C79.5051 56.879 78.0261 58.154 78.0261 60.687ZM89.9952 60.398C89.9952 57.916 90.8622 57.1 92.1372 57.1C93.6502 57.1 94.2792 58.409 94.2792 61.741C94.2792 62.846 93.2932 63.764 91.9502 63.764C90.9812 63.764 89.9952 62.948 89.9952 60.398ZM88.2952 60.687C88.2952 62.438 89.0602 64.359 91.4742 64.359C92.8002 64.359 93.7862 63.798 94.2792 62.455C94.2792 67.572 93.5482 69.017 91.3722 68.932C90.4542 68.881 90.0632 68.473 90.1992 68.473C90.4372 68.473 90.6412 68.337 90.8112 68.15C91.1342 67.742 91.0662 67.13 90.6582 66.824C90.2502 66.484 89.6552 66.552 89.3322 66.977C89.0942 67.249 89.0602 67.674 89.2132 67.963C89.3322 68.218 89.7572 69.153 91.6272 69.153C94.6872 69.153 96.0812 66.569 96.0812 62.268C96.0812 58.885 95.0102 56.879 92.1372 56.879C89.7742 56.879 88.2952 58.154 88.2952 60.687ZM103.443 68.796C102.848 68.796 102.134 68.779 102.134 67.47V56.879H101.573L98.9553 59.021L99.0913 59.208C99.7203 58.715 100.655 58.12 100.655 59.361V67.47C100.655 68.728 99.9583 68.796 99.2613 68.796V69H103.443V68.796ZM115.934 64.648H112.823C112.364 64.648 112.109 64.648 112.585 63.951L115.934 58.987V64.648ZM119.266 65.549V64.648H117.617V57.032L116.971 56.964L111.395 65.294V65.549H115.934V67.028C115.934 68.711 115.373 68.779 114.659 68.779V69H118.892V68.779C118.178 68.779 117.617 68.745 117.617 66.943V65.549H119.266ZM122.061 57.032L121.738 59.497H121.959C122.265 58.8 122.673 58.511 123.489 58.511H128.623C125.393 62.897 124.492 65.787 124.288 69H126.073C126.073 66.518 126.6 62.523 128.861 58.511L129.728 57.032H122.061ZM137.697 68.184C138.207 68.694 139.142 69.153 140.553 69.153C142.151 69.153 144.565 68.388 144.463 65.43C144.429 64.206 143.477 62.914 141.726 62.421C144.939 60.619 143.426 56.879 140.689 56.879C140.417 56.879 137.748 56.879 137.561 59.633L137.816 59.667C138.105 58.103 140.213 57.542 141.284 58.477C142.763 59.718 142.253 62.353 139.652 62.795V63.033C142.168 63.22 142.848 64.869 142.933 65.889C143.086 67.827 142.27 68.932 140.536 68.932C139.176 68.932 138.683 68.405 138.802 68.371C139.023 68.303 139.176 68.133 139.278 67.895C139.465 67.402 139.227 66.858 138.734 66.671C138.258 66.484 137.714 66.722 137.527 67.215C137.391 67.555 137.476 67.963 137.697 68.184ZM153.677 66.552C153.303 67.232 152.674 67.521 152.096 67.521H148.441C148.441 67.521 150.311 64.699 151.127 63.594C152.453 61.809 153.184 60.84 153.184 59.718C153.184 58.171 151.96 56.879 150.26 56.879C150.26 56.879 147.285 56.794 147.098 60.075L147.353 60.126C148.033 56.658 154.238 58.205 150.821 63.356L147.064 69H153.218L153.898 66.552H153.677ZM163.292 60.398C163.292 57.916 164.159 57.1 165.434 57.1C166.947 57.1 167.576 58.409 167.576 61.741C167.576 62.846 166.59 63.764 165.247 63.764C164.278 63.764 163.292 62.948 163.292 60.398ZM161.592 60.687C161.592 62.438 162.357 64.359 164.771 64.359C166.097 64.359 167.083 63.798 167.576 62.455C167.576 67.572 166.845 69.017 164.669 68.932C163.751 68.881 163.36 68.473 163.496 68.473C163.734 68.473 163.938 68.337 164.108 68.15C164.431 67.742 164.363 67.13 163.955 66.824C163.547 66.484 162.952 66.552 162.629 66.977C162.391 67.249 162.357 67.674 162.51 67.963C162.629 68.218 163.054 69.153 164.924 69.153C167.984 69.153 169.378 66.569 169.378 62.268C169.378 58.885 168.307 56.879 165.434 56.879C163.071 56.879 161.592 58.154 161.592 60.687ZM176.74 68.796C176.145 68.796 175.431 68.779 175.431 67.47V56.879H174.87L172.252 59.021L172.388 59.208C173.017 58.715 173.952 58.12 173.952 59.361V67.47C173.952 68.728 173.255 68.796 172.558 68.796V69H176.74V68.796Z" fill="#181818"/>
</svg>
