<svg width="199" height="22" viewBox="0 0 199 22" fill="none" xmlns="http://www.w3.org/2000/svg">
<path d="M30.648 12.688C30.44 15.12 28.488 15.936 27.192 15.936C25.576 15.936 23.688 15.28 23.688 10.368C23.688 5.536 25.528 4.8 27.192 4.8C28.488 4.8 30.2 5.408 30.648 8.048H30.856L31.048 5.568C30.04 4.752 28.84 4.592 27.192 4.592C23.88 4.592 21.64 6.768 21.64 10.368C21.64 13.936 23.88 16.144 27.192 16.144C28.904 16.144 29.864 15.936 31.048 15.152L30.856 12.688H30.648ZM41.9744 10.448C41.9744 14.848 40.5184 15.936 38.6304 15.936C36.7264 15.936 35.2704 14.848 35.2704 10.448C35.2704 6.064 36.7264 4.8 38.6304 4.8C40.5184 4.8 41.9744 6.064 41.9744 10.448ZM43.8304 10.448C43.8304 7.28 42.1504 4.592 38.6304 4.592C35.1104 4.592 33.4304 7.28 33.4304 10.448C33.4304 13.632 35.1104 16.144 38.6304 16.144C42.1504 16.144 43.8304 13.632 43.8304 10.448ZM58.3949 14.128V6.352C58.3949 5.264 58.9389 4.944 59.6269 4.944V4.736H56.7949L53.6109 13.792L49.4509 4.736H46.2669V4.944C46.6509 4.976 47.4509 4.96 48.0589 6V12.016C48.0589 13.824 47.7709 15.792 45.7869 15.792V16H50.3149V15.792C48.5389 15.792 48.2669 13.872 48.2669 12.016V6.352L52.7309 16.144H52.9229L56.7949 5.344V14.128C56.7949 15.424 56.3149 15.792 55.6429 15.792V16H59.7389V15.792C59.0509 15.792 58.3949 15.424 58.3949 14.128ZM73.8724 14.128V6.352C73.8724 5.264 74.4164 4.944 75.1044 4.944V4.736H72.2724L69.0884 13.792L64.9284 4.736H61.7444V4.944C62.1284 4.976 62.9284 4.96 63.5364 6V12.016C63.5364 13.824 63.2484 15.792 61.2644 15.792V16H65.7924V15.792C64.0164 15.792 63.7444 13.872 63.7444 12.016V6.352L68.2084 16.144H68.4004L72.2724 5.344V14.128C72.2724 15.424 71.7924 15.792 71.1204 15.792V16H75.2164V15.792C74.5284 15.792 73.8724 15.424 73.8724 14.128ZM81.7339 16.144C83.7019 16.144 85.6219 15.088 85.6219 12.224V7.872C85.6219 6.368 85.5739 4.944 87.6699 4.944V4.736H83.5099V4.944C85.3819 4.944 85.4139 6.368 85.4139 7.872V12.224C85.4139 14.288 84.1499 15.424 82.5179 15.424C80.7899 15.424 79.6059 14.288 79.6059 12.304V6.352C79.6059 5.088 80.1819 4.944 80.8699 4.944V4.736H76.8859V4.944C77.5899 4.944 78.0219 5.248 78.0219 6.336V12.16C78.0219 14.768 79.6539 16.144 81.7339 16.144ZM97.011 4.736V4.928C99.123 4.928 99.107 7.232 99.107 8.72V13.664L92.195 4.736H89.235V4.928C89.651 4.96 90.115 4.864 91.139 6.144L91.795 6.992V12C91.795 13.44 91.795 15.792 89.475 15.792V16H94.099V15.792C92.003 15.792 92.003 13.408 92.003 12V7.232L98.803 16H99.315V8.72C99.315 7.232 99.267 4.928 101.587 4.928V4.736H97.011ZM103.853 4.736V4.944C104.557 4.944 104.973 5.216 104.973 6.208V14.288C104.973 15.376 104.541 15.792 103.853 15.792V16H107.741V15.792C107.069 15.792 106.621 15.376 106.621 14.288V6.208C106.621 5.216 107.053 4.944 107.741 4.944V4.736H103.853ZM119.209 12.688C119.001 15.12 117.049 15.936 115.753 15.936C114.137 15.936 112.249 15.28 112.249 10.368C112.249 5.536 114.089 4.8 115.753 4.8C117.049 4.8 118.761 5.408 119.209 8.048H119.417L119.609 5.568C118.601 4.752 117.401 4.592 115.753 4.592C112.441 4.592 110.201 6.768 110.201 10.368C110.201 13.936 112.441 16.144 115.753 16.144C117.465 16.144 118.425 15.936 119.609 15.152L119.417 12.688H119.209ZM123.745 12.384L125.681 7.072L127.777 12.384H123.745ZM131.713 15.792C131.265 15.76 130.929 15.776 130.401 14.496C130.401 14.496 128.417 9.44 126.465 4.736H126.289L123.617 12.016C122.225 15.712 121.825 15.776 121.217 15.792V16H124.785V15.792C122.561 15.856 123.265 13.872 123.697 12.592H127.841L128.401 13.984C128.769 14.88 128.929 15.792 128.065 15.792V16H131.713V15.792ZM132.508 4.736V7.552H132.716C132.78 4.976 135.164 4.944 135.66 4.944H136.604V14.448C136.604 15.504 136.124 15.792 135.452 15.792V16H139.356V15.792C138.684 15.792 138.188 15.504 138.188 14.448V4.944H139.132C139.356 4.944 142.028 4.976 142.092 7.552H142.3V4.736H132.508ZM144.513 4.736V4.944C145.217 4.944 145.633 5.216 145.633 6.208V14.288C145.633 15.376 145.201 15.792 144.513 15.792V16H148.401V15.792C147.729 15.792 147.281 15.376 147.281 14.288V6.208C147.281 5.216 147.713 4.944 148.401 4.944V4.736H144.513ZM159.421 10.448C159.421 14.848 157.965 15.936 156.077 15.936C154.173 15.936 152.717 14.848 152.717 10.448C152.717 6.064 154.173 4.8 156.077 4.8C157.965 4.8 159.421 6.064 159.421 10.448ZM161.277 10.448C161.277 7.28 159.597 4.592 156.077 4.592C152.557 4.592 150.877 7.28 150.877 10.448C150.877 13.632 152.557 16.144 156.077 16.144C159.597 16.144 161.277 13.632 161.277 10.448ZM171.01 4.736V4.928C173.122 4.928 173.106 7.232 173.106 8.72V13.664L166.194 4.736H163.234V4.928C163.65 4.96 164.114 4.864 165.138 6.144L165.794 6.992V12C165.794 13.44 165.794 15.792 163.474 15.792V16H168.098V15.792C166.002 15.792 166.002 13.408 166.002 12V7.232L172.802 16H173.314V8.72C173.314 7.232 173.266 4.928 175.586 4.928V4.736H171.01Z" fill="#181818"/>
<path d="M30.648 12.688V12.388H30.3726L30.3491 12.6624L30.648 12.688ZM30.648 8.048L30.3522 8.09819L30.3946 8.348H30.648V8.048ZM30.856 8.048V8.348H31.1337L31.1551 8.07116L30.856 8.048ZM31.048 5.568L31.3471 5.59116L31.3593 5.434L31.2368 5.33483L31.048 5.568ZM31.048 15.152L31.2136 15.4021L31.3608 15.3047L31.3471 15.1287L31.048 15.152ZM30.856 12.688L31.1551 12.6647L31.1335 12.388H30.856V12.688ZM30.3491 12.6624C30.2524 13.7928 29.756 14.5271 29.1478 14.9842C28.5306 15.448 27.7841 15.636 27.192 15.636V16.236C27.8959 16.236 28.7734 16.016 29.5082 15.4638C30.252 14.9049 30.8356 14.0152 30.9469 12.7136L30.3491 12.6624ZM27.192 15.636C26.4229 15.636 25.6524 15.4805 25.0607 14.7976C24.457 14.1006 23.988 12.7971 23.988 10.368H23.388C23.388 12.8509 23.863 14.3314 24.6073 15.1904C25.3636 16.0635 26.3451 16.236 27.192 16.236V15.636ZM23.988 10.368C23.988 7.97881 24.445 6.6736 25.0448 5.96599C25.6322 5.27313 26.4035 5.1 27.192 5.1V4.5C26.3165 4.5 25.3358 4.69487 24.5872 5.57801C23.851 6.4464 23.388 7.92519 23.388 10.368H23.988ZM27.192 5.1C27.7964 5.1 28.4791 5.24204 29.0586 5.67445C29.6324 6.10254 30.1388 6.84031 30.3522 8.09819L30.9438 7.99781C30.7092 6.61569 30.1356 5.72945 29.4174 5.19355C28.7049 4.66196 27.8836 4.5 27.192 4.5V5.1ZM30.648 8.348H30.856V7.748H30.648V8.348ZM31.1551 8.07116L31.3471 5.59116L30.7489 5.54484L30.5569 8.02484L31.1551 8.07116ZM31.2368 5.33483C30.1427 4.44918 28.8497 4.292 27.192 4.292V4.892C28.8303 4.892 29.9373 5.05482 30.8592 5.80117L31.2368 5.33483ZM27.192 4.292C25.4689 4.292 23.999 4.85944 22.9597 5.92003C21.9208 6.98031 21.34 8.50504 21.34 10.368H21.94C21.94 8.63096 22.4792 7.26769 23.3883 6.33996C24.297 5.41256 25.6031 4.892 27.192 4.892V4.292ZM21.34 10.368C21.34 12.2155 21.9211 13.7398 22.9593 14.8035C23.9979 15.8678 25.4677 16.444 27.192 16.444V15.844C25.6043 15.844 24.2981 15.3162 23.3887 14.3845C22.4789 13.4522 21.94 12.0885 21.94 10.368H21.34ZM27.192 16.444C28.0582 16.444 28.7541 16.3917 29.3905 16.2331C30.0313 16.0734 30.5985 15.8095 31.2136 15.4021L30.8824 14.9019C30.3135 15.2785 29.8087 15.5106 29.2455 15.6509C28.6779 15.7923 28.0378 15.844 27.192 15.844V16.444ZM31.3471 15.1287L31.1551 12.6647L30.5569 12.7113L30.7489 15.1753L31.3471 15.1287ZM30.856 12.388H30.648V12.988H30.856V12.388ZM41.6744 10.448C41.6744 12.6269 41.3116 13.9205 40.7681 14.6651C40.2414 15.3866 39.5113 15.636 38.6304 15.636V16.236C39.6374 16.236 40.5793 15.9414 41.2527 15.0189C41.9092 14.1195 42.2744 12.6691 42.2744 10.448H41.6744ZM38.6304 15.636C37.7406 15.636 37.0067 15.3861 36.4784 14.6647C35.9332 13.9203 35.5704 12.6269 35.5704 10.448H34.9704C34.9704 12.6691 35.3355 14.1197 35.9943 15.0193C36.67 15.9419 37.6161 16.236 38.6304 16.236V15.636ZM35.5704 10.448C35.5704 8.27859 35.9326 6.94073 36.4825 6.1515C37.0166 5.38491 37.7539 5.1 38.6304 5.1V4.5C37.6028 4.5 36.6601 4.84709 35.9902 5.8085C35.3361 6.74727 34.9704 8.23341 34.9704 10.448H35.5704ZM38.6304 5.1C39.498 5.1 40.2315 5.38432 40.764 6.15112C41.3122 6.94053 41.6744 8.27867 41.6744 10.448H42.2744C42.2744 8.23333 41.9086 6.74747 41.2568 5.80888C40.5893 4.84768 39.6507 4.5 38.6304 4.5V5.1ZM44.1304 10.448C44.1304 8.81501 43.6978 7.27856 42.784 6.14384C41.8634 5.0005 40.4751 4.292 38.6304 4.292V4.892C40.3057 4.892 41.5174 5.5275 42.3167 6.52015C43.123 7.52144 43.5304 8.91299 43.5304 10.448H44.1304ZM38.6304 4.292C36.7857 4.292 35.3974 5.0005 34.4767 6.14384C33.563 7.27856 33.1304 8.81501 33.1304 10.448H33.7304C33.7304 8.91299 34.1378 7.52144 34.944 6.52015C35.7434 5.5275 36.9551 4.892 38.6304 4.892V4.292ZM33.1304 10.448C33.1304 12.0891 33.5631 13.5883 34.4805 14.6827C35.4042 15.7848 36.7927 16.444 38.6304 16.444V15.844C36.948 15.844 35.7365 15.2472 34.9403 14.2973C34.1376 13.3397 33.7304 11.9909 33.7304 10.448H33.1304ZM38.6304 16.444C40.468 16.444 41.8565 15.7848 42.7803 14.6827C43.6976 13.5883 44.1304 12.0891 44.1304 10.448H43.5304C43.5304 11.9909 43.1231 13.3397 42.3205 14.2973C41.5242 15.2472 40.3127 15.844 38.6304 15.844V16.444ZM59.6269 4.944V5.244H59.9269V4.944H59.6269ZM59.6269 4.736H59.9269V4.436H59.6269V4.736ZM56.7949 4.736V4.436H56.5824L56.5119 4.63649L56.7949 4.736ZM53.6109 13.792L53.3383 13.9172L53.6479 14.5912L53.8939 13.8915L53.6109 13.792ZM49.4509 4.736L49.7235 4.61077L49.6432 4.436H49.4509V4.736ZM46.2669 4.736V4.436H45.9669V4.736H46.2669ZM46.2669 4.944H45.9669V5.22004L46.242 5.24296L46.2669 4.944ZM48.0589 6H48.3589V5.91874L48.3179 5.84859L48.0589 6ZM45.7869 15.792V15.492H45.4869V15.792H45.7869ZM45.7869 16H45.4869V16.3H45.7869V16ZM50.3149 16V16.3H50.6149V16H50.3149ZM50.3149 15.792H50.6149V15.492H50.3149V15.792ZM48.2669 6.352L48.5398 6.22756L47.9669 6.352H48.2669ZM52.7309 16.144L52.4579 16.2684L52.5379 16.444H52.7309V16.144ZM52.9229 16.144V16.444H53.134L53.2053 16.2452L52.9229 16.144ZM56.7949 5.344H57.0949L56.5125 5.24275L56.7949 5.344ZM55.6429 15.792V15.492H55.3429V15.792H55.6429ZM55.6429 16H55.3429V16.3H55.6429V16ZM59.7389 16V16.3H60.0389V16H59.7389ZM59.7389 15.792H60.0389V15.492H59.7389V15.792ZM58.6949 14.128V6.352H58.0949V14.128H58.6949ZM58.6949 6.352C58.6949 5.85402 58.8191 5.59409 58.9621 5.45502C59.1063 5.31468 59.3242 5.244 59.6269 5.244V4.644C59.2415 4.644 58.8434 4.73331 58.5437 5.02498C58.2426 5.31791 58.0949 5.76198 58.0949 6.352H58.6949ZM59.9269 4.944V4.736H59.3269V4.944H59.9269ZM59.6269 4.436H56.7949V5.036H59.6269V4.436ZM56.5119 4.63649L53.3279 13.6925L53.8939 13.8915L57.0779 4.83551L56.5119 4.63649ZM53.8835 13.6668L49.7235 4.61077L49.1783 4.86123L53.3383 13.9172L53.8835 13.6668ZM49.4509 4.436H46.2669V5.036H49.4509V4.436ZM45.9669 4.736V4.944H46.5669V4.736H45.9669ZM46.242 5.24296C46.454 5.26063 46.6952 5.26329 46.9672 5.37242C47.2271 5.47673 47.5283 5.68684 47.7999 6.15141L48.3179 5.84859C47.9815 5.27316 47.5786 4.97127 47.1906 4.81558C46.8146 4.66471 46.4637 4.65937 46.2918 4.64504L46.242 5.24296ZM47.7589 6V12.016H48.3589V6H47.7589ZM47.7589 12.016C47.7589 12.9157 47.6851 13.8041 47.3929 14.4599C47.2492 14.7821 47.0581 15.0358 46.8076 15.2099C46.559 15.3828 46.231 15.492 45.7869 15.492V16.092C46.3348 16.092 46.7867 15.9552 47.1501 15.7026C47.5117 15.4512 47.7645 15.0999 47.9409 14.7041C48.2886 13.9239 48.3589 12.9243 48.3589 12.016H47.7589ZM45.4869 15.792V16H46.0869V15.792H45.4869ZM45.7869 16.3H50.3149V15.7H45.7869V16.3ZM50.6149 16V15.792H50.0149V16H50.6149ZM50.3149 15.492C49.9285 15.492 49.6441 15.3889 49.427 15.2241C49.2064 15.0566 49.0339 14.8088 48.9027 14.4868C48.6365 13.8332 48.5669 12.9406 48.5669 12.016H47.9669C47.9669 12.9474 48.0333 13.9428 48.347 14.7132C48.5059 15.1032 48.7343 15.4514 49.0642 15.7019C49.3976 15.9551 49.8133 16.092 50.3149 16.092V15.492ZM48.5669 12.016V6.352H47.9669V12.016H48.5669ZM47.9939 6.47644L52.4579 16.2684L53.0038 16.0196L48.5398 6.22756L47.9939 6.47644ZM52.7309 16.444H52.9229V15.844H52.7309V16.444ZM53.2053 16.2452L57.0773 5.44525L56.5125 5.24275L52.6405 16.0428L53.2053 16.2452ZM56.4949 5.344V14.128H57.0949V5.344H56.4949ZM56.4949 14.128C56.4949 14.7494 56.3778 15.0827 56.237 15.2581C56.1087 15.4179 55.9228 15.492 55.6429 15.492V16.092C56.035 16.092 56.4251 15.9821 56.7048 15.6339C56.9719 15.3013 57.0949 14.8026 57.0949 14.128H56.4949ZM55.3429 15.792V16H55.9429V15.792H55.3429ZM55.6429 16.3H59.7389V15.7H55.6429V16.3ZM60.0389 16V15.792H59.4389V16H60.0389ZM59.7389 15.492C59.4456 15.492 59.1984 15.4141 59.0227 15.2356C58.8466 15.0566 58.6949 14.7286 58.6949 14.128H58.0949C58.0949 14.8234 58.2712 15.3274 58.5951 15.6564C58.9193 15.9859 59.3441 16.092 59.7389 16.092V15.492ZM75.1044 4.944V5.244H75.4044V4.944H75.1044ZM75.1044 4.736H75.4044V4.436H75.1044V4.736ZM72.2724 4.736V4.436H72.0598L71.9894 4.63649L72.2724 4.736ZM69.0884 13.792L68.8158 13.9172L69.1254 14.5912L69.3714 13.8915L69.0884 13.792ZM64.9284 4.736L65.201 4.61077L65.1207 4.436H64.9284V4.736ZM61.7444 4.736V4.436H61.4444V4.736H61.7444ZM61.7444 4.944H61.4444V5.22004L61.7195 5.24296L61.7444 4.944ZM63.5364 6H63.8364V5.91874L63.7954 5.84859L63.5364 6ZM61.2644 15.792V15.492H60.9644V15.792H61.2644ZM61.2644 16H60.9644V16.3H61.2644V16ZM65.7924 16V16.3H66.0924V16H65.7924ZM65.7924 15.792H66.0924V15.492H65.7924V15.792ZM63.7444 6.352L64.0173 6.22756L63.4444 6.352H63.7444ZM68.2084 16.144L67.9354 16.2684L68.0154 16.444H68.2084V16.144ZM68.4004 16.144V16.444H68.6115L68.6828 16.2452L68.4004 16.144ZM72.2724 5.344H72.5724L71.99 5.24275L72.2724 5.344ZM71.1204 15.792V15.492H70.8204V15.792H71.1204ZM71.1204 16H70.8204V16.3H71.1204V16ZM75.2164 16V16.3H75.5164V16H75.2164ZM75.2164 15.792H75.5164V15.492H75.2164V15.792ZM74.1724 14.128V6.352H73.5724V14.128H74.1724ZM74.1724 6.352C74.1724 5.85402 74.2966 5.59409 74.4396 5.45502C74.5838 5.31468 74.8017 5.244 75.1044 5.244V4.644C74.719 4.644 74.3209 4.73331 74.0212 5.02498C73.7201 5.31791 73.5724 5.76198 73.5724 6.352H74.1724ZM75.4044 4.944V4.736H74.8044V4.944H75.4044ZM75.1044 4.436H72.2724V5.036H75.1044V4.436ZM71.9894 4.63649L68.8054 13.6925L69.3714 13.8915L72.5554 4.83551L71.9894 4.63649ZM69.361 13.6668L65.201 4.61077L64.6558 4.86123L68.8158 13.9172L69.361 13.6668ZM64.9284 4.436H61.7444V5.036H64.9284V4.436ZM61.4444 4.736V4.944H62.0444V4.736H61.4444ZM61.7195 5.24296C61.9315 5.26063 62.1727 5.26329 62.4447 5.37242C62.7046 5.47673 63.0058 5.68684 63.2774 6.15141L63.7954 5.84859C63.459 5.27316 63.0561 4.97127 62.6681 4.81558C62.2921 4.66471 61.9412 4.65937 61.7693 4.64504L61.7195 5.24296ZM63.2364 6V12.016H63.8364V6H63.2364ZM63.2364 12.016C63.2364 12.9157 63.1626 13.8041 62.8704 14.4599C62.7267 14.7821 62.5356 15.0358 62.2851 15.2099C62.0365 15.3828 61.7085 15.492 61.2644 15.492V16.092C61.8123 16.092 62.2642 15.9552 62.6276 15.7026C62.9892 15.4512 63.242 15.0999 63.4184 14.7041C63.7661 13.9239 63.8364 12.9243 63.8364 12.016H63.2364ZM60.9644 15.792V16H61.5644V15.792H60.9644ZM61.2644 16.3H65.7924V15.7H61.2644V16.3ZM66.0924 16V15.792H65.4924V16H66.0924ZM65.7924 15.492C65.406 15.492 65.1216 15.3889 64.9045 15.2241C64.6839 15.0566 64.5114 14.8088 64.3802 14.4868C64.114 13.8332 64.0444 12.9406 64.0444 12.016H63.4444C63.4444 12.9474 63.5108 13.9428 63.8245 14.7132C63.9834 15.1032 64.2118 15.4514 64.5417 15.7019C64.8751 15.9551 65.2908 16.092 65.7924 16.092V15.492ZM64.0444 12.016V6.352H63.4444V12.016H64.0444ZM63.4714 6.47644L67.9354 16.2684L68.4813 16.0196L64.0173 6.22756L63.4714 6.47644ZM68.2084 16.444H68.4004V15.844H68.2084V16.444ZM68.6828 16.2452L72.5548 5.44525L71.99 5.24275L68.118 16.0428L68.6828 16.2452ZM71.9724 5.344V14.128H72.5724V5.344H71.9724ZM71.9724 14.128C71.9724 14.7494 71.8553 15.0827 71.7145 15.2581C71.5861 15.4179 71.4003 15.492 71.1204 15.492V16.092C71.5125 16.092 71.9026 15.9821 72.1823 15.6339C72.4494 15.3013 72.5724 14.8026 72.5724 14.128H71.9724ZM70.8204 15.792V16H71.4204V15.792H70.8204ZM71.1204 16.3H75.2164V15.7H71.1204V16.3ZM75.5164 16V15.792H74.9164V16H75.5164ZM75.2164 15.492C74.9231 15.492 74.6759 15.4141 74.5002 15.2356C74.3241 15.0566 74.1724 14.7286 74.1724 14.128H73.5724C73.5724 14.8234 73.7487 15.3274 74.0726 15.6564C74.3968 15.9859 74.8216 16.092 75.2164 16.092V15.492ZM87.6699 4.944V5.244H87.9699V4.944H87.6699ZM87.6699 4.736H87.9699V4.436H87.6699V4.736ZM83.5099 4.736V4.436H83.2099V4.736H83.5099ZM83.5099 4.944H83.2099V5.244H83.5099V4.944ZM80.8699 4.944V5.244H81.1699V4.944H80.8699ZM80.8699 4.736H81.1699V4.436H80.8699V4.736ZM76.8859 4.736V4.436H76.5859V4.736H76.8859ZM76.8859 4.944H76.5859V5.244H76.8859V4.944ZM81.7339 16.444C82.7671 16.444 83.8158 16.1672 84.6111 15.4858C85.4144 14.7976 85.9219 13.7283 85.9219 12.224H85.3219C85.3219 13.5837 84.8694 14.4744 84.2207 15.0302C83.5639 15.5928 82.6687 15.844 81.7339 15.844V16.444ZM85.9219 12.224V7.872H85.3219V12.224H85.9219ZM85.9219 7.872C85.9219 7.49069 85.9191 7.13432 85.9461 6.80448C85.9731 6.47503 86.0284 6.19565 86.1325 5.96927C86.2334 5.74971 86.3813 5.57666 86.6084 5.45387C86.8412 5.32794 87.1775 5.244 87.6699 5.244V4.644C87.1142 4.644 86.6706 4.73805 86.3229 4.92613C85.9694 5.11733 85.7364 5.39429 85.5873 5.71873C85.4413 6.03635 85.3776 6.39497 85.3481 6.75552C85.3186 7.11568 85.3219 7.50131 85.3219 7.872H85.9219ZM87.9699 4.944V4.736H87.3699V4.944H87.9699ZM87.6699 4.436H83.5099V5.036H87.6699V4.436ZM83.2099 4.736V4.944H83.8099V4.736H83.2099ZM83.5099 5.244C83.9411 5.244 84.2372 5.32606 84.4447 5.44842C84.6487 5.5687 84.7898 5.74127 84.8898 5.96593C85.1007 6.44012 85.1139 7.10169 85.1139 7.872H85.7139C85.7139 7.1383 85.711 6.33588 85.438 5.72206C85.2959 5.40272 85.078 5.1253 84.7495 4.93158C84.4245 4.73994 84.0147 4.644 83.5099 4.644V5.244ZM85.1139 7.872V12.224H85.7139V7.872H85.1139ZM85.1139 12.224C85.1139 13.1939 84.818 13.9143 84.3614 14.3903C83.9049 14.8661 83.2627 15.124 82.5179 15.124V15.724C83.405 15.724 84.2109 15.4139 84.7944 14.8057C85.3777 14.1977 85.7139 13.3181 85.7139 12.224H85.1139ZM82.5179 15.124C81.7211 15.124 81.0763 14.8636 80.63 14.4C80.183 13.9355 79.9059 13.2362 79.9059 12.304H79.3059C79.3059 13.3558 79.6207 14.2165 80.1977 14.816C80.7755 15.4164 81.5867 15.724 82.5179 15.724V15.124ZM79.9059 12.304V6.352H79.3059V12.304H79.9059ZM79.9059 6.352C79.9059 5.75501 80.0431 5.5131 80.1733 5.40332C80.3138 5.28478 80.5298 5.244 80.8699 5.244V4.644C80.522 4.644 80.1059 4.67522 79.7864 4.94468C79.4566 5.2229 79.3059 5.68499 79.3059 6.352H79.9059ZM81.1699 4.944V4.736H80.5699V4.944H81.1699ZM80.8699 4.436H76.8859V5.036H80.8699V4.436ZM76.5859 4.736V4.944H77.1859V4.736H76.5859ZM76.8859 5.244C77.2012 5.244 77.3839 5.31268 77.4976 5.43566C77.6177 5.56555 77.7219 5.82094 77.7219 6.336H78.3219C78.3219 5.76306 78.2101 5.32245 77.9382 5.02834C77.6599 4.72732 77.2745 4.644 76.8859 4.644V5.244ZM77.7219 6.336V12.16H78.3219V6.336H77.7219ZM77.7219 12.16C77.7219 13.5281 78.1514 14.6056 78.8854 15.3418C79.6184 16.077 80.6273 16.444 81.7339 16.444V15.844C80.7604 15.844 79.9134 15.523 79.3103 14.9182C78.7083 14.3144 78.3219 13.3999 78.3219 12.16H77.7219ZM97.011 4.736V4.436H96.711V4.736H97.011ZM97.011 4.928H96.711V5.228H97.011V4.928ZM99.107 13.664L98.8698 13.8477L99.407 14.5416V13.664H99.107ZM92.195 4.736L92.4322 4.55235L92.3421 4.436H92.195V4.736ZM89.235 4.736V4.436H88.935V4.736H89.235ZM89.235 4.928H88.935V5.20581L89.212 5.22712L89.235 4.928ZM91.139 6.144L91.3763 5.96041L91.3733 5.95659L91.139 6.144ZM91.795 6.992H92.095V6.88951L92.0323 6.80844L91.795 6.992ZM89.475 15.792V15.492H89.175V15.792H89.475ZM89.475 16H89.175V16.3H89.475V16ZM94.099 16V16.3H94.399V16H94.099ZM94.099 15.792H94.399V15.492H94.099V15.792ZM92.003 7.232L92.2401 7.04815L91.703 6.35565V7.232H92.003ZM98.803 16L98.5659 16.1839L98.656 16.3H98.803V16ZM99.315 16V16.3H99.615V16H99.315ZM101.587 4.928V5.228H101.887V4.928H101.587ZM101.587 4.736H101.887V4.436H101.587V4.736ZM96.711 4.736V4.928H97.311V4.736H96.711ZM97.011 5.228C97.481 5.228 97.8064 5.35471 98.0407 5.54441C98.279 5.73737 98.4489 6.01652 98.5671 6.36288C98.8078 7.06848 98.807 7.96233 98.807 8.72H99.407C99.407 7.98967 99.4142 6.98752 99.1349 6.16912C98.9931 5.75347 98.771 5.36363 98.4183 5.07809C98.0616 4.78929 97.597 4.628 97.011 4.628V5.228ZM98.807 8.72V13.664H99.407V8.72H98.807ZM99.3442 13.4803L92.4322 4.55235L91.9578 4.91965L98.8698 13.8477L99.3442 13.4803ZM92.195 4.436H89.235V5.036H92.195V4.436ZM88.935 4.736V4.928H89.535V4.736H88.935ZM89.212 5.22712C89.4537 5.24571 89.5985 5.22937 89.8307 5.3392C90.0675 5.45119 90.4055 5.70732 90.9047 6.33141L91.3733 5.95659C90.8485 5.30068 90.4425 4.96481 90.0873 4.7968C89.7275 4.62663 89.4323 4.64229 89.258 4.62888L89.212 5.22712ZM90.9017 6.32756L91.5577 7.17556L92.0323 6.80844L91.3763 5.96044L90.9017 6.32756ZM91.495 6.992V12H92.095V6.992H91.495ZM91.495 12C91.495 12.7324 91.4915 13.6226 91.2243 14.33C91.0935 14.6765 90.9052 14.9617 90.637 15.1614C90.3712 15.3594 90.002 15.492 89.475 15.492V16.092C90.108 16.092 90.6088 15.9306 90.9955 15.6426C91.3798 15.3563 91.6265 14.9635 91.7857 14.542C92.0985 13.7134 92.095 12.7076 92.095 12H91.495ZM89.175 15.792V16H89.775V15.792H89.175ZM89.475 16.3H94.099V15.7H89.475V16.3ZM94.399 16V15.792H93.799V16H94.399ZM94.099 15.492C93.6361 15.492 93.3135 15.3621 93.0792 15.167C92.8402 14.9679 92.6688 14.6804 92.5491 14.3276C92.3059 13.611 92.303 12.7151 92.303 12H91.703C91.703 12.6929 91.7001 13.693 91.9809 14.5204C92.1232 14.9396 92.3448 15.3361 92.6953 15.628C93.0505 15.9239 93.5139 16.092 94.099 16.092V15.492ZM92.303 12V7.232H91.703V12H92.303ZM91.7659 7.41585L98.5659 16.1839L99.0401 15.8161L92.2401 7.04815L91.7659 7.41585ZM98.803 16.3H99.315V15.7H98.803V16.3ZM99.615 16V8.72H99.015V16H99.615ZM99.615 8.72C99.615 7.95879 99.6068 7.0705 99.8628 6.36882C99.9878 6.02624 100.17 5.74705 100.432 5.55199C100.693 5.35831 101.058 5.228 101.587 5.228V4.628C100.955 4.628 100.457 4.78569 100.074 5.07051C99.6931 5.35394 99.4522 5.74376 99.2992 6.16318C98.9992 6.9855 99.015 7.99321 99.015 8.72H99.615ZM101.887 4.928V4.736H101.287V4.928H101.887ZM101.587 4.436H97.011V5.036H101.587V4.436ZM103.853 4.736V4.436H103.553V4.736H103.853ZM103.853 4.944H103.553V5.244H103.853V4.944ZM103.853 15.792V15.492H103.553V15.792H103.853ZM103.853 16H103.553V16.3H103.853V16ZM107.741 16V16.3H108.041V16H107.741ZM107.741 15.792H108.041V15.492H107.741V15.792ZM107.741 4.944V5.244H108.041V4.944H107.741ZM107.741 4.736H108.041V4.436H107.741V4.736ZM103.553 4.736V4.944H104.153V4.736H103.553ZM103.853 5.244C104.176 5.244 104.357 5.30816 104.465 5.41613C104.574 5.52535 104.673 5.74394 104.673 6.208H105.273C105.273 5.68006 105.164 5.26664 104.889 4.99187C104.613 4.71584 104.234 4.644 103.853 4.644V5.244ZM104.673 6.208V14.288H105.273V6.208H104.673ZM104.673 14.288C104.673 14.8006 104.57 15.0959 104.438 15.2594C104.316 15.4101 104.134 15.492 103.853 15.492V16.092C104.261 16.092 104.638 15.9659 104.905 15.6366C105.16 15.3201 105.273 14.8634 105.273 14.288H104.673ZM103.553 15.792V16H104.153V15.792H103.553ZM103.853 16.3H107.741V15.7H103.853V16.3ZM108.041 16V15.792H107.441V16H108.041ZM107.741 15.492C107.47 15.492 107.286 15.4111 107.162 15.2582C107.027 15.094 106.921 14.7983 106.921 14.288H106.321C106.321 14.8657 106.439 15.322 106.697 15.6378C106.964 15.9649 107.34 16.092 107.741 16.092V15.492ZM106.921 14.288V6.208H106.321V14.288H106.921ZM106.921 6.208C106.921 5.74677 107.023 5.52746 107.134 5.41723C107.245 5.30745 107.428 5.244 107.741 5.244V4.644C107.367 4.644 106.989 4.71655 106.712 4.99077C106.436 5.26454 106.321 5.67723 106.321 6.208H106.921ZM108.041 4.944V4.736H107.441V4.944H108.041ZM107.741 4.436H103.853V5.036H107.741V4.436ZM119.209 12.688V12.388H118.934L118.91 12.6624L119.209 12.688ZM119.209 8.048L118.913 8.09819L118.956 8.348H119.209V8.048ZM119.417 8.048V8.348H119.695L119.716 8.07116L119.417 8.048ZM119.609 5.568L119.908 5.59116L119.921 5.434L119.798 5.33483L119.609 5.568ZM119.609 15.152L119.775 15.4021L119.922 15.3047L119.908 15.1287L119.609 15.152ZM119.417 12.688L119.716 12.6647L119.695 12.388H119.417V12.688ZM118.91 12.6624C118.814 13.7928 118.317 14.5271 117.709 14.9842C117.092 15.448 116.345 15.636 115.753 15.636V16.236C116.457 16.236 117.335 16.016 118.069 15.4638C118.813 14.9049 119.397 14.0152 119.508 12.7136L118.91 12.6624ZM115.753 15.636C114.984 15.636 114.214 15.4805 113.622 14.7976C113.018 14.1006 112.549 12.7971 112.549 10.368H111.949C111.949 12.8509 112.424 14.3314 113.169 15.1904C113.925 16.0635 114.906 16.236 115.753 16.236V15.636ZM112.549 10.368C112.549 7.97881 113.006 6.6736 113.606 5.96599C114.193 5.27313 114.965 5.1 115.753 5.1V4.5C114.878 4.5 113.897 4.69487 113.148 5.57801C112.412 6.4464 111.949 7.92519 111.949 10.368H112.549ZM115.753 5.1C116.358 5.1 117.04 5.24204 117.62 5.67445C118.194 6.10254 118.7 6.84031 118.913 8.09819L119.505 7.99781C119.27 6.61569 118.697 5.72945 117.979 5.19355C117.266 4.66196 116.445 4.5 115.753 4.5V5.1ZM119.209 8.348H119.417V7.748H119.209V8.348ZM119.716 8.07116L119.908 5.59116L119.31 5.54484L119.118 8.02484L119.716 8.07116ZM119.798 5.33483C118.704 4.44918 117.411 4.292 115.753 4.292V4.892C117.392 4.892 118.499 5.05482 119.42 5.80117L119.798 5.33483ZM115.753 4.292C114.03 4.292 112.56 4.85944 111.521 5.92003C110.482 6.98031 109.901 8.50504 109.901 10.368H110.501C110.501 8.63096 111.04 7.26769 111.95 6.33996C112.858 5.41256 114.164 4.892 115.753 4.892V4.292ZM109.901 10.368C109.901 12.2155 110.482 13.7398 111.521 14.8035C112.559 15.8678 114.029 16.444 115.753 16.444V15.844C114.166 15.844 112.859 15.3162 111.95 14.3845C111.04 13.4522 110.501 12.0885 110.501 10.368H109.901ZM115.753 16.444C116.619 16.444 117.315 16.3917 117.952 16.2331C118.593 16.0734 119.16 15.8095 119.775 15.4021L119.444 14.9019C118.875 15.2785 118.37 15.5106 117.807 15.6509C117.239 15.7923 116.599 15.844 115.753 15.844V16.444ZM119.908 15.1287L119.716 12.6647L119.118 12.7113L119.31 15.1753L119.908 15.1287ZM119.417 12.388H119.209V12.988H119.417V12.388ZM123.745 12.384L123.463 12.2813L123.316 12.684H123.745V12.384ZM125.681 7.072L125.96 6.96189L125.67 6.22644L125.399 6.96927L125.681 7.072ZM127.777 12.384V12.684H128.218L128.056 12.2739L127.777 12.384ZM131.713 15.792H132.013V15.5127L131.734 15.4928L131.713 15.792ZM130.401 14.496L130.122 14.6056L130.124 14.6104L130.401 14.496ZM126.465 4.736L126.742 4.62102L126.665 4.436H126.465V4.736ZM126.289 4.736V4.436H126.08L126.007 4.63263L126.289 4.736ZM123.617 12.016L123.898 12.1217L123.899 12.1194L123.617 12.016ZM121.217 15.792L121.209 15.4921L120.917 15.4998V15.792H121.217ZM121.217 16H120.917V16.3H121.217V16ZM124.785 16V16.3H125.085V16H124.785ZM124.785 15.792H125.085V15.4832L124.776 15.4921L124.785 15.792ZM123.697 12.592V12.292H123.482L123.413 12.4961L123.697 12.592ZM127.841 12.592L128.119 12.48L128.044 12.292H127.841V12.592ZM128.401 13.984L128.123 14.096L128.123 14.098L128.401 13.984ZM128.065 15.792V15.492H127.765V15.792H128.065ZM128.065 16H127.765V16.3H128.065V16ZM131.713 16V16.3H132.013V16H131.713ZM124.027 12.4867L125.963 7.17473L125.399 6.96927L123.463 12.2813L124.027 12.4867ZM125.402 7.18211L127.498 12.4941L128.056 12.2739L125.96 6.96189L125.402 7.18211ZM127.777 12.084H123.745V12.684H127.777V12.084ZM131.734 15.4928C131.495 15.4756 131.394 15.4704 131.271 15.3751C131.13 15.2658 130.939 15.0129 130.678 14.3816L130.124 14.6104C130.391 15.2591 130.632 15.6382 130.903 15.8489C131.192 16.0736 131.483 16.0764 131.692 16.0912L131.734 15.4928ZM130.401 14.496C130.68 14.3864 130.68 14.3864 130.68 14.3864C130.68 14.3863 130.68 14.3863 130.68 14.3862C130.68 14.386 130.68 14.3858 130.68 14.3855C130.68 14.3848 130.679 14.3839 130.679 14.3827C130.678 14.3802 130.676 14.3766 130.674 14.3717C130.671 14.3619 130.665 14.3474 130.657 14.3283C130.642 14.2901 130.62 14.2334 130.591 14.1596C130.533 14.0121 130.448 13.7961 130.339 13.5222C130.123 12.9744 129.814 12.1951 129.444 11.2687C128.703 9.41606 127.719 6.97472 126.742 4.62102L126.188 4.85098C127.163 7.20128 128.147 9.63994 128.886 11.4913C129.256 12.4169 129.565 13.1956 129.782 13.7428C129.89 14.0164 129.975 14.2322 130.033 14.3795C130.062 14.4531 130.084 14.5097 130.099 14.5478C130.107 14.5669 130.112 14.5813 130.116 14.591C130.118 14.5959 130.119 14.5995 130.12 14.6019C130.121 14.6032 130.121 14.6041 130.121 14.6047C130.121 14.605 130.122 14.6052 130.122 14.6054C130.122 14.6054 130.122 14.6055 130.122 14.6055C130.122 14.6056 130.122 14.6056 130.401 14.496ZM126.465 4.436H126.289V5.036H126.465V4.436ZM126.007 4.63263L123.335 11.9126L123.899 12.1194L126.571 4.83937L126.007 4.63263ZM123.336 11.9103C122.639 13.7621 122.203 14.6648 121.881 15.1072C121.724 15.3223 121.61 15.4047 121.528 15.442C121.444 15.4803 121.361 15.4881 121.209 15.4921L121.225 16.0919C121.377 16.0879 121.572 16.0817 121.777 15.988C121.985 15.8933 122.172 15.7257 122.365 15.4608C122.743 14.9432 123.203 13.9659 123.898 12.1217L123.336 11.9103ZM120.917 15.792V16H121.517V15.792H120.917ZM121.217 16.3H124.785V15.7H121.217V16.3ZM125.085 16V15.792H124.485V16H125.085ZM124.776 15.4921C124.259 15.507 123.969 15.4005 123.806 15.2671C123.65 15.1385 123.564 14.9457 123.544 14.6738C123.524 14.3972 123.574 14.0676 123.663 13.7143C123.751 13.3631 123.872 13.0112 123.981 12.6879L123.413 12.4961C123.306 12.8128 123.177 13.1889 123.081 13.5677C122.986 13.9444 122.918 14.3468 122.946 14.7182C122.974 15.0943 123.102 15.4655 123.426 15.7309C123.743 15.9915 124.199 16.109 124.794 16.0919L124.776 15.4921ZM123.697 12.892H127.841V12.292H123.697V12.892ZM127.563 12.704L128.123 14.096L128.679 13.872L128.119 12.48L127.563 12.704ZM128.123 14.098C128.306 14.5415 128.413 14.9383 128.396 15.2046C128.387 15.331 128.353 15.3919 128.323 15.422C128.295 15.4496 128.229 15.492 128.065 15.492V16.092C128.333 16.092 128.571 16.0204 128.745 15.849C128.916 15.6801 128.981 15.457 128.994 15.2434C129.021 14.8297 128.864 14.3225 128.679 13.87L128.123 14.098ZM127.765 15.792V16H128.365V15.792H127.765ZM128.065 16.3H131.713V15.7H128.065V16.3ZM132.013 16V15.792H131.413V16H132.013ZM132.508 4.736V4.436H132.208V4.736H132.508ZM132.508 7.552H132.208V7.852H132.508V7.552ZM132.716 7.552V7.852H133.008L133.016 7.55945L132.716 7.552ZM136.604 4.944H136.904V4.644H136.604V4.944ZM135.452 15.792V15.492H135.152V15.792H135.452ZM135.452 16H135.152V16.3H135.452V16ZM139.356 16V16.3H139.656V16H139.356ZM139.356 15.792H139.656V15.492H139.356V15.792ZM138.188 4.944V4.644H137.888V4.944H138.188ZM142.092 7.552L141.792 7.55945L141.799 7.852H142.092V7.552ZM142.3 7.552V7.852H142.6V7.552H142.3ZM142.3 4.736H142.6V4.436H142.3V4.736ZM132.208 4.736V7.552H132.808V4.736H132.208ZM132.508 7.852H132.716V7.252H132.508V7.852ZM133.016 7.55945C133.03 6.96329 133.178 6.53462 133.384 6.22261C133.589 5.90989 133.864 5.69688 134.159 5.55081C134.758 5.25389 135.417 5.244 135.66 5.244V4.644C135.406 4.644 134.625 4.65011 133.893 5.01319C133.521 5.19712 133.157 5.47511 132.882 5.89289C132.607 6.31138 132.433 6.85271 132.416 7.54455L133.016 7.55945ZM135.66 5.244H136.604V4.644H135.66V5.244ZM136.304 4.944V14.448H136.904V4.944H136.304ZM136.304 14.448C136.304 14.9377 136.192 15.1798 136.068 15.3039C135.945 15.427 135.752 15.492 135.452 15.492V16.092C135.824 16.092 136.207 16.013 136.492 15.7281C136.776 15.4442 136.904 15.0143 136.904 14.448H136.304ZM135.152 15.792V16H135.752V15.792H135.152ZM135.452 16.3H139.356V15.7H135.452V16.3ZM139.656 16V15.792H139.056V16H139.656ZM139.356 15.492C139.056 15.492 138.857 15.4269 138.73 15.3018C138.603 15.1771 138.488 14.9352 138.488 14.448H137.888C137.888 15.0168 138.021 15.4469 138.31 15.7302C138.598 16.0131 138.984 16.092 139.356 16.092V15.492ZM138.488 14.448V4.944H137.888V14.448H138.488ZM138.188 5.244H139.132V4.644H138.188V5.244ZM139.132 5.244C139.232 5.244 139.902 5.25227 140.544 5.55364C140.862 5.70251 141.164 5.91876 141.39 6.23305C141.615 6.54496 141.777 6.97022 141.792 7.55945L142.392 7.54455C142.374 6.84578 142.179 6.30104 141.877 5.88245C141.578 5.46624 141.185 5.19149 140.799 5.01036C140.034 4.65173 139.256 4.644 139.132 4.644V5.244ZM142.092 7.852H142.3V7.252H142.092V7.852ZM142.6 7.552V4.736H142V7.552H142.6ZM142.3 4.436H132.508V5.036H142.3V4.436ZM144.513 4.736V4.436H144.213V4.736H144.513ZM144.513 4.944H144.213V5.244H144.513V4.944ZM144.513 15.792V15.492H144.213V15.792H144.513ZM144.513 16H144.213V16.3H144.513V16ZM148.401 16V16.3H148.701V16H148.401ZM148.401 15.792H148.701V15.492H148.401V15.792ZM148.401 4.944V5.244H148.701V4.944H148.401ZM148.401 4.736H148.701V4.436H148.401V4.736ZM144.213 4.736V4.944H144.813V4.736H144.213ZM144.513 5.244C144.836 5.244 145.017 5.30816 145.125 5.41613C145.234 5.52535 145.333 5.74394 145.333 6.208H145.933C145.933 5.68006 145.824 5.26664 145.549 4.99187C145.273 4.71584 144.894 4.644 144.513 4.644V5.244ZM145.333 6.208V14.288H145.933V6.208H145.333ZM145.333 14.288C145.333 14.8006 145.23 15.0959 145.098 15.2594C144.976 15.4101 144.794 15.492 144.513 15.492V16.092C144.921 16.092 145.298 15.9659 145.565 15.6366C145.82 15.3201 145.933 14.8634 145.933 14.288H145.333ZM144.213 15.792V16H144.813V15.792H144.213ZM144.513 16.3H148.401V15.7H144.513V16.3ZM148.701 16V15.792H148.101V16H148.701ZM148.401 15.492C148.13 15.492 147.946 15.4111 147.822 15.2582C147.687 15.094 147.581 14.7983 147.581 14.288H146.981C146.981 14.8657 147.099 15.322 147.357 15.6378C147.624 15.9649 148 16.092 148.401 16.092V15.492ZM147.581 14.288V6.208H146.981V14.288H147.581ZM147.581 6.208C147.581 5.74677 147.683 5.52746 147.794 5.41723C147.905 5.30745 148.088 5.244 148.401 5.244V4.644C148.027 4.644 147.649 4.71655 147.372 4.99077C147.096 5.26454 146.981 5.67723 146.981 6.208H147.581ZM148.701 4.944V4.736H148.101V4.944H148.701ZM148.401 4.436H144.513V5.036H148.401V4.436ZM159.121 10.448C159.121 12.6269 158.758 13.9205 158.215 14.6651C157.688 15.3866 156.958 15.636 156.077 15.636V16.236C157.084 16.236 158.026 15.9414 158.7 15.0189C159.356 14.1195 159.721 12.6691 159.721 10.448H159.121ZM156.077 15.636C155.188 15.636 154.454 15.3861 153.925 14.6647C153.38 13.9203 153.017 12.6269 153.017 10.448H152.417C152.417 12.6691 152.782 14.1197 153.441 15.0193C154.117 15.9419 155.063 16.236 156.077 16.236V15.636ZM153.017 10.448C153.017 8.27859 153.379 6.94073 153.929 6.1515C154.464 5.38491 155.201 5.1 156.077 5.1V4.5C155.05 4.5 154.107 4.84709 153.437 5.8085C152.783 6.74727 152.417 8.23341 152.417 10.448H153.017ZM156.077 5.1C156.945 5.1 157.678 5.38432 158.211 6.15112C158.759 6.94053 159.121 8.27867 159.121 10.448H159.721C159.721 8.23333 159.355 6.74747 158.704 5.80888C158.036 4.84768 157.098 4.5 156.077 4.5V5.1ZM161.577 10.448C161.577 8.81501 161.145 7.27856 160.231 6.14384C159.31 5.0005 157.922 4.292 156.077 4.292V4.892C157.753 4.892 158.964 5.5275 159.764 6.52015C160.57 7.52144 160.977 8.91299 160.977 10.448H161.577ZM156.077 4.292C154.233 4.292 152.844 5.0005 151.924 6.14384C151.01 7.27856 150.577 8.81501 150.577 10.448H151.177C151.177 8.91299 151.585 7.52144 152.391 6.52015C153.19 5.5275 154.402 4.892 156.077 4.892V4.292ZM150.577 10.448C150.577 12.0891 151.01 13.5883 151.927 14.6827C152.851 15.7848 154.24 16.444 156.077 16.444V15.844C154.395 15.844 153.183 15.2472 152.387 14.2973C151.585 13.3397 151.177 11.9909 151.177 10.448H150.577ZM156.077 16.444C157.915 16.444 159.303 15.7848 160.227 14.6827C161.145 13.5883 161.577 12.0891 161.577 10.448H160.977C160.977 11.9909 160.57 13.3397 159.767 14.2973C158.971 15.2472 157.76 15.844 156.077 15.844V16.444ZM171.01 4.736V4.436H170.71V4.736H171.01ZM171.01 4.928H170.71V5.228H171.01V4.928ZM173.106 13.664L172.869 13.8477L173.406 14.5416V13.664H173.106ZM166.194 4.736L166.431 4.55235L166.341 4.436H166.194V4.736ZM163.234 4.736V4.436H162.934V4.736H163.234ZM163.234 4.928H162.934V5.20581L163.211 5.22712L163.234 4.928ZM165.138 6.144L165.375 5.96041L165.372 5.95659L165.138 6.144ZM165.794 6.992H166.094V6.88951L166.031 6.80844L165.794 6.992ZM163.474 15.792V15.492H163.174V15.792H163.474ZM163.474 16H163.174V16.3H163.474V16ZM168.098 16V16.3H168.398V16H168.098ZM168.098 15.792H168.398V15.492H168.098V15.792ZM166.002 7.232L166.239 7.04815L165.702 6.35565V7.232H166.002ZM172.802 16L172.565 16.1839L172.655 16.3H172.802V16ZM173.314 16V16.3H173.614V16H173.314ZM175.586 4.928V5.228H175.886V4.928H175.586ZM175.586 4.736H175.886V4.436H175.586V4.736ZM170.71 4.736V4.928H171.31V4.736H170.71ZM171.01 5.228C171.48 5.228 171.805 5.35471 172.039 5.54441C172.278 5.73737 172.448 6.01652 172.566 6.36288C172.807 7.06848 172.806 7.96233 172.806 8.72H173.406C173.406 7.98967 173.413 6.98752 173.134 6.16912C172.992 5.75347 172.77 5.36363 172.417 5.07809C172.06 4.78929 171.596 4.628 171.01 4.628V5.228ZM172.806 8.72V13.664H173.406V8.72H172.806ZM173.343 13.4803L166.431 4.55235L165.957 4.91965L172.869 13.8477L173.343 13.4803ZM166.194 4.436H163.234V5.036H166.194V4.436ZM162.934 4.736V4.928H163.534V4.736H162.934ZM163.211 5.22712C163.452 5.24571 163.597 5.22937 163.829 5.3392C164.066 5.45119 164.404 5.70732 164.903 6.33141L165.372 5.95659C164.847 5.30068 164.441 4.96481 164.086 4.7968C163.726 4.62663 163.431 4.64229 163.257 4.62888L163.211 5.22712ZM164.9 6.32756L165.556 7.17556L166.031 6.80844L165.375 5.96044L164.9 6.32756ZM165.494 6.992V12H166.094V6.992H165.494ZM165.494 12C165.494 12.7324 165.49 13.6226 165.223 14.33C165.092 14.6765 164.904 14.9617 164.636 15.1614C164.37 15.3594 164.001 15.492 163.474 15.492V16.092C164.107 16.092 164.608 15.9306 164.994 15.6426C165.379 15.3563 165.625 14.9635 165.784 14.542C166.097 13.7134 166.094 12.7076 166.094 12H165.494ZM163.174 15.792V16H163.774V15.792H163.174ZM163.474 16.3H168.098V15.7H163.474V16.3ZM168.398 16V15.792H167.798V16H168.398ZM168.098 15.492C167.635 15.492 167.312 15.3621 167.078 15.167C166.839 14.9679 166.668 14.6804 166.548 14.3276C166.305 13.611 166.302 12.7151 166.302 12H165.702C165.702 12.6929 165.699 13.693 165.98 14.5204C166.122 14.9396 166.344 15.3361 166.694 15.628C167.049 15.9239 167.513 16.092 168.098 16.092V15.492ZM166.302 12V7.232H165.702V12H166.302ZM165.765 7.41585L172.565 16.1839L173.039 15.8161L166.239 7.04815L165.765 7.41585ZM172.802 16.3H173.314V15.7H172.802V16.3ZM173.614 16V8.72H173.014V16H173.614ZM173.614 8.72C173.614 7.95879 173.606 7.0705 173.862 6.36882C173.987 6.02624 174.169 5.74705 174.431 5.55199C174.691 5.35831 175.057 5.228 175.586 5.228V4.628C174.954 4.628 174.456 4.78569 174.073 5.07051C173.692 5.35394 173.451 5.74376 173.298 6.16318C172.998 6.9855 173.014 7.99321 173.014 8.72H173.614ZM175.886 4.928V4.736H175.286V4.928H175.886ZM175.586 4.436H171.01V5.036H175.586V4.436Z" fill="black"/>
<circle cx="5" cy="11" r="5" fill="#181818"/>
<path d="M194.188 15.8125V5.72917M194.188 5.72917H184.563M194.188 5.72917L182.729 17.1875" stroke="#1A1A1A" stroke-width="2"/>
</svg>
