<svg width="420" height="460" viewBox="0 0 420 460" fill="none" xmlns="http://www.w3.org/2000/svg">
<rect width="420" height="460" fill="#F5F3ED"/>
<path d="M57.388 93.378C52.96 93.378 49.324 92.334 46.48 90.246C43.636 88.122 42.106 85.098 41.89 81.174H53.176C53.284 82.506 53.68 83.478 54.364 84.09C55.048 84.702 55.93 85.008 57.01 85.008C57.982 85.008 58.774 84.774 59.386 84.306C60.034 83.802 60.358 83.118 60.358 82.254C60.358 81.138 59.836 80.274 58.792 79.662C57.748 79.05 56.056 78.366 53.716 77.61C51.232 76.782 49.216 75.99 47.668 75.234C46.156 74.442 44.824 73.308 43.672 71.832C42.556 70.32 41.998 68.358 41.998 65.946C41.998 63.498 42.61 61.41 43.834 59.682C45.058 57.918 46.75 56.586 48.91 55.686C51.07 54.786 53.518 54.336 56.254 54.336C60.682 54.336 64.21 55.38 66.838 57.468C69.502 59.52 70.924 62.418 71.104 66.162H59.602C59.566 65.01 59.206 64.146 58.522 63.57C57.874 62.994 57.028 62.706 55.984 62.706C55.192 62.706 54.544 62.94 54.04 63.408C53.536 63.876 53.284 64.542 53.284 65.406C53.284 66.126 53.554 66.756 54.094 67.296C54.67 67.8 55.372 68.25 56.2 68.646C57.028 69.006 58.252 69.474 59.872 70.05C62.284 70.878 64.264 71.706 65.812 72.534C67.396 73.326 68.746 74.46 69.862 75.936C71.014 77.376 71.59 79.212 71.59 81.444C71.59 83.712 71.014 85.746 69.862 87.546C68.746 89.346 67.108 90.768 64.948 91.812C62.824 92.856 60.304 93.378 57.388 93.378ZM81.9643 73.884C81.9643 70.14 82.7383 66.81 84.2863 63.894C85.8703 60.942 88.1023 58.656 90.9823 57.036C93.8623 55.38 97.1743 54.552 100.918 54.552C105.67 54.552 109.666 55.83 112.906 58.386C116.146 60.906 118.234 64.344 119.17 68.7H107.776C107.092 67.26 106.138 66.162 104.914 65.406C103.726 64.65 102.34 64.272 100.756 64.272C98.3083 64.272 96.3463 65.154 94.8703 66.918C93.4303 68.646 92.7103 70.968 92.7103 73.884C92.7103 76.836 93.4303 79.194 94.8703 80.958C96.3463 82.686 98.3083 83.55 100.756 83.55C102.34 83.55 103.726 83.172 104.914 82.416C106.138 81.66 107.092 80.562 107.776 79.122H119.17C118.234 83.478 116.146 86.934 112.906 89.49C109.666 92.01 105.67 93.27 100.918 93.27C97.1743 93.27 93.8623 92.46 90.9823 90.84C88.1023 89.184 85.8703 86.898 84.2863 83.982C82.7383 81.03 81.9643 77.664 81.9643 73.884ZM150.21 93L142.65 78.96H141.516V93H130.932V54.93L147.618 54.93C150.678 54.93 153.27 55.47 155.394 56.55C157.518 57.594 159.12 59.052 160.2 60.924C161.28 62.76 161.82 64.83 161.82 67.134C161.82 69.726 161.1 72.012 159.66 73.992C158.256 75.936 156.186 77.322 153.45 78.15L162.036 93H150.21ZM141.516 71.724H146.754C148.194 71.724 149.274 71.382 149.994 70.698C150.714 70.014 151.074 69.024 151.074 67.728C151.074 66.504 150.696 65.55 149.94 64.866C149.22 64.146 148.158 63.786 146.754 63.786H141.516V71.724ZM191.635 93.378C188.071 93.378 184.795 92.55 181.807 90.894C178.819 89.202 176.443 86.88 174.679 83.928C172.951 80.94 172.087 77.574 172.087 73.83C172.087 70.086 172.951 66.738 174.679 63.786C176.443 60.798 178.819 58.476 181.807 56.82C184.795 55.164 188.071 54.336 191.635 54.336C195.235 54.336 198.511 55.164 201.463 56.82C204.451 58.476 206.809 60.798 208.537 63.786C210.265 66.738 211.129 70.086 211.129 73.83C211.129 77.574 210.265 80.94 208.537 83.928C206.809 86.88 204.451 89.202 201.463 90.894C198.475 92.55 195.199 93.378 191.635 93.378ZM191.635 83.55C194.335 83.55 196.459 82.668 198.007 80.904C199.591 79.14 200.383 76.782 200.383 73.83C200.383 70.806 199.591 68.43 198.007 66.702C196.459 64.938 194.335 64.056 191.635 64.056C188.899 64.056 186.757 64.938 185.209 66.702C183.661 68.43 182.887 70.806 182.887 73.83C182.887 76.818 183.661 79.194 185.209 80.958C186.757 82.686 188.899 83.55 191.635 83.55ZM233.221 84.9H245.047V93H222.637V54.93H233.221V84.9ZM266.497 84.9H278.323V93H255.913V54.93H266.497V84.9Z" fill="#1C1C1A"/>
<path d="M189.566 117.36L189.328 117.8L189.334 117.803L189.566 117.36ZM196.532 124.056L196.968 123.811L196.968 123.811L196.532 124.056ZM196.478 143.766L196.045 143.517L196.042 143.521L196.478 143.766ZM189.512 150.57L189.75 151.01L189.752 151.009L189.512 150.57ZM164.024 153H163.524V153.5H164.024V153ZM164.024 114.93V114.43H163.524V114.93H164.024ZM185.57 126.702L185.22 127.059L185.224 127.063L185.57 126.702ZM174.608 124.11V123.61H174.108V124.11H174.608ZM174.608 143.658H174.108V144.158H174.608V143.658ZM179.09 115.43C183.017 115.43 186.425 116.226 189.328 117.8L189.804 116.92C186.731 115.254 183.155 114.43 179.09 114.43V115.43ZM189.334 117.803C192.275 119.344 194.525 121.508 196.096 124.301L196.968 123.811C195.299 120.844 192.905 118.544 189.798 116.917L189.334 117.803ZM196.096 124.301C197.669 127.097 198.462 130.305 198.462 133.938H199.462C199.462 130.155 198.635 126.775 196.968 123.811L196.096 124.301ZM198.462 133.938C198.462 137.532 197.652 140.72 196.045 143.517L196.911 144.015C198.616 141.052 199.462 137.688 199.462 133.938H198.462ZM196.042 143.521C194.47 146.316 192.218 148.518 189.272 150.131L189.752 151.009C192.854 149.31 195.246 146.976 196.914 144.011L196.042 143.521ZM189.274 150.13C186.37 151.705 182.981 152.5 179.09 152.5V153.5C183.119 153.5 186.678 152.675 189.75 151.01L189.274 150.13ZM179.09 152.5H164.024V153.5H179.09V152.5ZM164.524 153V114.93H163.524V153H164.524ZM164.024 115.43H179.09V114.43H164.024V115.43ZM178.28 144.158C181.469 144.158 184.036 143.284 185.916 141.481L185.224 140.759C183.576 142.34 181.283 143.158 178.28 143.158V144.158ZM185.916 141.481C187.803 139.671 188.716 137.132 188.716 133.938H187.716C187.716 136.936 186.865 139.185 185.224 140.759L185.916 141.481ZM188.716 133.938C188.716 130.71 187.804 128.152 185.916 126.341L185.224 127.063C186.864 128.636 187.716 130.902 187.716 133.938H188.716ZM185.92 126.345C184.04 124.503 181.472 123.61 178.28 123.61V124.61C181.28 124.61 183.572 125.445 185.22 127.059L185.92 126.345ZM178.28 123.61H174.608V124.61H178.28V123.61ZM174.108 124.11V143.658H175.108V124.11H174.108ZM174.608 144.158H178.28V143.158H174.608V144.158ZM218.907 150.894L218.661 151.329L218.665 151.331L218.907 150.894ZM211.779 143.928L211.346 144.178L211.35 144.184L211.779 143.928ZM211.779 123.786L211.348 123.532L211.347 123.533L211.779 123.786ZM238.563 116.82L238.318 117.256L238.321 117.257L238.563 116.82ZM245.637 123.786L245.204 124.036L245.205 124.039L245.637 123.786ZM245.637 143.928L246.068 144.181L246.07 144.178L245.637 143.928ZM238.563 150.894L238.805 151.331L238.809 151.329L238.563 150.894ZM235.107 140.904L234.735 140.57L234.731 140.574L235.107 140.904ZM235.107 126.702L234.731 127.032L234.738 127.04L235.107 126.702ZM222.309 126.702L222.681 127.036L222.685 127.032L222.309 126.702ZM222.309 140.958L221.933 141.288L221.937 141.292L222.309 140.958ZM228.735 152.878C225.252 152.878 222.06 152.07 219.149 150.457L218.665 151.331C221.73 153.03 225.09 153.878 228.735 153.878V152.878ZM219.153 150.459C216.241 148.81 213.928 146.549 212.208 143.672L211.35 144.184C213.158 147.211 215.597 149.594 218.661 151.329L219.153 150.459ZM212.212 143.678C210.532 140.772 209.687 137.494 209.687 133.83H208.687C208.687 137.654 209.57 141.108 211.346 144.178L212.212 143.678ZM209.687 133.83C209.687 130.166 210.532 126.907 212.21 124.039L211.347 123.533C209.57 126.569 208.687 130.006 208.687 133.83H209.687ZM212.21 124.04C213.929 121.128 216.241 118.869 219.149 117.257L218.665 116.383C215.597 118.083 213.157 120.468 211.348 123.532L212.21 124.04ZM219.149 117.257C222.06 115.644 225.252 114.836 228.735 114.836V113.836C225.09 113.836 221.73 114.684 218.665 116.383L219.149 117.257ZM228.735 114.836C232.255 114.836 235.446 115.645 238.318 117.256L238.808 116.384C235.776 114.683 232.415 113.836 228.735 113.836V114.836ZM238.321 117.257C241.228 118.869 243.521 121.126 245.204 124.036L246.07 123.536C244.297 120.47 241.873 118.083 238.805 116.383L238.321 117.257ZM245.205 124.039C246.884 126.907 247.729 130.166 247.729 133.83H248.729C248.729 130.006 247.846 126.569 246.068 123.533L245.205 124.039ZM247.729 133.83C247.729 137.494 246.884 140.772 245.204 143.678L246.07 144.178C247.846 141.108 248.729 137.654 248.729 133.83H247.729ZM245.205 143.675C243.522 146.551 241.228 148.81 238.317 150.459L238.809 151.329C241.874 149.594 244.296 147.209 246.068 144.181L245.205 143.675ZM238.321 150.457C235.41 152.07 232.218 152.878 228.735 152.878V153.878C232.38 153.878 235.74 153.03 238.805 151.331L238.321 150.457ZM228.735 144.05C231.555 144.05 233.825 143.123 235.483 141.234L234.731 140.574C233.293 142.213 231.315 143.05 228.735 143.05V144.05ZM235.479 141.238C237.164 139.361 237.983 136.874 237.983 133.83H236.983C236.983 136.69 236.218 138.919 234.735 140.57L235.479 141.238ZM237.983 133.83C237.983 130.718 237.166 128.209 235.476 126.364L234.738 127.04C236.216 128.651 236.983 130.894 236.983 133.83H237.983ZM235.483 126.372C233.825 124.483 231.555 123.556 228.735 123.556V124.556C231.315 124.556 233.293 125.393 234.731 127.032L235.483 126.372ZM228.735 123.556C225.881 123.556 223.592 124.482 221.933 126.372L222.685 127.032C224.122 125.394 226.117 124.556 228.735 124.556V123.556ZM221.937 126.368C220.284 128.213 219.487 130.721 219.487 133.83H220.487C220.487 130.891 221.238 128.647 222.681 127.036L221.937 126.368ZM219.487 133.83C219.487 136.905 220.285 139.41 221.933 141.288L222.685 140.628C221.237 138.978 220.487 136.731 220.487 133.83H219.487ZM221.937 141.292C223.597 143.145 225.885 144.05 228.735 144.05V143.05C226.113 143.05 224.117 142.227 222.681 140.624L221.937 141.292ZM313.359 114.93L313.844 115.049L313.996 114.43H313.359V114.93ZM304.017 153V153.5H304.409L304.502 153.119L304.017 153ZM291.003 153L290.515 153.11L290.603 153.5H291.003V153ZM285.765 129.672L286.253 129.562L285.278 129.56L285.765 129.672ZM280.419 153V153.5H280.817L280.906 153.112L280.419 153ZM267.405 153L266.919 153.118L267.012 153.5H267.405V153ZM258.171 114.93V114.43H257.535L257.685 115.048L258.171 114.93ZM269.619 114.93L270.112 114.846L270.041 114.43H269.619V114.93ZM274.047 140.958L273.554 141.042L274.534 141.07L274.047 140.958ZM280.041 114.93V114.43H279.643L279.554 114.818L280.041 114.93ZM291.651 114.93L292.139 114.82L292.051 114.43H291.651V114.93ZM297.483 140.742L296.995 140.852L297.976 140.827L297.483 140.742ZM301.911 114.93V114.43H301.489L301.418 114.845L301.911 114.93ZM312.873 114.811L303.531 152.881L304.502 153.119L313.844 115.049L312.873 114.811ZM304.017 152.5H291.003V153.5H304.017V152.5ZM291.491 152.89L286.253 129.562L285.277 129.782L290.515 153.11L291.491 152.89ZM285.278 129.56L279.932 152.888L280.906 153.112L286.252 129.784L285.278 129.56ZM280.419 152.5H267.405V153.5H280.419V152.5ZM267.891 152.882L258.657 114.812L257.685 115.048L266.919 153.118L267.891 152.882ZM258.171 115.43H269.619V114.43H258.171V115.43ZM269.126 115.014L273.554 141.042L274.54 140.874L270.112 114.846L269.126 115.014ZM274.534 141.07L280.528 115.042L279.554 114.818L273.56 140.846L274.534 141.07ZM280.041 115.43H291.651V114.43H280.041V115.43ZM291.163 115.04L296.995 140.852L297.971 140.632L292.139 114.82L291.163 115.04ZM297.976 140.827L302.404 115.015L301.418 114.845L296.99 140.657L297.976 140.827ZM301.911 115.43H313.359V114.43H301.911V115.43ZM359.862 153V153.5H360.362V153H359.862ZM349.278 153L348.861 153.276L349.01 153.5H349.278V153ZM335.184 131.724L335.601 131.448L334.684 130.064V131.724H335.184ZM335.184 153V153.5H335.684V153H335.184ZM324.6 153H324.1V153.5H324.6V153ZM324.6 114.93V114.43H324.1V114.93H324.6ZM335.184 114.93L335.603 114.656L335.455 114.43H335.184V114.93ZM349.278 136.476L348.86 136.75L349.778 138.154V136.476H349.278ZM349.278 114.93V114.43H348.778V114.93H349.278ZM359.862 114.93H360.362V114.43H359.862V114.93ZM359.862 152.5H349.278V153.5H359.862V152.5ZM349.695 152.724L335.601 131.448L334.767 132L348.861 153.276L349.695 152.724ZM334.684 131.724V153H335.684V131.724H334.684ZM335.184 152.5H324.6V153.5H335.184V152.5ZM325.1 153V114.93H324.1V153H325.1ZM324.6 115.43H335.184V114.43H324.6V115.43ZM334.766 115.204L348.86 136.75L349.697 136.202L335.603 114.656L334.766 115.204ZM349.778 136.476V114.93H348.778V136.476H349.778ZM349.278 115.43H359.862V114.43H349.278V115.43ZM359.362 114.93V153H360.362V114.93H359.362Z" fill="#F5F3ED"/>
<path fill-rule="evenodd" clip-rule="evenodd" d="M219.149 117.257C222.06 115.644 225.252 114.836 228.735 114.836C232.255 114.836 235.446 115.645 238.318 117.256L238.321 117.257C241.228 118.869 243.521 121.126 245.204 124.036L245.205 124.039C246.884 126.907 247.729 130.166 247.729 133.83C247.729 137.419 246.918 140.639 245.306 143.5H232.157C233.447 143.039 234.559 142.286 235.481 141.236C237.165 139.36 237.983 136.873 237.983 133.83C237.983 130.72 237.168 128.212 235.479 126.368C233.822 124.482 231.553 123.556 228.735 123.556C225.882 123.556 223.594 124.481 221.935 126.37C220.283 128.215 219.487 130.722 219.487 133.83C219.487 136.905 220.285 139.41 221.933 141.288L221.937 141.292C222.852 142.314 223.959 143.047 225.246 143.5H212.11C210.498 140.639 209.687 137.419 209.687 133.83C209.687 130.167 210.531 126.908 212.21 124.04C213.929 121.127 216.241 118.869 219.149 117.257ZM210.972 143.5C209.446 140.602 208.687 137.375 208.687 133.83C208.687 130.006 209.57 126.569 211.347 123.533L211.348 123.532C213.157 120.468 215.597 118.083 218.665 116.383C221.73 114.684 225.09 113.836 228.735 113.836C232.415 113.836 235.775 114.683 238.806 116.383C241.874 118.083 244.297 120.47 246.069 123.535C247.846 126.57 248.729 130.006 248.729 133.83C248.729 137.375 247.97 140.602 246.444 143.5H245.306C245.272 143.559 245.239 143.618 245.205 143.676C243.522 146.551 241.229 148.809 238.319 150.458C235.409 152.07 232.217 152.878 228.735 152.878C225.253 152.878 222.061 152.07 219.151 150.458C216.241 148.809 213.929 146.55 212.21 143.674C212.176 143.616 212.143 143.558 212.11 143.5H210.972ZM197.197 143.5H210.972C211.092 143.728 211.217 143.954 211.346 144.178L211.35 144.184C213.158 147.211 215.597 149.594 218.661 151.329L218.665 151.331C221.73 153.03 225.09 153.878 228.735 153.878C232.38 153.878 235.74 153.03 238.805 151.331L238.809 151.329C241.874 149.594 244.296 147.209 246.068 144.181L246.07 144.178C246.199 143.954 246.324 143.728 246.444 143.5H264.586L266.919 153.118L267.012 153.5H267.405H280.419H280.817L280.906 153.112L283.109 143.5H288.357L290.515 153.109L290.603 153.5H291.003H304.017H304.409L304.502 153.119L306.863 143.5H324.1V153V153.5H324.6H335.184H335.684V153V143.5H342.385L348.861 153.276L349.01 153.5H349.278H359.862H360.362V153V143.5H369V154H131V143.5H163.524V153V153.5H164.024H179.09C183.119 153.5 186.678 152.675 189.75 151.009L189.752 151.008C192.854 149.31 195.245 146.977 196.913 144.013C197.01 143.843 197.105 143.672 197.197 143.5ZM196.054 143.5H197.197C198.71 140.663 199.462 137.472 199.462 133.938C199.462 130.155 198.635 126.774 196.968 123.811C195.299 120.845 192.906 118.546 189.801 116.919C186.729 115.254 183.153 114.43 179.09 114.43H164.024H163.524V114.93V143.5H164.524V152.5H179.09C182.98 152.5 186.369 151.705 189.272 150.131C192.218 148.518 194.47 146.315 196.042 143.521L196.045 143.517C196.048 143.511 196.051 143.506 196.054 143.5ZM182.577 143.5H196.054C197.656 140.708 198.462 137.525 198.462 133.938C198.462 130.305 197.669 127.097 196.096 124.301C194.525 121.508 192.275 119.344 189.334 117.803L189.328 117.8L189.328 117.799C186.425 116.226 183.017 115.43 179.09 115.43H164.524V143.5H174.108V143.658V144.158H174.608H178.28C179.869 144.158 181.304 143.941 182.577 143.5ZM182.577 143.5H174.108V124.11V123.61H174.608H178.28C181.471 123.61 184.039 124.503 185.918 126.343C187.805 128.154 188.716 130.711 188.716 133.938C188.716 137.132 187.803 139.671 185.916 141.481C184.973 142.385 183.857 143.056 182.577 143.5ZM359.362 143.5H360.362V114.93V114.43H359.862H349.278H348.778V114.93V134.798L335.603 114.656L335.455 114.43H335.184H324.6H324.1V114.93V143.5H325.1V152.5H334.684V143.5H335.684V133.384L342.385 143.5H343.585L349.547 152.5H359.362V143.5ZM343.585 143.5H359.362V115.43H349.778V136.476V138.154L348.86 136.75L334.914 115.43H325.1V143.5H334.684V131.724V130.064L335.601 131.448L343.585 143.5ZM305.833 143.5H306.863L313.844 115.049L313.996 114.43H313.359H301.911H301.489L301.418 114.845L297.416 138.176L292.139 114.82L292.051 114.43H291.651H280.041H279.643L279.554 114.818L274.121 138.41L270.112 114.846L270.041 114.43H269.619H258.171H257.535L257.685 115.048L264.586 143.5H265.615L267.798 152.5H280.021L282.083 143.5H283.109L285.76 131.932L288.357 143.5H289.382L291.403 152.5H303.625L305.833 143.5ZM289.382 143.5H305.833L312.721 115.43H302.332L297.976 140.826L296.995 140.852L291.251 115.43H280.439L274.534 141.07L273.554 141.042L269.197 115.43H258.807L265.615 143.5H282.083L285.278 129.56L286.253 129.562L289.382 143.5ZM225.246 143.5C226.292 143.868 227.457 144.05 228.735 144.05C229.985 144.05 231.128 143.868 232.157 143.5H225.246ZM222.685 127.032C224.122 125.394 226.117 124.556 228.735 124.556C231.315 124.556 233.293 125.393 234.731 127.032L234.731 127.032L234.738 127.04C236.216 128.651 236.983 130.894 236.983 133.83C236.983 136.69 236.218 138.919 234.735 140.57L234.731 140.574C233.293 142.213 231.315 143.05 228.735 143.05C226.114 143.05 224.119 142.228 222.683 140.626C221.236 138.976 220.487 136.73 220.487 133.83C220.487 130.891 221.238 128.647 222.681 127.036L222.685 127.032ZM175.108 143.158V124.61H178.28C181.28 124.61 183.572 125.444 185.22 127.059L185.224 127.063C186.864 128.636 187.716 130.902 187.716 133.938C187.716 136.936 186.865 139.185 185.224 140.759C183.576 142.34 181.283 143.158 178.28 143.158H175.108Z" fill="#1C1C1A"/>
<path d="M153.33 193.884C153.33 190.14 154.104 186.81 155.652 183.894C157.236 180.942 159.468 178.656 162.348 177.036C165.228 175.38 168.54 174.552 172.284 174.552C177.036 174.552 181.032 175.83 184.272 178.386C187.512 180.906 189.6 184.344 190.536 188.7H179.142C178.458 187.26 177.504 186.162 176.28 185.406C175.092 184.65 173.706 184.272 172.122 184.272C169.674 184.272 167.712 185.154 166.236 186.918C164.796 188.646 164.076 190.968 164.076 193.884C164.076 196.836 164.796 199.194 166.236 200.958C167.712 202.686 169.674 203.55 172.122 203.55C173.706 203.55 175.092 203.172 176.28 202.416C177.504 201.66 178.458 200.562 179.142 199.122H190.536C189.6 203.478 187.512 206.934 184.272 209.49C181.032 212.01 177.036 213.27 172.284 213.27C168.54 213.27 165.228 212.46 162.348 210.84C159.468 209.184 157.236 206.898 155.652 203.982C154.104 201.03 153.33 197.664 153.33 193.884ZM236.371 174.93V213H225.787V197.718H212.881V213H202.297V174.93H212.881V189.24H225.787V174.93H236.371ZM259.762 183.408V189.618H271.912V197.664H259.762V204.522H273.532V213H249.178V174.93H273.532V183.408H259.762ZM284.216 193.884C284.216 190.14 284.99 186.81 286.538 183.894C288.122 180.942 290.354 178.656 293.234 177.036C296.114 175.38 299.426 174.552 303.17 174.552C307.922 174.552 311.918 175.83 315.158 178.386C318.398 180.906 320.486 184.344 321.422 188.7H310.028C309.344 187.26 308.39 186.162 307.166 185.406C305.978 184.65 304.592 184.272 303.008 184.272C300.56 184.272 298.598 185.154 297.122 186.918C295.682 188.646 294.962 190.968 294.962 193.884C294.962 196.836 295.682 199.194 297.122 200.958C298.598 202.686 300.56 203.55 303.008 203.55C304.592 203.55 305.978 203.172 307.166 202.416C308.39 201.66 309.344 200.562 310.028 199.122H321.422C320.486 203.478 318.398 206.934 315.158 209.49C311.918 212.01 307.922 213.27 303.17 213.27C299.426 213.27 296.114 212.46 293.234 210.84C290.354 209.184 288.122 206.898 286.538 203.982C284.99 201.03 284.216 197.664 284.216 193.884ZM355.702 213L343.768 196.314V213H333.184V174.93H343.768V191.346L355.594 174.93H367.798L353.812 193.398L368.5 213H355.702Z" fill="#1C1C1A"/>
<path d="M155.652 183.894L155.211 183.658L155.21 183.66L155.652 183.894ZM162.348 177.036L162.593 177.472L162.597 177.469L162.348 177.036ZM184.272 178.386L183.962 178.779L183.965 178.781L184.272 178.386ZM190.536 188.7V189.2H191.154L191.024 188.595L190.536 188.7ZM179.142 188.7L178.69 188.915L178.826 189.2H179.142V188.7ZM176.28 185.406L176.011 185.828L176.017 185.831L176.28 185.406ZM166.236 186.918L165.852 186.597L165.851 186.598L166.236 186.918ZM166.236 200.958L165.848 201.274L165.855 201.283L166.236 200.958ZM176.28 202.416L176.017 201.991L176.011 201.994L176.28 202.416ZM179.142 199.122V198.622H178.826L178.69 198.907L179.142 199.122ZM190.536 199.122L191.024 199.227L191.154 198.622H190.536V199.122ZM184.272 209.49L184.579 209.885L184.581 209.883L184.272 209.49ZM162.348 210.84L162.098 211.273L162.102 211.276L162.348 210.84ZM155.652 203.982L155.209 204.214L155.212 204.221L155.652 203.982ZM153.83 193.884C153.83 190.211 154.588 186.963 156.093 184.128L155.21 183.66C153.619 186.657 152.83 190.069 152.83 193.884H153.83ZM156.092 184.13C157.632 181.261 159.797 179.045 162.593 177.472L162.102 176.6C159.138 178.267 156.839 180.623 155.211 183.658L156.092 184.13ZM162.597 177.469C165.392 175.862 168.616 175.052 172.284 175.052V174.052C168.463 174.052 165.063 174.898 162.098 176.603L162.597 177.469ZM172.284 175.052C176.941 175.052 180.823 176.302 183.962 178.779L184.581 177.993C181.24 175.358 177.13 174.052 172.284 174.052V175.052ZM183.965 178.781C187.104 181.222 189.133 184.553 190.047 188.805L191.024 188.595C190.066 184.135 187.919 180.59 184.579 177.991L183.965 178.781ZM190.536 188.2H179.142V189.2H190.536V188.2ZM179.593 188.485C178.872 186.968 177.857 185.793 176.542 184.981L176.017 185.831C177.15 186.531 178.043 187.552 178.69 188.915L179.593 188.485ZM176.548 184.984C175.27 184.171 173.788 183.772 172.122 183.772V184.772C173.623 184.772 174.913 185.129 176.011 185.828L176.548 184.984ZM172.122 183.772C169.536 183.772 167.43 184.712 165.852 186.597L166.619 187.239C167.993 185.596 169.811 184.772 172.122 184.772V183.772ZM165.851 186.598C164.317 188.44 163.576 190.886 163.576 193.884H164.576C164.576 191.05 165.274 188.852 166.62 187.238L165.851 186.598ZM163.576 193.884C163.576 196.917 164.316 199.397 165.848 201.274L166.623 200.642C165.275 198.991 164.576 196.755 164.576 193.884H163.576ZM165.855 201.283C167.434 203.131 169.54 204.05 172.122 204.05V203.05C169.807 203.05 167.989 202.241 166.616 200.633L165.855 201.283ZM172.122 204.05C173.788 204.05 175.27 203.651 176.548 202.838L176.011 201.994C174.913 202.693 173.623 203.05 172.122 203.05V204.05ZM176.542 202.841C177.857 202.029 178.872 200.854 179.593 199.337L178.69 198.907C178.043 200.27 177.15 201.291 176.017 201.991L176.542 202.841ZM179.142 199.622H190.536V198.622H179.142V199.622ZM190.047 199.017C189.133 203.269 187.103 206.619 183.962 209.097L184.581 209.883C187.92 207.249 190.066 203.687 191.024 199.227L190.047 199.017ZM183.965 209.095C180.826 211.537 176.943 212.77 172.284 212.77V213.77C177.128 213.77 181.237 212.483 184.579 209.885L183.965 209.095ZM172.284 212.77C168.614 212.77 165.388 211.977 162.593 210.404L162.102 211.276C165.067 212.943 168.465 213.77 172.284 213.77V212.77ZM162.597 210.407C159.797 208.797 157.631 206.578 156.091 203.743L155.212 204.221C156.84 207.218 159.138 209.571 162.098 211.273L162.597 210.407ZM156.094 203.75C154.589 200.879 153.83 197.594 153.83 193.884H152.83C152.83 197.734 153.618 201.181 155.209 204.214L156.094 203.75ZM236.371 174.93H236.871V174.43H236.371V174.93ZM236.371 213V213.5H236.871V213H236.371ZM225.787 213H225.287V213.5H225.787V213ZM225.787 197.718H226.287V197.218H225.787V197.718ZM212.881 197.718V197.218H212.381V197.718H212.881ZM212.881 213V213.5H213.381V213H212.881ZM202.297 213H201.797V213.5H202.297V213ZM202.297 174.93V174.43H201.797V174.93H202.297ZM212.881 174.93H213.381V174.43H212.881V174.93ZM212.881 189.24H212.381V189.74H212.881V189.24ZM225.787 189.24V189.74H226.287V189.24H225.787ZM225.787 174.93V174.43H225.287V174.93H225.787ZM235.871 174.93V213H236.871V174.93H235.871ZM236.371 212.5H225.787V213.5H236.371V212.5ZM226.287 213V197.718H225.287V213H226.287ZM225.787 197.218H212.881V198.218H225.787V197.218ZM212.381 197.718V213H213.381V197.718H212.381ZM212.881 212.5H202.297V213.5H212.881V212.5ZM202.797 213V174.93H201.797V213H202.797ZM202.297 175.43H212.881V174.43H202.297V175.43ZM212.381 174.93V189.24H213.381V174.93H212.381ZM212.881 189.74H225.787V188.74H212.881V189.74ZM226.287 189.24V174.93H225.287V189.24H226.287ZM225.787 175.43H236.371V174.43H225.787V175.43ZM259.762 183.408V182.908H259.262V183.408H259.762ZM259.762 189.618H259.262V190.118H259.762V189.618ZM271.912 189.618H272.412V189.118H271.912V189.618ZM271.912 197.664V198.164H272.412V197.664H271.912ZM259.762 197.664V197.164H259.262V197.664H259.762ZM259.762 204.522H259.262V205.022H259.762V204.522ZM273.532 204.522H274.032V204.022H273.532V204.522ZM273.532 213V213.5H274.032V213H273.532ZM249.178 213H248.678V213.5H249.178V213ZM249.178 174.93V174.43H248.678V174.93H249.178ZM273.532 174.93H274.032V174.43H273.532V174.93ZM273.532 183.408V183.908H274.032V183.408H273.532ZM259.262 183.408V189.618H260.262V183.408H259.262ZM259.762 190.118H271.912V189.118H259.762V190.118ZM271.412 189.618V197.664H272.412V189.618H271.412ZM271.912 197.164H259.762V198.164H271.912V197.164ZM259.262 197.664V204.522H260.262V197.664H259.262ZM259.762 205.022H273.532V204.022H259.762V205.022ZM273.032 204.522V213H274.032V204.522H273.032ZM273.532 212.5H249.178V213.5H273.532V212.5ZM249.678 213V174.93H248.678V213H249.678ZM249.178 175.43H273.532V174.43H249.178V175.43ZM273.032 174.93V183.408H274.032V174.93H273.032ZM273.532 182.908H259.762V183.908H273.532V182.908ZM286.538 183.894L286.098 183.658L286.097 183.66L286.538 183.894ZM293.234 177.036L293.479 177.472L293.484 177.469L293.234 177.036ZM315.158 178.386L314.849 178.779L314.851 178.781L315.158 178.386ZM321.422 188.7V189.2H322.041L321.911 188.595L321.422 188.7ZM310.028 188.7L309.577 188.915L309.712 189.2H310.028V188.7ZM307.166 185.406L306.898 185.828L306.904 185.831L307.166 185.406ZM297.122 186.918L296.739 186.597L296.738 186.598L297.122 186.918ZM297.122 200.958L296.735 201.274L296.742 201.283L297.122 200.958ZM307.166 202.416L306.904 201.991L306.898 201.994L307.166 202.416ZM310.028 199.122V198.622H309.712L309.577 198.907L310.028 199.122ZM321.422 199.122L321.911 199.227L322.041 198.622H321.422V199.122ZM315.158 209.49L315.465 209.885L315.468 209.883L315.158 209.49ZM293.234 210.84L292.985 211.273L292.989 211.276L293.234 210.84ZM286.538 203.982L286.095 204.214L286.099 204.221L286.538 203.982ZM284.716 193.884C284.716 190.211 285.475 186.963 286.98 184.128L286.097 183.66C284.505 186.657 283.716 190.069 283.716 193.884H284.716ZM286.979 184.13C288.519 181.261 290.683 179.045 293.479 177.472L292.989 176.6C290.025 178.267 287.726 180.623 286.098 183.658L286.979 184.13ZM293.484 177.469C296.278 175.862 299.502 175.052 303.17 175.052V174.052C299.35 174.052 295.95 174.898 292.985 176.603L293.484 177.469ZM303.17 175.052C307.828 175.052 311.71 176.302 314.849 178.779L315.468 177.993C312.127 175.358 308.017 174.052 303.17 174.052V175.052ZM314.851 178.781C317.99 181.222 320.02 184.553 320.933 188.805L321.911 188.595C320.953 184.135 318.806 180.59 315.465 177.991L314.851 178.781ZM321.422 188.2H310.028V189.2H321.422V188.2ZM310.48 188.485C309.759 186.968 308.744 185.793 307.429 184.981L306.904 185.831C308.037 186.531 308.929 187.552 309.577 188.915L310.48 188.485ZM307.435 184.984C306.157 184.171 304.675 183.772 303.008 183.772V184.772C304.509 184.772 305.8 185.129 306.898 185.828L307.435 184.984ZM303.008 183.772C300.423 183.772 298.317 184.712 296.739 186.597L297.506 187.239C298.88 185.596 300.697 184.772 303.008 184.772V183.772ZM296.738 186.598C295.203 188.44 294.462 190.886 294.462 193.884H295.462C295.462 191.05 296.161 188.852 297.506 187.238L296.738 186.598ZM294.462 193.884C294.462 196.917 295.203 199.397 296.735 201.274L297.51 200.642C296.162 198.991 295.462 196.755 295.462 193.884H294.462ZM296.742 201.283C298.321 203.131 300.427 204.05 303.008 204.05V203.05C300.694 203.05 298.875 202.241 297.502 200.633L296.742 201.283ZM303.008 204.05C304.675 204.05 306.157 203.651 307.435 202.838L306.898 201.994C305.8 202.693 304.509 203.05 303.008 203.05V204.05ZM307.429 202.841C308.744 202.029 309.759 200.854 310.48 199.337L309.577 198.907C308.929 200.27 308.037 201.291 306.904 201.991L307.429 202.841ZM310.028 199.622H321.422V198.622H310.028V199.622ZM320.933 199.017C320.02 203.269 317.99 206.619 314.849 209.097L315.468 209.883C318.807 207.249 320.953 203.687 321.911 199.227L320.933 199.017ZM314.851 209.095C311.713 211.537 307.829 212.77 303.17 212.77V213.77C308.015 213.77 312.124 212.483 315.465 209.885L314.851 209.095ZM303.17 212.77C299.501 212.77 296.275 211.977 293.479 210.404L292.989 211.276C295.953 212.943 299.352 213.77 303.17 213.77V212.77ZM293.484 210.407C290.684 208.797 288.517 206.578 286.978 203.743L286.099 204.221C287.727 207.218 290.025 209.571 292.985 211.273L293.484 210.407ZM286.981 203.75C285.475 200.879 284.716 197.594 284.716 193.884H283.716C283.716 197.734 284.505 201.181 286.095 204.214L286.981 203.75ZM355.702 213L355.295 213.291L355.445 213.5H355.702V213ZM343.768 196.314L344.175 196.023L343.268 194.755V196.314H343.768ZM343.768 213V213.5H344.268V213H343.768ZM333.184 213H332.684V213.5H333.184V213ZM333.184 174.93V174.43H332.684V174.93H333.184ZM343.768 174.93H344.268V174.43H343.768V174.93ZM343.768 191.346H343.268V192.895L344.174 191.638L343.768 191.346ZM355.594 174.93V174.43H355.338L355.188 174.638L355.594 174.93ZM367.798 174.93L368.197 175.232L368.804 174.43H367.798V174.93ZM353.812 193.398L353.414 193.096L353.186 193.396L353.412 193.698L353.812 193.398ZM368.5 213V213.5H369.5L368.9 212.7L368.5 213ZM356.109 212.709L344.175 196.023L343.361 196.605L355.295 213.291L356.109 212.709ZM343.268 196.314V213H344.268V196.314H343.268ZM343.768 212.5H333.184V213.5H343.768V212.5ZM333.684 213V174.93H332.684V213H333.684ZM333.184 175.43H343.768V174.43H333.184V175.43ZM343.268 174.93V191.346H344.268V174.93H343.268ZM344.174 191.638L356 175.222L355.188 174.638L343.362 191.054L344.174 191.638ZM355.594 175.43H367.798V174.43H355.594V175.43ZM367.4 174.628L353.414 193.096L354.211 193.7L368.197 175.232L367.4 174.628ZM353.412 193.698L368.1 213.3L368.9 212.7L354.212 193.098L353.412 193.698ZM368.5 212.5H355.702V213.5H368.5V212.5Z" fill="#1C1C1A"/>
<path d="M77.698 174.93H78.198V174.43H77.698V174.93ZM77.698 183.354V183.854H78.198V183.354H77.698ZM67.546 183.354V182.854H67.046V183.354H67.546ZM67.546 213V213.5H68.046V213H67.546ZM56.962 213H56.462V213.5H56.962V213ZM56.962 183.354H57.462V182.854H56.962V183.354ZM46.918 183.354H46.418V183.854H46.918V183.354ZM46.918 174.93V174.43H46.418V174.93H46.918ZM77.198 174.93V183.354H78.198V174.93H77.198ZM77.698 182.854H67.546V183.854H77.698V182.854ZM67.046 183.354V213H68.046V183.354H67.046ZM67.546 212.5H56.962V213.5H67.546V212.5ZM57.462 213V183.354H56.462V213H57.462ZM56.962 182.854H46.918V183.854H56.962V182.854ZM47.418 183.354V174.93H46.418V183.354H47.418ZM46.918 175.43H77.698V174.43H46.918V175.43ZM96.7878 210.894L96.5415 211.329L96.5455 211.331L96.7878 210.894ZM89.6598 203.928L89.227 204.178L89.2306 204.184L89.6598 203.928ZM89.6598 183.786L89.2293 183.532L89.2283 183.533L89.6598 183.786ZM116.444 176.82L116.199 177.256L116.201 177.257L116.444 176.82ZM123.518 183.786L123.085 184.036L123.086 184.039L123.518 183.786ZM123.518 203.928L123.949 204.181L123.951 204.178L123.518 203.928ZM116.444 210.894L116.686 211.331L116.69 211.329L116.444 210.894ZM112.988 200.904L112.616 200.57L112.612 200.574L112.988 200.904ZM112.988 186.702L112.612 187.032L112.619 187.04L112.988 186.702ZM100.19 186.702L100.562 187.036L100.566 187.032L100.19 186.702ZM100.19 200.958L99.814 201.288L99.8174 201.292L100.19 200.958ZM106.616 212.878C103.133 212.878 99.9408 212.07 97.0302 210.457L96.5455 211.331C99.6109 213.03 102.971 213.878 106.616 213.878V212.878ZM97.0342 210.459C94.1217 208.81 91.8087 206.549 90.0891 203.672L89.2306 204.184C91.039 207.211 93.478 209.594 96.5415 211.329L97.0342 210.459ZM90.0927 203.678C88.4124 200.772 87.5678 197.494 87.5678 193.83H86.5678C86.5678 197.654 87.4513 201.108 89.227 204.178L90.0927 203.678ZM87.5678 193.83C87.5678 190.166 88.4124 186.907 90.0914 184.039L89.2283 183.533C87.4513 186.569 86.5678 190.006 86.5678 193.83H87.5678ZM90.0904 184.04C91.8099 181.128 94.1214 178.869 97.0302 177.257L96.5455 176.383C93.4783 178.083 91.0378 180.468 89.2293 183.532L90.0904 184.04ZM97.0302 177.257C99.9408 175.644 103.133 174.836 106.616 174.836V173.836C102.971 173.836 99.6109 174.684 96.5455 176.383L97.0302 177.257ZM106.616 174.836C110.136 174.836 113.327 175.645 116.199 177.256L116.688 176.384C113.657 174.683 110.296 173.836 106.616 173.836V174.836ZM116.201 177.257C119.109 178.869 121.402 181.126 123.085 184.036L123.951 183.536C122.178 180.47 119.754 178.083 116.686 176.383L116.201 177.257ZM123.086 184.039C124.765 186.907 125.61 190.166 125.61 193.83H126.61C126.61 190.006 125.726 186.569 123.949 183.533L123.086 184.039ZM125.61 193.83C125.61 197.494 124.765 200.772 123.085 203.678L123.951 204.178C125.726 201.108 126.61 197.654 126.61 193.83H125.61ZM123.086 203.675C121.403 206.551 119.109 208.81 116.197 210.459L116.69 211.329C119.755 209.594 122.177 207.209 123.949 204.181L123.086 203.675ZM116.201 210.457C113.291 212.07 110.099 212.878 106.616 212.878V213.878C110.261 213.878 113.621 213.03 116.686 211.331L116.201 210.457ZM106.616 204.05C109.436 204.05 111.706 203.123 113.364 201.234L112.612 200.574C111.174 202.213 109.196 203.05 106.616 203.05V204.05ZM113.36 201.238C115.045 199.361 115.864 196.874 115.864 193.83H114.864C114.864 196.69 114.099 198.919 112.616 200.57L113.36 201.238ZM115.864 193.83C115.864 190.718 115.047 188.209 113.356 186.364L112.619 187.04C114.096 188.651 114.864 190.894 114.864 193.83H115.864ZM113.364 186.372C111.706 184.483 109.436 183.556 106.616 183.556V184.556C109.196 184.556 111.174 185.393 112.612 187.032L113.364 186.372ZM106.616 183.556C103.762 183.556 101.473 184.482 99.814 186.372L100.566 187.032C102.003 185.394 103.997 184.556 106.616 184.556V183.556ZM99.8174 186.368C98.1649 188.213 97.3678 190.721 97.3678 193.83H98.3678C98.3678 190.891 99.1188 188.647 100.562 187.036L99.8174 186.368ZM97.3678 193.83C97.3678 196.905 98.166 199.41 99.814 201.288L100.566 200.628C99.1177 198.978 98.3678 196.731 98.3678 193.83H97.3678ZM99.8174 201.292C101.477 203.145 103.766 204.05 106.616 204.05V203.05C103.994 203.05 101.998 202.227 100.562 200.624L99.8174 201.292Z" fill="#1C1C1A"/>
<path d="M191.95 438.408L191.596 438.762L191.95 439.115L209.615 456.806L209.968 457.16L210.322 456.806L228.012 439.141L228.366 438.788L228.012 438.434L225.804 436.223L225.451 435.869L225.097 436.222L212.031 449.27L212.057 413.818L212.057 413.318L211.557 413.317L208.441 413.315L207.941 413.315L207.941 413.815L207.916 449.267L194.868 436.201L194.515 435.847L194.161 436.2L191.95 438.408Z" stroke="#1C1C1A"/>
<path d="M78.6508 350.62C78.6508 352.924 78.1108 355.03 77.0308 356.938C75.9868 358.81 74.3848 360.322 72.2248 361.474C70.1008 362.59 67.4908 363.148 64.3948 363.148H59.1568V376H48.5728V337.93H64.3948C67.4548 337.93 70.0468 338.47 72.1708 339.55C74.3308 340.63 75.9508 342.124 77.0308 344.032C78.1108 345.94 78.6508 348.136 78.6508 350.62ZM63.3688 354.724C66.3568 354.724 67.8508 353.356 67.8508 350.62C67.8508 347.848 66.3568 346.462 63.3688 346.462H59.1568V354.724H63.3688ZM108.931 376L101.371 361.96H100.237V376H89.6529V337.93H106.339C109.399 337.93 111.991 338.47 114.115 339.55C116.239 340.594 117.841 342.052 118.921 343.924C120.001 345.76 120.541 347.83 120.541 350.134C120.541 352.726 119.821 355.012 118.381 356.992C116.977 358.936 114.907 360.322 112.171 361.15L120.757 376H108.931ZM100.237 354.724H105.475C106.915 354.724 107.995 354.382 108.715 353.698C109.435 353.014 109.795 352.024 109.795 350.728C109.795 349.504 109.417 348.55 108.661 347.866C107.941 347.146 106.879 346.786 105.475 346.786H100.237V354.724ZM150.356 376.378C146.792 376.378 143.516 375.55 140.528 373.894C137.54 372.202 135.164 369.88 133.4 366.928C131.672 363.94 130.808 360.574 130.808 356.83C130.808 353.086 131.672 349.738 133.4 346.786C135.164 343.798 137.54 341.476 140.528 339.82C143.516 338.164 146.792 337.336 150.356 337.336C153.956 337.336 157.232 338.164 160.184 339.82C163.172 341.476 165.53 343.798 167.258 346.786C168.986 349.738 169.85 353.086 169.85 356.83C169.85 360.574 168.986 363.94 167.258 366.928C165.53 369.88 163.172 372.202 160.184 373.894C157.196 375.55 153.92 376.378 150.356 376.378ZM150.356 366.55C153.056 366.55 155.18 365.668 156.728 363.904C158.312 362.14 159.104 359.782 159.104 356.83C159.104 353.806 158.312 351.43 156.728 349.702C155.18 347.938 153.056 347.056 150.356 347.056C147.62 347.056 145.478 347.938 143.93 349.702C142.382 351.43 141.608 353.806 141.608 356.83C141.608 359.818 142.382 362.194 143.93 363.958C145.478 365.686 147.62 366.55 150.356 366.55ZM206.576 337.93V363.148C206.576 367.432 205.406 370.708 203.066 372.976C200.762 375.244 197.576 376.378 193.508 376.378C189.188 376.378 185.732 375.172 183.14 372.76C180.584 370.348 179.306 366.874 179.306 362.338H189.782C189.818 365.326 190.916 366.82 193.076 366.82C195.02 366.82 195.992 365.596 195.992 363.148V337.93H206.576ZM230.227 346.408V352.618H242.377V360.664H230.227V367.522H243.997V376H219.643V337.93H243.997V346.408H230.227ZM254.681 356.884C254.681 353.14 255.455 349.81 257.003 346.894C258.587 343.942 260.819 341.656 263.699 340.036C266.579 338.38 269.891 337.552 273.635 337.552C278.387 337.552 282.383 338.83 285.623 341.386C288.863 343.906 290.951 347.344 291.887 351.7H280.493C279.809 350.26 278.855 349.162 277.631 348.406C276.443 347.65 275.057 347.272 273.473 347.272C271.025 347.272 269.063 348.154 267.587 349.918C266.147 351.646 265.427 353.968 265.427 356.884C265.427 359.836 266.147 362.194 267.587 363.958C269.063 365.686 271.025 366.55 273.473 366.55C275.057 366.55 276.443 366.172 277.631 365.416C278.855 364.66 279.809 363.562 280.493 362.122H291.887C290.951 366.478 288.863 369.934 285.623 372.49C282.383 375.01 278.387 376.27 273.635 376.27C269.891 376.27 266.579 375.46 263.699 373.84C260.819 372.184 258.587 369.898 257.003 366.982C255.455 364.03 254.681 360.664 254.681 356.884ZM332.323 337.93V346.354H322.171V376H311.587V346.354H301.543V337.93H332.323ZM357.353 376.378C352.925 376.378 349.289 375.334 346.445 373.246C343.601 371.122 342.071 368.098 341.855 364.174H353.141C353.249 365.506 353.645 366.478 354.329 367.09C355.013 367.702 355.895 368.008 356.975 368.008C357.947 368.008 358.739 367.774 359.351 367.306C359.999 366.802 360.323 366.118 360.323 365.254C360.323 364.138 359.801 363.274 358.757 362.662C357.713 362.05 356.021 361.366 353.681 360.61C351.197 359.782 349.181 358.99 347.633 358.234C346.121 357.442 344.789 356.308 343.637 354.832C342.521 353.32 341.963 351.358 341.963 348.946C341.963 346.498 342.575 344.41 343.799 342.682C345.023 340.918 346.715 339.586 348.875 338.686C351.035 337.786 353.483 337.336 356.219 337.336C360.647 337.336 364.175 338.38 366.803 340.468C369.467 342.52 370.889 345.418 371.069 349.162H359.567C359.531 348.01 359.171 347.146 358.487 346.57C357.839 345.994 356.993 345.706 355.949 345.706C355.157 345.706 354.509 345.94 354.005 346.408C353.501 346.876 353.249 347.542 353.249 348.406C353.249 349.126 353.519 349.756 354.059 350.296C354.635 350.8 355.337 351.25 356.165 351.646C356.993 352.006 358.217 352.474 359.837 353.05C362.249 353.878 364.229 354.706 365.777 355.534C367.361 356.326 368.711 357.46 369.827 358.936C370.979 360.376 371.555 362.212 371.555 364.444C371.555 366.712 370.979 368.746 369.827 370.546C368.711 372.346 367.073 373.768 364.913 374.812C362.789 375.856 360.269 376.378 357.353 376.378Z" fill="#1C1C1A"/>
<path fill-rule="evenodd" clip-rule="evenodd" d="M36.4089 337.83C12.9748 348.093 1.06601 363.465 30.1316 375.438C55.2152 385.774 98.0538 389.56 132.851 391.72C167.785 393.891 202.859 393.972 237.347 392.917C295.674 391.138 403.353 384.768 398.36 356.989C395.497 341.067 357.632 324.837 319.659 316.708C273.904 306.912 220.36 307.293 172.581 310.649C124.075 314.053 78.1447 321.456 48.4741 335.413C24.4655 346.706 6.11307 365.446 37.6985 378.794C65.6034 390.588 117.244 392.091 154.818 391.312C200.339 390.367 245.68 388.524 288.774 383.996C328.307 379.84 370.017 372.829 388.922 359.263C402.352 349.622 400.272 338.773 374.736 330.892C348.57 322.815 310.86 319.923 278.821 317.991C243.597 315.867 209.249 315.456 174.532 316.587C166.237 316.859 157.935 317.126 149.633 317.374C145.93 317.486 147.439 319.534 151.107 319.422C174.227 318.729 197.095 317.64 220.55 317.953C237.022 318.175 253.549 318.737 270.016 319.574C304.208 321.314 343.452 324.228 371.735 332.574C405.715 342.603 389.942 358.234 366.071 366.927C333.483 378.797 281.985 383.285 236.273 386.118C192.908 388.806 144.515 391.189 99.585 388.068C77.8148 386.555 55.3873 383.193 40.3657 376.843C23.0135 369.51 25.0401 359.754 31.7037 351.764C48.0523 332.181 96.4394 320.349 149.363 314.827C200.282 309.518 259.78 307.737 311.29 317.319C336.958 322.092 357.543 329.723 372.897 338.413C385.116 345.332 394.379 353.206 392.416 361.144C389.062 374.709 349.207 381.596 317.492 385.348C280.441 389.73 239.713 391.327 199.881 391.518C162.715 391.694 124.242 390.047 87.9701 385.637C67.7355 383.175 47.3753 379.508 32.9021 373.546C16.6901 366.866 15.7749 358.094 22.7679 350.616C32.1161 340.623 55.0906 332.796 78.3363 326.922C101.346 321.107 130.058 316.481 159.766 316.449C163.469 316.445 163.576 314.378 159.838 314.382C111.089 314.434 65.1854 325.225 36.4089 337.83Z" fill="#1C1C1A"/>
<path d="M185.4 268.5H196V297.5H185.4V268.5Z" fill="#1C1C1A" stroke="#1C1C1A"/>
<path d="M131.5 93.5H141V153.5H131.5V93.5Z" fill="#1C1C1A" stroke="#1C1C1A"/>
<path d="M286.698 234.93H287.198V234.43H286.698V234.93ZM286.698 243.354V243.854H287.198V243.354H286.698ZM276.546 243.354V242.854H276.046V243.354H276.546ZM276.546 273V273.5H277.046V273H276.546ZM265.962 273H265.462V273.5H265.962V273ZM265.962 243.354H266.462V242.854H265.962V243.354ZM255.918 243.354H255.418V243.854H255.918V243.354ZM255.918 234.93V234.43H255.418V234.93H255.918ZM286.198 234.93V243.354H287.198V234.93H286.198ZM286.698 242.854H276.546V243.854H286.698V242.854ZM276.046 243.354V273H277.046V243.354H276.046ZM276.546 272.5H265.962V273.5H276.546V272.5ZM266.462 273V243.354H265.462V273H266.462ZM265.962 242.854H255.918V243.854H265.962V242.854ZM256.418 243.354V234.93H255.418V243.354H256.418ZM255.918 235.43H286.698V234.43H255.918V235.43ZM331.438 234.93H331.938V234.43H331.438V234.93ZM331.438 273V273.5H331.938V273H331.438ZM320.854 273H320.354V273.5H320.854V273ZM320.854 257.718H321.354V257.218H320.854V257.718ZM307.948 257.718V257.218H307.448V257.718H307.948ZM307.948 273V273.5H308.448V273H307.948ZM297.364 273H296.864V273.5H297.364V273ZM297.364 234.93V234.43H296.864V234.93H297.364ZM307.948 234.93H308.448V234.43H307.948V234.93ZM307.948 249.24H307.448V249.74H307.948V249.24ZM320.854 249.24V249.74H321.354V249.24H320.854ZM320.854 234.93V234.43H320.354V234.93H320.854ZM330.938 234.93V273H331.938V234.93H330.938ZM331.438 272.5H320.854V273.5H331.438V272.5ZM321.354 273V257.718H320.354V273H321.354ZM320.854 257.218H307.948V258.218H320.854V257.218ZM307.448 257.718V273H308.448V257.718H307.448ZM307.948 272.5H297.364V273.5H307.948V272.5ZM297.864 273V234.93H296.864V273H297.864ZM297.364 235.43H307.948V234.43H297.364V235.43ZM307.448 234.93V249.24H308.448V234.93H307.448ZM307.948 249.74H320.854V248.74H307.948V249.74ZM321.354 249.24V234.93H320.354V249.24H321.354ZM320.854 235.43H331.438V234.43H320.854V235.43ZM354.829 243.408V242.908H354.329V243.408H354.829ZM354.829 249.618H354.329V250.118H354.829V249.618ZM366.979 249.618H367.479V249.118H366.979V249.618ZM366.979 257.664V258.164H367.479V257.664H366.979ZM354.829 257.664V257.164H354.329V257.664H354.829ZM354.829 264.522H354.329V265.022H354.829V264.522ZM368.599 264.522H369.099V264.022H368.599V264.522ZM368.599 273V273.5H369.099V273H368.599ZM344.245 273H343.745V273.5H344.245V273ZM344.245 234.93V234.43H343.745V234.93H344.245ZM368.599 234.93H369.099V234.43H368.599V234.93ZM368.599 243.408V243.908H369.099V243.408H368.599ZM354.329 243.408V249.618H355.329V243.408H354.329ZM354.829 250.118H366.979V249.118H354.829V250.118ZM366.479 249.618V257.664H367.479V249.618H366.479ZM366.979 257.164H354.829V258.164H366.979V257.164ZM354.329 257.664V264.522H355.329V257.664H354.329ZM354.829 265.022H368.599V264.022H354.829V265.022ZM368.099 264.522V273H369.099V264.522H368.099ZM368.599 272.5H344.245V273.5H368.599V272.5ZM344.745 273V234.93H343.745V273H344.745ZM344.245 235.43H368.599V234.43H344.245V235.43ZM368.099 234.93V243.408H369.099V234.93H368.099ZM368.599 242.908H354.829V243.908H368.599V242.908Z" fill="#1C1C1A"/>
<path d="M101.276 273.378C97.712 273.378 94.436 272.55 91.448 270.894C88.46 269.202 86.084 266.88 84.32 263.928C82.592 260.94 81.728 257.574 81.728 253.83C81.728 250.086 82.592 246.738 84.32 243.786C86.084 240.798 88.46 238.476 91.448 236.82C94.436 235.164 97.712 234.336 101.276 234.336C104.876 234.336 108.152 235.164 111.104 236.82C114.092 238.476 116.45 240.798 118.178 243.786C119.906 246.738 120.77 250.086 120.77 253.83C120.77 257.574 119.906 260.94 118.178 263.928C116.45 266.88 114.092 269.202 111.104 270.894C108.116 272.55 104.84 273.378 101.276 273.378ZM101.276 263.55C103.976 263.55 106.1 262.668 107.648 260.904C109.232 259.14 110.024 256.782 110.024 253.83C110.024 250.806 109.232 248.43 107.648 246.702C106.1 244.938 103.976 244.056 101.276 244.056C98.54 244.056 96.398 244.938 94.85 246.702C93.302 248.43 92.528 250.806 92.528 253.83C92.528 256.818 93.302 259.194 94.85 260.958C96.398 262.686 98.54 263.55 101.276 263.55ZM142.646 234.93V257.016C142.646 259.068 143.114 260.652 144.05 261.768C145.022 262.884 146.48 263.442 148.424 263.442C150.368 263.442 151.826 262.884 152.798 261.768C153.806 260.616 154.31 259.032 154.31 257.016V234.93H164.894V257.016C164.894 260.508 164.156 263.496 162.68 265.98C161.204 268.428 159.188 270.282 156.632 271.542C154.112 272.766 151.304 273.378 148.208 273.378C145.112 273.378 142.34 272.766 139.892 271.542C137.48 270.282 135.572 268.428 134.168 265.98C132.8 263.532 132.116 260.544 132.116 257.016V234.93H142.646ZM206.145 234.93V243.354H195.993V273H185.409V243.354H175.365V234.93H206.145Z" fill="#1C1C1A"/>
<path d="M91.448 270.894L91.2016 271.329L91.2056 271.331L91.448 270.894ZM84.32 263.928L83.8871 264.178L83.8908 264.184L84.32 263.928ZM84.32 243.786L83.8894 243.532L83.8885 243.533L84.32 243.786ZM111.104 236.82L110.859 237.256L110.862 237.257L111.104 236.82ZM118.178 243.786L117.745 244.036L117.746 244.039L118.178 243.786ZM118.178 263.928L118.61 264.181L118.611 264.178L118.178 263.928ZM111.104 270.894L111.346 271.331L111.35 271.329L111.104 270.894ZM107.648 260.904L107.276 260.57L107.272 260.574L107.648 260.904ZM107.648 246.702L107.272 247.032L107.279 247.04L107.648 246.702ZM94.85 246.702L95.2224 247.036L95.2258 247.032L94.85 246.702ZM94.85 260.958L94.4742 261.288L94.4776 261.292L94.85 260.958ZM101.276 272.878C97.793 272.878 94.6009 272.07 91.6904 270.457L91.2056 271.331C94.2711 273.03 97.631 273.878 101.276 273.878V272.878ZM91.6944 270.459C88.7819 268.81 86.4688 266.549 84.7492 263.672L83.8908 264.184C85.6992 267.211 88.1381 269.594 91.2016 271.329L91.6944 270.459ZM84.7528 263.678C83.0725 260.772 82.228 257.494 82.228 253.83H81.228C81.228 257.654 82.1115 261.108 83.8872 264.178L84.7528 263.678ZM82.228 253.83C82.228 250.166 83.0725 246.907 84.7515 244.039L83.8885 243.533C82.1115 246.569 81.228 250.006 81.228 253.83H82.228ZM84.7506 244.04C86.47 241.128 88.7816 238.869 91.6904 237.257L91.2056 236.383C88.1384 238.083 85.698 240.468 83.8894 243.532L84.7506 244.04ZM91.6904 237.257C94.6009 235.644 97.793 234.836 101.276 234.836V233.836C97.631 233.836 94.2711 234.684 91.2056 236.383L91.6904 237.257ZM101.276 234.836C104.796 234.836 107.987 235.645 110.859 237.256L111.349 236.384C108.317 234.683 104.956 233.836 101.276 233.836V234.836ZM110.862 237.257C113.77 238.869 116.062 241.126 117.745 244.036L118.611 243.536C116.838 240.47 114.414 238.083 111.346 236.383L110.862 237.257ZM117.746 244.039C119.425 246.907 120.27 250.166 120.27 253.83H121.27C121.27 250.006 120.387 246.569 118.61 243.533L117.746 244.039ZM120.27 253.83C120.27 257.494 119.425 260.772 117.745 263.678L118.611 264.178C120.387 261.108 121.27 257.654 121.27 253.83H120.27ZM117.746 263.675C116.063 266.551 113.769 268.81 110.858 270.459L111.35 271.329C114.415 269.594 116.837 267.209 118.61 264.181L117.746 263.675ZM110.862 270.457C107.951 272.07 104.759 272.878 101.276 272.878V273.878C104.921 273.878 108.281 273.03 111.346 271.331L110.862 270.457ZM101.276 264.05C104.096 264.05 106.366 263.123 108.024 261.234L107.272 260.574C105.834 262.213 103.856 263.05 101.276 263.05V264.05ZM108.02 261.238C109.705 259.361 110.524 256.874 110.524 253.83H109.524C109.524 256.69 108.759 258.919 107.276 260.57L108.02 261.238ZM110.524 253.83C110.524 250.718 109.707 248.209 108.017 246.364L107.279 247.04C108.757 248.651 109.524 250.894 109.524 253.83H110.524ZM108.024 246.372C106.366 244.483 104.096 243.556 101.276 243.556V244.556C103.856 244.556 105.834 245.393 107.272 247.032L108.024 246.372ZM101.276 243.556C98.4224 243.556 96.1332 244.482 94.4742 246.372L95.2258 247.032C96.6628 245.394 98.6576 244.556 101.276 244.556V243.556ZM94.4776 246.368C92.825 248.213 92.028 250.721 92.028 253.83H93.028C93.028 250.891 93.779 248.647 95.2224 247.036L94.4776 246.368ZM92.028 253.83C92.028 256.905 92.8262 259.41 94.4742 261.288L95.2258 260.628C93.7778 258.978 93.028 256.731 93.028 253.83H92.028ZM94.4776 261.292C96.1376 263.145 98.4258 264.05 101.276 264.05V263.05C98.6542 263.05 96.6584 262.227 95.2224 260.624L94.4776 261.292ZM142.646 234.93H143.146V234.43H142.646V234.93ZM144.05 261.768L143.667 262.089L143.673 262.096L144.05 261.768ZM152.798 261.768L152.422 261.439L152.421 261.44L152.798 261.768ZM154.31 234.93V234.43H153.81V234.93H154.31ZM164.894 234.93H165.394V234.43H164.894V234.93ZM162.68 265.98L163.108 266.238L163.11 266.235L162.68 265.98ZM156.632 271.542L156.85 271.992L156.853 271.99L156.632 271.542ZM139.892 271.542L139.66 271.985L139.668 271.989L139.892 271.542ZM134.168 265.98L133.731 266.224L133.734 266.229L134.168 265.98ZM132.116 234.93V234.43H131.616V234.93H132.116ZM142.146 234.93V257.016H143.146V234.93H142.146ZM142.146 257.016C142.146 259.138 142.63 260.853 143.667 262.089L144.433 261.447C143.598 260.451 143.146 258.998 143.146 257.016H142.146ZM143.673 262.096C144.767 263.353 146.383 263.942 148.424 263.942V262.942C146.576 262.942 145.276 262.415 144.427 261.44L143.673 262.096ZM148.424 263.942C150.464 263.942 152.08 263.353 153.175 262.096L152.421 261.44C151.571 262.415 150.271 262.942 148.424 262.942V263.942ZM153.174 262.097C154.284 260.828 154.81 259.114 154.81 257.016H153.81C153.81 258.95 153.327 260.404 152.422 261.439L153.174 262.097ZM154.81 257.016V234.93H153.81V257.016H154.81ZM154.31 235.43H164.894V234.43H154.31V235.43ZM164.394 234.93V257.016H165.394V234.93H164.394ZM164.394 257.016C164.394 260.437 163.671 263.333 162.25 265.725L163.11 266.235C164.64 263.659 165.394 260.579 165.394 257.016H164.394ZM162.252 265.722C160.825 268.088 158.881 269.876 156.411 271.094L156.853 271.99C159.495 270.688 161.583 268.768 163.108 266.238L162.252 265.722ZM156.413 271.092C153.968 272.28 151.236 272.878 148.208 272.878V273.878C151.372 273.878 154.255 273.252 156.85 271.992L156.413 271.092ZM148.208 272.878C145.179 272.878 142.485 272.28 140.116 271.095L139.668 271.989C142.194 273.252 145.045 273.878 148.208 273.878V272.878ZM140.123 271.099C137.799 269.885 135.96 268.1 134.602 265.731L133.734 266.229C135.184 268.756 137.161 270.679 139.66 271.985L140.123 271.099ZM134.604 265.736C133.287 263.38 132.616 260.48 132.616 257.016H131.616C131.616 260.608 132.312 263.684 133.731 266.224L134.604 265.736ZM132.616 257.016V234.93H131.616V257.016H132.616ZM132.116 235.43H142.646V234.43H132.116V235.43ZM206.145 234.93H206.645V234.43H206.145V234.93ZM206.145 243.354V243.854H206.645V243.354H206.145ZM195.993 243.354V242.854H195.493V243.354H195.993ZM195.993 273V273.5H196.493V273H195.993ZM185.409 273H184.909V273.5H185.409V273ZM185.409 243.354H185.909V242.854H185.409V243.354ZM175.365 243.354H174.865V243.854H175.365V243.354ZM175.365 234.93V234.43H174.865V234.93H175.365ZM205.645 234.93V243.354H206.645V234.93H205.645ZM206.145 242.854H195.993V243.854H206.145V242.854ZM195.493 243.354V273H196.493V243.354H195.493ZM195.993 272.5H185.409V273.5H195.993V272.5ZM185.909 273V243.354H184.909V273H185.909ZM185.409 242.854H175.365V243.854H185.409V242.854ZM175.865 243.354V234.93H174.865V243.354H175.865ZM175.365 235.43H206.145V234.43H175.365V235.43Z" fill="#1C1C1A"/>
</svg>
