<svg width="325" height="25" viewBox="0 0 325 25" fill="none" xmlns="http://www.w3.org/2000/svg">
<g clip-path="url(#clip0_639_350)">
<path d="M0.453918 0.50026L20.2499 0.50026L20.2499 9.30521L15.8049 9.30521L15.8049 24.0004L4.98392 24.0004L4.98392 9.32949L0.453918 9.32949L0.453918 0.50026ZM32.9049 8.23647L32.9049 0.500261L43.7499 0.50026L43.7499 24.0004L32.9049 24.0004L32.9049 16.1185L31.7629 16.1185L31.7629 24.0247L20.8939 24.0247L20.8939 0.50026L31.7629 0.500261L31.7629 8.23647L32.9049 8.23647ZM68.5979 24.0004L57.2309 24.0004L57.1089 21.8386L55.3359 21.8386L55.2149 24.0004L43.9199 24.0004L47.5509 0.50026L65.1859 0.50026L68.5979 24.0004ZM56.0649 10.1189L55.7369 15.2926L56.7569 15.2926L56.4899 10.1189L56.4529 8.30934L55.9919 8.30934L56.0649 10.1189ZM79.5409 0.500261L79.5409 15.8877L86.1839 15.8877L86.1839 24.0004L68.7439 24.0004L68.7439 0.50026L79.5409 0.500261ZM97.5149 15.1469L97.5149 16.1427L105.203 16.1427L105.203 24.0004L86.6939 24.0004L86.6939 0.50026L105.105 0.500261L105.105 8.35792L97.5149 8.35792L97.5149 9.22019L104.85 9.22019L104.85 15.1469L97.5149 15.1469ZM128.982 7.19202L128.982 7.8114L118.161 7.8114L118.161 7.48349C118.161 7.02199 117.967 6.79124 117.59 6.79124C117.177 6.79124 116.971 7.00985 116.971 7.43491L116.971 7.48349C116.971 7.95714 117.238 8.11502 117.967 8.15145L122.29 8.50365C124.683 8.66153 126.48 9.25663 127.695 10.2768C128.897 11.297 129.504 12.9851 129.504 15.3412L129.504 15.5962C129.504 18.4138 128.496 20.5999 126.48 22.1422C124.464 23.6968 121.513 24.474 117.639 24.474C113.862 24.474 110.971 23.8425 108.992 22.5673C107 21.3043 106.004 19.4825 106.004 17.09L106.004 16.2642L117.019 16.2642L117.019 16.6164C117.019 17.0536 117.25 17.3572 117.639 17.3572C118.003 17.3572 118.185 17.1508 118.185 16.7378L118.185 16.5921C118.185 16.1792 117.918 15.9484 117.372 15.912L114.129 15.742C111.105 15.5841 108.98 14.9161 107.729 13.7502C106.478 12.5965 105.846 10.7991 105.846 8.3822L105.846 8.33363C105.846 2.89278 109.842 0.075194 117.566 0.075194C121.197 0.075194 124.015 0.694577 126.006 1.9212C127.986 3.15996 128.982 4.92095 128.982 7.19202ZM148.426 0.500261L148.426 15.8877L155.069 15.8877L155.069 24.0004L137.629 24.0004L137.629 0.50026L148.426 0.500261ZM155.579 24.0004L155.579 0.50026L166.4 0.50026L166.4 24.0004L155.579 24.0004ZM180.014 8.03L180.366 8.03L179.868 5.3703L179.868 0.50026L190.459 0.50026L190.459 24.0004L180.245 24.0004L177.852 16.0942L177.476 16.0942L177.998 18.8267L177.998 24.0004L167.432 24.0004L167.432 0.50026L177.707 0.50026L180.014 8.03ZM191.503 0.500261L203.247 0.50026C207.012 0.50026 209.866 1.31395 211.821 2.94135C213.764 4.58089 214.736 7.15558 214.736 10.6897L214.736 14.1753C214.736 17.6123 213.752 20.1019 211.785 21.6565C209.817 23.2231 206.976 24.0004 203.247 24.0004L191.503 24.0004L191.503 0.500261ZM203.49 14.9526L203.49 9.5481C203.49 8.77083 203.186 8.3822 202.567 8.3822L202.324 8.3822L202.324 16.1184L202.567 16.1184C203.417 16.0577 203.514 15.5841 203.49 14.9526ZM233.633 11.637L233.633 11.8921C236.949 12.3657 238.71 14.1631 238.71 17.1629L238.71 17.6123C238.71 19.604 238.03 21.1707 236.682 22.3001C235.333 23.4296 233.354 24.0004 230.743 24.0004L215.525 24.0004L215.525 0.500261L230.974 0.50026C233.281 0.50026 235.078 0.96176 236.378 1.89691C237.665 2.83206 238.309 4.27728 238.309 6.22044L238.309 6.48763C238.309 9.60883 236.791 11.1634 233.633 11.637ZM227.087 7.98143L226.395 7.98143L226.395 9.57238L227.111 9.57238C227.524 9.57238 227.731 9.3295 227.743 8.85585L227.743 8.73441C227.731 8.23647 227.512 7.98143 227.087 7.98143ZM227.16 14.5518L226.395 14.5518L226.395 16.5192L227.16 16.5192C227.622 16.5192 227.852 16.2156 227.864 15.6205L227.864 15.3898C227.864 14.8554 227.561 14.5518 227.16 14.5518ZM249.98 15.1469L249.98 16.1427L257.668 16.1427L257.668 24.0004L239.159 24.0004L239.159 0.500261L257.571 0.50026L257.571 8.35792L249.98 8.35792L249.98 9.2202L257.315 9.2202L257.315 15.1469L249.98 15.1469ZM279.48 14.6003L281.921 24.0004L270.93 24.0004L270.055 18.1831L269.485 18.1831L269.485 24.0004L258.664 24.0004L258.664 0.50026L272.594 0.50026C278.362 0.50026 281.229 3.1964 281.229 8.28505L281.229 8.92872C281.229 11.3941 280.646 13.2887 279.48 14.6003ZM269.727 8.33363L269.485 8.33363L269.485 11.9164L269.752 11.9164C270.152 11.9164 270.553 11.4427 270.553 10.4226L270.553 9.5481C270.553 8.75869 270.128 8.33363 269.727 8.33363ZM295.086 19.7254L294.685 19.7254C294.418 21.3528 293.835 22.5552 292.936 23.3203C292.025 24.0854 290.689 24.474 288.916 24.474C286.767 24.474 285.054 23.6725 283.791 22.0572C282.516 20.4541 281.884 18.098 281.884 14.9768L281.884 11.8071C281.884 7.77497 282.868 4.81165 284.848 2.91707C286.815 1.02249 289.791 0.075194 293.762 0.075194C297.527 0.075194 300.369 0.816024 302.288 2.28554C304.194 3.75506 305.154 5.83181 305.154 8.50365L305.154 9.92459L294.041 9.92459L294.041 8.52794C294.041 8.11502 293.871 7.90856 293.519 7.90856C293.155 7.90856 292.972 8.1636 292.972 8.67368L292.972 15.742C292.972 16.2763 293.191 16.5435 293.616 16.5435C294.066 16.5435 294.284 16.2763 294.284 15.742L294.284 15.074L293.871 15.074L293.871 10.8233L305.154 10.799L305.154 24.0004L295.559 24.0004L295.086 19.7254ZM317.258 23.5029C315.997 23.5029 314.823 23.1912 313.736 22.5677C312.661 21.931 311.806 21.0754 311.169 20.0009C310.545 18.9264 310.234 17.7591 310.234 16.4989C310.234 15.2254 310.545 14.058 311.169 12.9968C311.806 11.9223 312.661 11.0733 313.736 10.4499C314.81 9.81311 315.984 9.49474 317.258 9.49474C318.518 9.49474 319.685 9.81311 320.76 10.4499C321.834 11.0733 322.683 11.9223 323.307 12.9968C323.943 14.058 324.262 15.2254 324.262 16.4989C324.262 17.7591 323.943 18.9264 323.307 20.0009C322.683 21.0754 321.834 21.931 320.76 22.5677C319.685 23.1912 318.518 23.5029 317.258 23.5029ZM317.258 22.0106C318.253 22.0106 319.168 21.7652 320.004 21.2744C320.853 20.7703 321.522 20.1004 322.013 19.2647C322.504 18.4157 322.749 17.4938 322.749 16.4989C322.749 15.5172 322.504 14.6085 322.013 13.7728C321.522 12.9239 320.853 12.254 320.004 11.7631C319.168 11.2591 318.253 11.007 317.258 11.007C316.263 11.007 315.341 11.2591 314.492 11.7631C313.656 12.254 312.986 12.9239 312.482 13.7728C311.991 14.6085 311.746 15.5172 311.746 16.4989C311.746 17.4938 311.991 18.4157 312.482 19.2647C312.986 20.1004 313.656 20.7703 314.492 21.2744C315.341 21.7652 316.263 22.0106 317.258 22.0106ZM320.62 17.2351C320.567 18.0708 320.256 18.7407 319.685 19.2448C319.115 19.7489 318.312 20.0009 317.278 20.0009C316.216 20.0009 315.374 19.7091 314.751 19.1254C314.127 18.5284 313.815 17.6463 313.815 16.479C313.815 15.3116 314.127 14.4361 314.751 13.8524C315.374 13.2688 316.216 12.9769 317.278 12.9769C318.325 12.9769 319.121 13.2223 319.665 13.7131C320.222 14.204 320.521 14.8208 320.561 15.5637L318.432 15.5637C318.418 15.232 318.306 14.9999 318.093 14.8672C317.894 14.7346 317.622 14.6682 317.278 14.6682C316.415 14.6682 315.984 15.2718 315.984 16.479C315.984 17.7126 316.415 18.3295 317.278 18.3295C317.636 18.3295 317.921 18.2565 318.133 18.1106C318.345 17.9514 318.458 17.6596 318.471 17.2351L320.62 17.2351Z" fill="black"/>
</g>
<defs>
<clipPath id="clip0_639_350">
<rect width="25" height="325" fill="white" transform="translate(325) rotate(90)"/>
</clipPath>
</defs>
</svg>
