<svg width="25" height="325" viewBox="0 0 25 325" fill="none" xmlns="http://www.w3.org/2000/svg">
<path d="M0.499905 324.546L0.499904 304.75L9.30485 304.75L9.30485 309.195L24 309.195L24 320.016L9.32914 320.016L9.32914 324.546L0.499905 324.546ZM8.23611 292.095L0.499904 292.095L0.499903 281.25L24 281.25L24 292.095L16.1181 292.095L16.1181 293.237L24.0243 293.237L24.0243 304.106L0.499904 304.106L0.499904 293.237L8.23611 293.237L8.23611 292.095ZM24 256.402L24 267.769L21.8382 267.891L21.8382 269.664L24 269.785L24 281.08L0.499903 277.449L0.499902 259.814L24 256.402ZM10.1185 268.935L15.2922 269.263L15.2922 268.243L10.1185 268.51L8.30898 268.547L8.30898 269.008L10.1185 268.935ZM0.499902 245.459L15.8873 245.459L15.8873 238.816L24 238.816L24 256.256L0.499902 256.256L0.499902 245.459ZM15.1465 227.485L16.1423 227.485L16.1423 219.797L24 219.797L24 238.306L0.499901 238.306L0.499901 219.895L8.35756 219.895L8.35756 227.485L9.21983 227.485L9.21983 220.15L15.1465 220.15L15.1465 227.485ZM7.19166 196.018L7.81104 196.018L7.81104 206.839L7.48313 206.839C7.02163 206.839 6.79088 207.033 6.79088 207.41C6.79088 207.823 7.00949 208.029 7.43455 208.029L7.48313 208.029C7.95678 208.029 8.11466 207.762 8.15109 207.033L8.50329 202.71C8.66117 200.317 9.25627 198.52 10.2764 197.305C11.2966 196.103 12.9847 195.496 15.3408 195.496L15.5958 195.496C18.4134 195.496 20.5995 196.504 22.1418 198.52C23.6964 200.536 24.4736 203.487 24.4736 207.361C24.4736 211.138 23.8421 214.029 22.5669 216.008C21.3039 218 19.4821 218.996 17.0896 218.996L16.2638 218.996L16.2638 207.981L16.616 207.981C17.0532 207.981 17.3568 207.75 17.3568 207.361C17.3568 206.997 17.1504 206.815 16.7374 206.815L16.5917 206.815C16.1788 206.815 15.948 207.082 15.9116 207.628L15.7416 210.871C15.5837 213.895 14.9157 216.02 13.7498 217.271C12.5961 218.522 10.7987 219.154 8.38184 219.154L8.33327 219.154C2.89242 219.154 0.0748341 215.158 0.0748337 207.434C0.0748336 203.803 0.694216 200.985 1.92084 198.994C3.1596 197.014 4.92059 196.018 7.19166 196.018ZM0.499899 176.574L15.8873 176.574L15.8873 169.931L24 169.931L24 187.371L0.499899 187.371L0.499899 176.574ZM24 169.421L0.499898 169.421L0.499898 158.6L24 158.6L24 169.421ZM8.02964 144.986L8.02964 144.634L5.36994 145.132L0.499897 145.132L0.499897 134.541L24 134.541L24 144.755L16.0938 147.148L16.0938 147.524L18.8263 147.002L24 147.002L24 157.568L0.499898 157.568L0.499897 147.293L8.02964 144.986ZM0.499897 133.497L0.499896 121.753C0.499896 117.988 1.31359 115.134 2.94099 113.179C4.58053 111.236 7.15522 110.264 10.6893 110.264L14.1749 110.264C17.6119 110.264 20.1015 111.248 21.6561 113.215C23.2227 115.183 24 118.024 24 121.753L24 133.497L0.499897 133.497ZM14.9522 121.51L9.54774 121.51C8.77047 121.51 8.38184 121.814 8.38184 122.433L8.38184 122.676L16.118 122.676L16.118 122.433C16.0573 121.583 15.5837 121.486 14.9522 121.51ZM11.6366 91.3667L11.8917 91.3667C12.3653 88.0512 14.1627 86.2902 17.1625 86.2902L17.6119 86.2902C19.6036 86.2902 21.1703 86.9703 22.2997 88.3184C23.4292 89.6665 24 91.6461 24 94.2572L24 109.475L0.499896 109.475L0.499895 94.0264C0.499895 91.7189 0.961395 89.9215 1.89654 88.622C2.83169 87.3347 4.27691 86.691 6.22007 86.691L6.48726 86.691C9.60846 86.691 11.163 88.2091 11.6366 91.3667ZM7.98106 97.9128L7.98106 98.605L9.57202 98.605L9.57202 97.8885C9.57202 97.4755 9.32913 97.2691 8.85548 97.2569L8.73404 97.2569C8.2361 97.2691 7.98106 97.4877 7.98106 97.9128ZM14.5514 97.8399L14.5514 98.605L16.5188 98.605L16.5188 97.8399C16.5188 97.3784 16.2152 97.1476 15.6201 97.1355L15.3894 97.1355C14.855 97.1355 14.5514 97.4391 14.5514 97.8399ZM15.1465 75.0199L16.1423 75.0199L16.1423 67.3323L24 67.3323L24 85.8409L0.499895 85.8409L0.499894 67.4294L8.35755 67.4294L8.35755 75.0199L9.21983 75.0199L9.21983 67.6845L15.1465 67.6845L15.1465 75.0199ZM14.5999 45.5203L24 43.0792L24 54.0702L18.1827 54.9446L18.1827 55.5154L24 55.5154L24 66.3364L0.499894 66.3364L0.499893 52.4064C0.499893 46.6376 3.19603 43.7714 8.28468 43.7714L8.92835 43.7714C11.3937 43.7714 13.2883 44.3544 14.5999 45.5203ZM8.33326 55.2725L8.33326 55.5154L11.916 55.5154L11.916 55.2482C11.916 54.8475 11.4423 54.4467 10.4222 54.4467L9.54773 54.4467C8.75832 54.4467 8.33326 54.8717 8.33326 55.2725ZM19.725 29.9143L19.725 30.3151C21.3524 30.5822 22.5548 31.1652 23.3199 32.0639C24.085 32.9748 24.4736 34.3107 24.4736 36.0838C24.4736 38.2334 23.6721 39.9458 22.0568 41.2089C20.4537 42.4841 18.0976 43.1156 14.9764 43.1156L11.8067 43.1156C7.7746 43.1156 4.81128 42.1319 2.9167 40.1523C1.02212 38.1849 0.0748262 35.2094 0.074826 31.2381C0.0748259 27.4732 0.815656 24.6313 2.28517 22.7124C3.75469 20.8057 5.83144 19.8463 8.50328 19.8463L9.92422 19.8463L9.92422 30.9587L8.52757 30.9587C8.11465 30.9587 7.90819 31.1288 7.90819 31.481C7.90819 31.8453 8.16323 32.0275 8.67331 32.0275L15.7416 32.0275C16.2759 32.0275 16.5431 31.8089 16.5431 31.3838C16.5431 30.9344 16.2759 30.7158 15.7416 30.7158L15.0736 30.7158L15.0736 31.1288L10.8229 31.1288L10.7986 19.8463L24 19.8463L24 29.4406L19.725 29.9143ZM23.5025 7.74228C23.5025 9.00248 23.1908 10.1765 22.5673 11.2642C21.9306 12.3387 21.075 13.1943 20.0005 13.8311C18.926 14.4545 17.7587 14.7663 16.4985 14.7663C15.225 14.7663 14.0576 14.4545 12.9964 13.8311C11.9219 13.1943 11.0729 12.3387 10.4495 11.2642C9.81274 10.1897 9.49437 9.01575 9.49437 7.74228C9.49437 6.48207 9.81274 5.31473 10.4495 4.24024C11.0729 3.16575 11.9219 2.31677 12.9964 1.6933C14.0576 1.05656 15.225 0.738194 16.4985 0.738194C17.7587 0.738194 18.926 1.05656 20.0005 1.6933C21.075 2.31677 21.9306 3.16575 22.5673 4.24023C23.1908 5.31472 23.5025 6.48207 23.5025 7.74228ZM22.0102 7.74228C22.0102 6.74738 21.7648 5.83207 21.274 4.99636C20.7699 4.14738 20.1 3.47748 19.2643 2.98666C18.4153 2.49585 17.4934 2.25044 16.4985 2.25044C15.5168 2.25044 14.6081 2.49585 13.7724 2.98666C12.9235 3.47748 12.2536 4.14738 11.7627 4.99636C11.2587 5.83207 11.0066 6.74738 11.0066 7.74228C11.0066 8.73717 11.2587 9.65911 11.7627 10.5081C12.2536 11.3438 12.9235 12.0137 13.7724 12.5178C14.6081 13.0086 15.5168 13.254 16.4985 13.254C17.4934 13.254 18.4153 13.0086 19.2643 12.5178C20.1 12.0137 20.7699 11.3438 21.274 10.5081C21.7648 9.65911 22.0102 8.73717 22.0102 7.74228ZM17.2347 4.37952C18.0704 4.43258 18.7403 4.74432 19.2444 5.31472C19.7485 5.88513 20.0005 6.68768 20.0005 7.72238C20.0005 8.7836 19.7087 9.62595 19.125 10.2494C18.528 10.8729 17.6459 11.1846 16.4786 11.1846C15.3112 11.1846 14.4357 10.8729 13.852 10.2494C13.2684 9.62595 12.9765 8.7836 12.9765 7.72238C12.9765 6.67442 13.2219 5.8785 13.7127 5.33462C14.2036 4.77748 14.8204 4.47901 15.5633 4.43921L15.5633 6.5683C15.2316 6.58156 14.9995 6.69432 14.8668 6.90656C14.7342 7.10554 14.6678 7.37748 14.6678 7.72238C14.6678 8.58462 15.2714 9.01575 16.4786 9.01575C17.7122 9.01575 18.3291 8.58462 18.3291 7.72238C18.3291 7.36421 18.2561 7.07901 18.1102 6.86677C17.951 6.65452 17.6592 6.54177 17.2347 6.5285L17.2347 4.37952Z" fill="black"/>
</svg>
