<svg width="91" height="74" viewBox="0 0 91 74" fill="none" xmlns="http://www.w3.org/2000/svg">
<path d="M7.35547 15.0742C7.35547 14.8164 7.29102 14.5615 7.16211 14.3096C7.0332 14.0576 6.78418 13.8262 6.41504 13.6152C6.05176 13.4043 5.51562 13.2256 4.80664 13.0791C4.2793 12.9619 3.80762 12.8301 3.3916 12.6836C2.98145 12.5371 2.63574 12.3613 2.35449 12.1562C2.07324 11.9512 1.85938 11.7051 1.71289 11.418C1.56641 11.1309 1.49316 10.791 1.49316 10.3984C1.49316 10.0469 1.56934 9.71582 1.72168 9.40527C1.87988 9.08887 2.10254 8.81348 2.38965 8.5791C2.68262 8.33887 3.03418 8.15137 3.44434 8.0166C3.86035 7.88184 4.32617 7.81445 4.8418 7.81445C5.57422 7.81445 6.20117 7.94043 6.72266 8.19238C7.25 8.43848 7.65137 8.77539 7.92676 9.20312C8.20801 9.63086 8.34863 10.1143 8.34863 10.6533H7.30273C7.30273 10.3252 7.20605 10.0146 7.0127 9.72168C6.8252 9.42871 6.54688 9.18848 6.17773 9.00098C5.81445 8.81348 5.36914 8.71973 4.8418 8.71973C4.29688 8.71973 3.85449 8.80176 3.51465 8.96582C3.1748 9.12988 2.92578 9.33789 2.76758 9.58984C2.61523 9.8418 2.53906 10.1025 2.53906 10.3721C2.53906 10.583 2.57129 10.7764 2.63574 10.9521C2.70605 11.1221 2.8291 11.2803 3.00488 11.4268C3.18652 11.5732 3.44434 11.7109 3.77832 11.8398C4.1123 11.9688 4.5459 12.0947 5.0791 12.2178C5.84668 12.3877 6.47363 12.5957 6.95996 12.8418C7.45215 13.082 7.81543 13.3809 8.0498 13.7383C8.28418 14.0898 8.40137 14.5176 8.40137 15.0215C8.40137 15.4141 8.31934 15.7744 8.15527 16.1025C7.99121 16.4248 7.75391 16.7031 7.44336 16.9375C7.13867 17.1719 6.76953 17.3535 6.33594 17.4824C5.9082 17.6113 5.42773 17.6758 4.89453 17.6758C4.0918 17.6758 3.41211 17.5439 2.85547 17.2803C2.30469 17.0107 1.88574 16.6592 1.59863 16.2256C1.31738 15.7861 1.17676 15.3203 1.17676 14.8281H2.22266C2.25781 15.3203 2.41309 15.71 2.68848 15.9971C2.96387 16.2783 3.30078 16.4775 3.69922 16.5947C4.10352 16.7119 4.50195 16.7705 4.89453 16.7705C5.43359 16.7705 5.88477 16.6914 6.24805 16.5332C6.61133 16.375 6.88672 16.167 7.07422 15.9092C7.26172 15.6514 7.35547 15.373 7.35547 15.0742ZM14.29 16.7705C14.7354 16.7705 15.1514 16.6885 15.5381 16.5244C15.9307 16.3545 16.2529 16.1055 16.5049 15.7773C16.7627 15.4434 16.9092 15.0361 16.9443 14.5557H17.9463C17.917 15.1592 17.7324 15.6982 17.3926 16.1729C17.0586 16.6416 16.6191 17.0107 16.0742 17.2803C15.5352 17.5439 14.9404 17.6758 14.29 17.6758C13.6279 17.6758 13.042 17.5557 12.5322 17.3154C12.0283 17.0752 11.6064 16.7412 11.2666 16.3135C10.9268 15.8799 10.6689 15.376 10.4932 14.8018C10.3232 14.2217 10.2383 13.5977 10.2383 12.9297V12.5605C10.2383 11.8926 10.3232 11.2715 10.4932 10.6973C10.6689 10.1172 10.9268 9.61328 11.2666 9.18555C11.6064 8.75195 12.0283 8.41504 12.5322 8.1748C13.0361 7.93457 13.6191 7.81445 14.2812 7.81445C14.9609 7.81445 15.5703 7.95215 16.1094 8.22754C16.6543 8.50293 17.0879 8.89258 17.4102 9.39648C17.7383 9.90039 17.917 10.498 17.9463 11.1895H16.9443C16.915 10.6797 16.7803 10.2402 16.54 9.87109C16.2998 9.50195 15.9834 9.21777 15.5908 9.01855C15.1982 8.81934 14.7617 8.71973 14.2812 8.71973C13.7422 8.71973 13.2822 8.8252 12.9014 9.03613C12.5205 9.24121 12.21 9.52539 11.9697 9.88867C11.7354 10.2461 11.5625 10.6562 11.4512 11.1191C11.3398 11.5762 11.2842 12.0566 11.2842 12.5605V12.9297C11.2842 13.4395 11.3369 13.9258 11.4424 14.3887C11.5537 14.8457 11.7266 15.2529 11.9609 15.6104C12.2012 15.9678 12.5117 16.252 12.8926 16.4629C13.2793 16.668 13.7451 16.7705 14.29 16.7705ZM21.1104 9.56348V17.5H20.0645V7.99023H21.084L21.1104 9.56348ZM24.4766 7.91992L24.4502 8.88672C24.333 8.86914 24.2188 8.85449 24.1074 8.84277C23.9961 8.83105 23.876 8.8252 23.7471 8.8252C23.29 8.8252 22.8887 8.91016 22.543 9.08008C22.2031 9.24414 21.916 9.47559 21.6816 9.77441C21.4473 10.0674 21.2686 10.4131 21.1455 10.8115C21.0225 11.2041 20.9521 11.626 20.9346 12.0771L20.5479 12.2266C20.5479 11.6055 20.6123 11.0283 20.7412 10.4951C20.8701 9.96191 21.0664 9.49609 21.3301 9.09766C21.5996 8.69336 21.9365 8.37988 22.3408 8.15723C22.751 7.92871 23.2314 7.81445 23.7822 7.81445C23.917 7.81445 24.0488 7.82617 24.1777 7.84961C24.3125 7.86719 24.4121 7.89063 24.4766 7.91992ZM25.373 12.8945V12.6045C25.373 11.9131 25.4727 11.2744 25.6719 10.6885C25.8711 10.1025 26.1553 9.5957 26.5244 9.16797C26.8994 8.74023 27.3477 8.40918 27.8691 8.1748C28.3906 7.93457 28.9707 7.81445 29.6094 7.81445C30.2539 7.81445 30.8369 7.93457 31.3584 8.1748C31.8799 8.40918 32.3281 8.74023 32.7031 9.16797C33.0781 9.5957 33.3652 10.1025 33.5645 10.6885C33.7637 11.2744 33.8633 11.9131 33.8633 12.6045V12.8945C33.8633 13.5859 33.7637 14.2246 33.5645 14.8105C33.3652 15.3906 33.0781 15.8945 32.7031 16.3223C32.334 16.75 31.8887 17.084 31.3672 17.3242C30.8457 17.5586 30.2656 17.6758 29.627 17.6758C28.9824 17.6758 28.3994 17.5586 27.8779 17.3242C27.3564 17.084 26.9082 16.75 26.5332 16.3223C26.1582 15.8945 25.8711 15.3906 25.6719 14.8105C25.4727 14.2246 25.373 13.5859 25.373 12.8945ZM26.4189 12.6045V12.8945C26.4189 13.416 26.4893 13.9111 26.6299 14.3799C26.7705 14.8428 26.9756 15.2559 27.2451 15.6191C27.5146 15.9766 27.8486 16.2578 28.2471 16.4629C28.6455 16.668 29.1055 16.7705 29.627 16.7705C30.1426 16.7705 30.5967 16.668 30.9893 16.4629C31.3877 16.2578 31.7217 15.9766 31.9912 15.6191C32.2607 15.2559 32.4629 14.8428 32.5977 14.3799C32.7383 13.9111 32.8086 13.416 32.8086 12.8945V12.6045C32.8086 12.0889 32.7383 11.5996 32.5977 11.1367C32.4629 10.6738 32.2578 10.2607 31.9824 9.89746C31.7129 9.53418 31.3789 9.24707 30.9805 9.03613C30.582 8.8252 30.125 8.71973 29.6094 8.71973C29.0938 8.71973 28.6367 8.8252 28.2383 9.03613C27.8457 9.24707 27.5117 9.53418 27.2363 9.89746C26.9668 10.2607 26.7617 10.6738 26.6211 11.1367C26.4863 11.5996 26.4189 12.0889 26.4189 12.6045ZM37.2119 4V17.5H36.166V4H37.2119ZM41.2549 4V17.5H40.209V4H41.2549ZM54.7021 15.6543V4H55.7568V17.5H54.7725L54.7021 15.6543ZM48.1016 12.8418V12.6572C48.1016 11.9189 48.1865 11.2539 48.3564 10.6621C48.5264 10.0645 48.7695 9.55469 49.0859 9.13281C49.4082 8.70508 49.7949 8.37988 50.2461 8.15723C50.6973 7.92871 51.207 7.81445 51.7754 7.81445C52.332 7.81445 52.8242 7.90527 53.252 8.08691C53.6797 8.26855 54.0459 8.5293 54.3506 8.86914C54.6611 9.20898 54.9102 9.61328 55.0977 10.082C55.291 10.5508 55.4316 11.0723 55.5195 11.6465V13.9932C55.4492 14.5322 55.3203 15.0273 55.1328 15.4785C54.9453 15.9238 54.6963 16.3135 54.3857 16.6475C54.0752 16.9756 53.7002 17.2305 53.2607 17.4121C52.8271 17.5879 52.3262 17.6758 51.7578 17.6758C51.1953 17.6758 50.6885 17.5586 50.2373 17.3242C49.7861 17.0898 49.4023 16.7588 49.0859 16.3311C48.7695 15.8975 48.5264 15.3848 48.3564 14.793C48.1865 14.2012 48.1016 13.5508 48.1016 12.8418ZM49.1562 12.6572V12.8418C49.1562 13.3984 49.2119 13.9141 49.3232 14.3887C49.4346 14.8633 49.6045 15.2764 49.833 15.6279C50.0615 15.9795 50.3516 16.2549 50.7031 16.4541C51.0547 16.6533 51.4707 16.7529 51.9512 16.7529C52.5547 16.7529 53.0615 16.6387 53.4717 16.4102C53.8818 16.1758 54.21 15.8682 54.4561 15.4873C54.7021 15.1006 54.8809 14.6787 54.9922 14.2217V11.4883C54.9219 11.1777 54.8193 10.8613 54.6846 10.5391C54.5498 10.2168 54.3652 9.9209 54.1309 9.65137C53.9023 9.37598 53.6094 9.15625 53.252 8.99219C52.9004 8.82227 52.4727 8.7373 51.9688 8.7373C51.4824 8.7373 51.0635 8.83691 50.7119 9.03613C50.3604 9.23535 50.0674 9.51367 49.833 9.87109C49.6045 10.2227 49.4346 10.6357 49.3232 11.1104C49.2119 11.585 49.1562 12.1006 49.1562 12.6572ZM57.9453 12.8945V12.6045C57.9453 11.9131 58.0449 11.2744 58.2441 10.6885C58.4434 10.1025 58.7275 9.5957 59.0967 9.16797C59.4717 8.74023 59.9199 8.40918 60.4414 8.1748C60.9629 7.93457 61.543 7.81445 62.1816 7.81445C62.8262 7.81445 63.4092 7.93457 63.9307 8.1748C64.4521 8.40918 64.9004 8.74023 65.2754 9.16797C65.6504 9.5957 65.9375 10.1025 66.1367 10.6885C66.3359 11.2744 66.4355 11.9131 66.4355 12.6045V12.8945C66.4355 13.5859 66.3359 14.2246 66.1367 14.8105C65.9375 15.3906 65.6504 15.8945 65.2754 16.3223C64.9062 16.75 64.4609 17.084 63.9395 17.3242C63.418 17.5586 62.8379 17.6758 62.1992 17.6758C61.5547 17.6758 60.9717 17.5586 60.4502 17.3242C59.9287 17.084 59.4805 16.75 59.1055 16.3223C58.7305 15.8945 58.4434 15.3906 58.2441 14.8105C58.0449 14.2246 57.9453 13.5859 57.9453 12.8945ZM58.9912 12.6045V12.8945C58.9912 13.416 59.0615 13.9111 59.2021 14.3799C59.3428 14.8428 59.5479 15.2559 59.8174 15.6191C60.0869 15.9766 60.4209 16.2578 60.8193 16.4629C61.2178 16.668 61.6777 16.7705 62.1992 16.7705C62.7148 16.7705 63.1689 16.668 63.5615 16.4629C63.96 16.2578 64.2939 15.9766 64.5635 15.6191C64.833 15.2559 65.0352 14.8428 65.1699 14.3799C65.3105 13.9111 65.3809 13.416 65.3809 12.8945V12.6045C65.3809 12.0889 65.3105 11.5996 65.1699 11.1367C65.0352 10.6738 64.8301 10.2607 64.5547 9.89746C64.2852 9.53418 63.9512 9.24707 63.5527 9.03613C63.1543 8.8252 62.6973 8.71973 62.1816 8.71973C61.666 8.71973 61.209 8.8252 60.8105 9.03613C60.418 9.24707 60.084 9.53418 59.8086 9.89746C59.5391 10.2607 59.334 10.6738 59.1934 11.1367C59.0586 11.5996 58.9912 12.0889 58.9912 12.6045ZM71.252 15.2764L73.5459 7.99023H74.2842L73.8447 9.9502L71.4453 17.5H70.707L71.252 15.2764ZM68.8701 7.99023L70.8828 15.3203L71.3135 17.5H70.5488L67.7891 7.99023H68.8701ZM77.1406 15.2939L79.1006 7.99023H80.1816L77.4219 17.5H76.666L77.1406 15.2939ZM74.4336 7.99023L76.6924 15.2148L77.2637 17.5H76.5254L74.0732 9.94141L73.6602 7.99023H74.4336ZM83.249 10.0205V17.5H82.2031V7.99023H83.2051L83.249 10.0205ZM83.0117 12.1562L82.5459 11.8926C82.5811 11.3301 82.6953 10.8027 82.8887 10.3105C83.082 9.81836 83.3428 9.38477 83.6709 9.00977C84.0049 8.63477 84.3945 8.3418 84.8398 8.13086C85.291 7.91992 85.7891 7.81445 86.334 7.81445C86.8086 7.81445 87.2334 7.87891 87.6084 8.00781C87.9834 8.13672 88.3027 8.3418 88.5664 8.62305C88.8301 8.9043 89.0293 9.26465 89.1641 9.7041C89.3047 10.1436 89.375 10.6797 89.375 11.3125V17.5H88.3203V11.3037C88.3203 10.6475 88.2295 10.1348 88.0479 9.76562C87.8662 9.39062 87.6084 9.12402 87.2744 8.96582C86.9404 8.80762 86.5449 8.72852 86.0879 8.72852C85.584 8.72852 85.1416 8.83984 84.7607 9.0625C84.3857 9.2793 84.0693 9.56348 83.8115 9.91504C83.5596 10.2607 83.3662 10.6328 83.2314 11.0312C83.0967 11.4238 83.0234 11.7988 83.0117 12.1562Z" fill="#C3A8A1"/>
<circle cx="45.5" cy="53.5" r="19.5" stroke="#C3A8A1"/>
<path d="M52.4425 53.9425L46.75 59.6275V44.5H45.25V59.6275L39.5575 53.9425L38.5 55L46 62.5L53.5 55L52.4425 53.9425Z" fill="#C3A8A1"/>
</svg>
