<svg width="161" height="164" viewBox="0 0 161 164" fill="none" xmlns="http://www.w3.org/2000/svg">
<g clip-path="url(#clip0_16_40)">
<path d="M81.8612 16.4112C81.1902 16.4002 80.6315 16.9302 80.6208 17.5901C80.6096 18.272 81.1509 18.8089 81.8219 18.8199C82.4928 18.8308 83.0403 18.3117 83.0514 17.6298C83.0622 16.9699 82.5321 16.4221 81.8612 16.4112Z" fill="#181818"/>
<path d="M60.4549 17.7245C60.0683 18.9333 60.8104 19.9682 62.4831 20.4968L64.4928 21.1235C66.2486 21.6627 66.0146 23.2855 64.8724 23.612C63.1485 24.1049 62.2417 22.934 61.8638 22.1725L61.7052 22.2179L62.2132 23.9947C62.2132 23.9947 63.2467 24.2484 64.9178 23.7707C66.4936 23.3202 66.779 22.3576 66.779 22.3576C67.2805 20.91 66.2317 20.123 64.7434 19.679L62.7533 19.081C61.2241 18.5342 61.035 16.7921 62.3993 16.4021C64.2396 15.876 65.2174 17.2553 65.6618 18.1694L65.8204 18.124L65.2399 16.0934C65.2399 16.0934 64.2366 15.7052 62.354 16.2434C60.6829 16.7212 60.4549 17.7245 60.4549 17.7245Z" fill="#181818"/>
<path d="M49.2207 24.2017C48.758 22.8211 49.4126 21.6036 50.3946 21.1079C51.4257 20.5875 52.5625 20.6915 54.0048 23.5491C55.4322 26.3773 54.8849 27.3682 53.8244 27.9035C52.8718 28.3842 51.799 28.285 50.6431 27.0201L50.4958 27.0945L51.1413 28.6908C52.0128 28.8794 52.8872 28.5613 53.8987 28.0508C55.9707 27.005 56.5678 24.8677 55.5171 22.7859C54.4713 20.7138 52.3923 19.9149 50.3202 20.9606C49.2695 21.491 48.6563 21.9606 48.1725 22.8086L49.0733 24.2761L49.2207 24.2017Z" fill="#181818"/>
<path d="M42.5571 32.7751C41.3641 31.2503 42.0745 30.6945 42.9928 29.976L43.2614 29.7659L45.6473 32.8154L45.3788 33.0256C44.4951 33.7169 43.7636 34.3172 42.5571 32.7751ZM37.0243 30.1485C37.2631 29.9896 37.9452 29.6654 38.6336 30.1883C40.4225 31.582 41.233 31.297 41.7913 30.8323C40.8801 31.6849 40.4958 32.5862 41.3702 33.7037C42.5022 35.1505 43.7564 34.5044 45.4805 33.1555L47.3777 31.6711L47.2761 31.5411C46.8949 31.8393 46.5533 31.8133 46.133 31.2762L42.832 27.0571C42.3168 26.3987 42.335 25.9934 42.7075 25.702L42.6058 25.572L40.3707 27.3208L40.4723 27.4508C40.8362 27.1661 41.2753 27.2275 41.743 27.8253L43.1597 29.636L42.7525 29.9545C42.6399 30.0426 41.7996 30.7001 40.8347 30.0025C38.8094 28.5563 38.9913 28.414 37.6503 29.4492L36.9226 30.0186L37.0243 30.1485Z" fill="#181818"/>
<path d="M31.7619 40.9864C29.4538 39.0312 29.4117 37.9576 30.2507 36.9672C31.0968 35.9684 32.1698 35.8249 34.4779 37.7802C36.7777 39.7283 36.905 40.8885 36.0589 41.8873C35.2199 42.8777 34.0617 42.9346 31.7619 40.9864ZM30.731 42.2035C32.3929 43.6113 34.6206 43.8405 36.1848 41.994C37.749 40.1474 37.1566 37.9877 35.4947 36.5799C33.8244 35.1651 31.689 35.014 30.1248 36.8606C28.5606 38.7071 29.0607 40.7886 30.731 42.2035Z" fill="#181818"/>
<path d="M23.4006 51.3797C21.5861 50.0657 22.7278 47.9695 23.0119 47.4478L23.2013 47.1001L28.8525 50.1781C29.548 50.5569 29.5018 51.0327 29.2755 51.4481L29.4204 51.527L30.8779 48.8512L30.733 48.7723C30.5067 49.1877 30.1082 49.3213 29.519 49.0004L24.9015 46.4854C24.2446 46.1276 23.9537 45.7187 24.18 45.3033L24.0351 45.2244L21.2307 50.3732L23.3269 51.5149L23.4006 51.3797Z" fill="#181818"/>
<path d="M18.929 63.0509C16.8928 62.1165 17.6033 59.8377 17.7801 59.2706L17.898 58.8926L24.0413 60.8079C24.7974 61.0437 24.845 61.5194 24.7042 61.971L24.8617 62.0201L25.7687 59.1112L25.6111 59.0621C25.4703 59.5136 25.1056 59.7225 24.465 59.5228L19.4454 57.9578C18.7313 57.7352 18.3662 57.3909 18.507 56.9393L18.3494 56.8902L16.6043 62.4875L18.8832 63.198L18.929 63.0509Z" fill="#181818"/>
<path d="M16.8643 79.4444C16.8643 80.1154 17.4034 80.6654 18.0634 80.6653C18.7454 80.6652 19.2733 80.1152 19.2733 79.4442C19.2732 78.7732 18.7451 78.2342 18.0631 78.2343C17.4031 78.2344 16.8642 78.7734 16.8643 79.4444Z" fill="#181818"/>
<path d="M18.5289 100.826C19.744 101.193 20.7665 100.434 21.2676 98.7528L21.8613 96.7331C22.3715 94.9686 23.998 95.1759 24.3432 96.3126C24.8643 98.0282 23.7085 98.9541 22.9533 99.3444L23.0012 99.5023L24.7695 98.9652C24.7695 98.9652 25.0062 97.9277 24.5011 96.2647C24.0248 94.6964 23.0577 94.4268 23.0577 94.4268C21.6021 93.9492 20.8323 95.0107 20.4128 96.5062L19.8475 98.5058C19.326 100.044 17.5872 100.261 17.1748 98.9037C16.6186 97.0723 17.9817 96.072 18.8884 95.6127L18.8404 95.4548L16.8196 96.0686C16.8196 96.0686 16.4479 97.0781 17.0169 98.9516C17.522 100.615 18.5289 100.826 18.5289 100.826Z" fill="#181818"/>
<path d="M25.1896 111.952C23.8168 112.438 22.5887 111.803 22.077 110.829C21.5397 109.807 21.625 108.669 24.4586 107.18C27.263 105.706 28.2627 106.237 28.8153 107.289C29.3116 108.233 29.23 109.307 27.9843 110.484L28.061 110.63L29.6466 109.958C29.8208 109.084 29.4884 108.215 28.9614 107.212C27.8817 105.157 25.7349 104.595 23.6706 105.68C21.616 106.76 20.8513 108.852 21.9309 110.906C22.4784 111.948 22.9581 112.554 23.8138 113.023L25.2664 112.099L25.1896 111.952Z" fill="#181818"/>
<path d="M33.8713 118.475C32.3663 119.692 31.7989 118.991 31.0654 118.085L30.8509 117.82L33.8608 115.384L34.0754 115.649C34.7812 116.521 35.3933 117.243 33.8713 118.475ZM31.3358 124.05C31.173 123.814 30.8377 123.137 31.3492 122.44C32.7134 120.628 32.4151 119.823 31.9413 119.272C32.8087 120.169 33.7162 120.539 34.8192 119.646C36.2473 118.49 35.5806 117.247 34.2036 115.545L32.6882 113.673L32.56 113.776C32.8644 114.153 32.844 114.495 32.3138 114.924L28.1495 118.294C27.4996 118.819 27.0941 118.808 26.7966 118.44L26.6683 118.544L28.4536 120.75L28.5818 120.646C28.2912 120.287 28.3455 119.847 28.9355 119.37L30.7226 117.924L31.0479 118.325C31.1378 118.437 31.809 119.266 31.1273 120.242C29.7146 122.291 29.5693 122.111 30.6263 123.435L31.2076 124.154L31.3358 124.05Z" fill="#181818"/>
<path d="M42.2586 129.133C40.3415 131.473 39.2687 131.533 38.2647 130.71C37.2521 129.881 37.0911 128.81 39.0082 126.47C40.9183 124.139 42.0763 123.993 43.0888 124.822C44.0929 125.645 44.1687 126.802 42.2586 129.133ZM43.4924 130.144C44.8727 128.459 45.0653 126.228 43.1934 124.695C41.3214 123.161 39.1717 123.789 37.7914 125.473C36.4041 127.167 36.2882 129.304 38.1601 130.838C40.0321 132.372 42.1051 131.837 43.4924 130.144Z" fill="#181818"/>
<path d="M52.7878 137.323C51.5037 139.159 49.389 138.052 48.8628 137.776L48.512 137.593L51.4968 131.892C51.8642 131.19 52.3407 131.228 52.7597 131.448L52.8363 131.302L50.1369 129.888L50.0603 130.035C50.4794 130.254 50.6196 130.65 50.3083 131.245L47.8695 135.903C47.5225 136.565 47.1184 136.863 46.6994 136.644L46.6229 136.79L51.817 139.509L52.9242 137.395L52.7878 137.323Z" fill="#181818"/>
<path d="M64.5307 141.602C63.6299 143.654 61.3397 142.981 60.7698 142.813L60.3899 142.702L62.2041 136.528C62.4274 135.768 62.9023 135.712 63.3561 135.846L63.4026 135.687L60.4792 134.828L60.4327 134.987C60.8865 135.12 61.1014 135.481 60.9122 136.125L59.4298 141.17C59.2189 141.887 58.8807 142.258 58.4269 142.125L58.3804 142.283L64.0055 143.936L64.6785 141.646L64.5307 141.602Z" fill="#181818"/>
<path d="M78.0767 143.359C78.7474 143.379 79.3127 142.856 79.3318 142.196C79.3514 141.514 78.8169 140.971 78.1461 140.951C77.4754 140.932 76.9214 141.444 76.9018 142.126C76.8827 142.786 77.406 143.34 78.0767 143.359Z" fill="#181818"/>
<path d="M99.4974 142.314C99.8991 141.11 99.1701 140.066 97.5041 139.517L95.5024 138.865C93.7535 138.304 94.0077 136.684 95.154 136.372C96.8839 135.901 97.776 137.083 98.1443 137.849L98.3035 137.805L97.8178 136.022C97.8178 136.022 96.7875 135.756 95.1106 136.213C93.5292 136.643 93.2318 137.602 93.2318 137.602C92.7123 139.043 93.7511 139.844 95.2338 140.306L97.2161 140.929C98.7384 141.495 98.9057 143.239 97.5366 143.612C95.6898 144.115 94.7294 142.724 94.2965 141.804L94.1373 141.847L94.6923 143.885C94.6923 143.885 95.6907 144.286 97.5799 143.771C99.2568 143.315 99.4974 142.314 99.4974 142.314Z" fill="#181818"/>
<path d="M110.812 135.978C111.257 137.364 110.587 138.574 109.599 139.057C108.562 139.564 107.426 139.446 106.02 136.571C104.628 133.725 105.188 132.741 106.255 132.219C107.213 131.75 108.285 131.863 109.425 133.142L109.573 133.07L108.948 131.465C108.079 131.266 107.2 131.573 106.182 132.071C104.097 133.091 103.474 135.22 104.498 137.315C105.518 139.4 107.587 140.225 109.672 139.205C110.729 138.688 111.348 138.226 111.843 137.384L110.96 135.906L110.812 135.978Z" fill="#181818"/>
<path d="M117.583 127.489C118.756 129.028 118.039 129.575 117.112 130.282L116.841 130.489L114.493 127.41L114.764 127.203C115.657 126.523 116.396 125.932 117.583 127.489ZM123.082 130.184C122.841 130.34 122.155 130.656 121.473 130.125C119.702 128.708 118.888 128.983 118.324 129.441C119.246 128.6 119.641 127.704 118.781 126.575C117.667 125.114 116.405 125.745 114.664 127.072L112.749 128.532L112.849 128.664C113.233 128.37 113.575 128.4 113.988 128.943L117.236 133.203C117.743 133.868 117.72 134.273 117.344 134.559L117.444 134.691L119.701 132.97L119.601 132.839C119.233 133.119 118.795 133.052 118.335 132.448L116.941 130.62L117.352 130.307C117.466 130.22 118.314 129.573 119.27 130.283C121.277 131.754 121.094 131.894 122.447 130.876L123.182 130.316L123.082 130.184Z" fill="#181818"/>
<path d="M128.479 119.413C130.763 121.397 130.791 122.471 129.94 123.451C129.082 124.439 128.007 124.569 125.723 122.585C123.448 120.608 123.335 119.447 124.194 118.459C125.045 117.479 126.204 117.436 128.479 119.413ZM129.525 118.209C127.881 116.781 125.657 116.524 124.069 118.35C122.482 120.177 123.048 122.344 124.692 123.773C126.344 125.208 128.477 125.386 130.065 123.559C131.652 121.733 131.178 119.645 129.525 118.209Z" fill="#181818"/>
<path d="M136.97 109.126C138.768 110.462 137.6 112.544 137.31 113.062L137.116 113.407L131.504 110.259C130.813 109.871 130.865 109.396 131.097 108.984L130.953 108.903L129.462 111.56L129.606 111.641C129.837 111.228 130.237 111.1 130.823 111.428L135.408 114.001C136.061 114.367 136.346 114.779 136.115 115.192L136.259 115.272L139.127 110.159L137.046 108.991L136.97 109.126Z" fill="#181818"/>
<path d="M141.588 97.5112C143.612 98.471 142.873 100.741 142.689 101.306L142.567 101.682L136.448 99.69C135.695 99.4448 135.653 98.9685 135.799 98.5187L135.642 98.4677L134.699 101.365L134.856 101.416C135.003 100.966 135.37 100.762 136.008 100.97L141.008 102.597C141.719 102.829 142.08 103.178 141.933 103.628L142.09 103.679L143.905 98.1037L141.635 97.3647L141.588 97.5112Z" fill="#181818"/>
<path d="M143.857 81.1449C143.866 80.474 143.334 79.9173 142.674 79.9091C141.992 79.9006 141.457 80.444 141.449 81.115C141.44 81.7859 141.962 82.3315 142.644 82.3399C143.303 82.3481 143.849 81.8159 143.857 81.1449Z" fill="#181818"/>
<path d="M142.461 59.744C141.251 59.3621 140.219 60.1082 139.697 61.7829L139.078 63.795C138.545 65.5529 136.922 65.3253 136.591 64.1843C136.091 62.4623 137.258 61.551 138.018 61.1702L137.972 61.0117L136.198 61.5266C136.198 61.5266 135.948 62.5611 136.432 64.2303C136.889 65.8044 137.852 66.0861 137.852 66.0861C139.302 66.5819 140.085 65.5301 140.523 64.04L141.113 62.0477C141.654 60.5164 143.396 60.3204 143.791 61.6833C144.324 63.5215 142.949 64.5046 142.036 64.9526L142.082 65.111L144.111 64.5226C144.111 64.5226 144.495 63.5178 143.949 61.6373C143.465 59.9681 142.461 59.744 142.461 59.744Z" fill="#181818"/>
<path d="M135.94 48.5351C137.319 48.067 138.539 48.7169 139.039 49.697C139.563 50.726 139.463 51.8632 136.611 53.3166C133.789 54.755 132.796 54.2116 132.256 53.1531C131.772 52.2025 131.867 51.1293 133.127 49.9685L133.052 49.8215L131.459 50.4732C131.273 51.3454 131.595 52.2186 132.109 53.2281C133.163 55.296 135.303 55.8847 137.381 54.8259C139.448 53.7721 140.239 51.69 139.186 49.622C138.651 48.5734 138.179 47.962 137.329 47.4815L135.865 48.3881L135.94 48.5351Z" fill="#181818"/>
<path d="M127.341 41.9047C128.861 40.7058 129.419 41.4141 130.142 42.3296L130.353 42.5973L127.312 44.9951L127.101 44.7274C126.406 43.8464 125.803 43.1173 127.341 41.9047ZM129.946 36.3618C130.106 36.6 130.432 37.2808 129.912 37.9713C128.526 39.7655 128.814 40.5749 129.281 41.1314C128.424 40.2235 127.522 39.8427 126.408 40.7215C124.965 41.8591 125.616 43.1108 126.972 44.8296L128.464 46.7211L128.593 46.6189C128.293 46.2389 128.318 45.8972 128.854 45.4748L133.06 42.1574C133.716 41.6397 134.122 41.6562 134.414 42.0276L134.544 41.9255L132.787 39.6971L132.657 39.7993C132.943 40.162 132.883 40.6014 132.287 41.0715L130.482 42.4951L130.162 42.0892C130.074 41.9769 129.413 41.1391 130.107 40.1716C131.545 38.1406 131.688 38.322 130.648 36.9851L130.075 36.2596L129.946 36.3618Z" fill="#181818"/>
<path d="M119.087 31.1418C121.034 28.8261 122.107 28.7799 123.101 29.615C124.103 30.4572 124.251 31.5296 122.304 33.8453C120.365 36.1527 119.205 36.2845 118.203 35.4423C117.21 34.6071 117.148 33.4492 119.087 31.1418ZM117.866 30.1156C116.465 31.783 116.245 34.0116 118.097 35.5686C119.95 37.1256 122.107 36.5247 123.508 34.8574C124.917 33.1816 125.06 31.0457 123.207 29.4887C121.354 27.9317 119.275 28.4399 117.866 30.1156Z" fill="#181818"/>
<path d="M108.662 22.821C109.969 21.0014 112.069 22.1349 112.592 22.417L112.941 22.6051L109.885 28.2682C109.509 28.9651 109.033 28.9208 108.616 28.6961L108.538 28.8413L111.219 30.2883L111.298 30.1431C110.882 29.9185 110.746 29.5206 111.065 28.93L113.562 24.3028C113.917 23.6445 114.325 23.3521 114.741 23.5767L114.82 23.4315L109.66 20.6472L108.526 22.7479L108.662 22.821Z" fill="#181818"/>
<path d="M96.9733 18.3947C97.8998 16.355 100.181 17.0566 100.749 17.2312L101.128 17.3476L99.2361 23.4983C99.0034 24.2553 98.5278 24.3047 98.0757 24.1657L98.0272 24.3234L100.94 25.219L100.988 25.0613C100.536 24.9223 100.326 24.5584 100.523 23.917L102.068 18.8913C102.288 18.1763 102.631 17.8099 103.083 17.9489L103.132 17.7912L97.5277 16.0679L96.8261 18.3495L96.9733 18.3947Z" fill="#181818"/>
<path d="M38 88.5L111.5 88.5L92 63" stroke="#181818" stroke-width="5"/>
</g>
<defs>
<clipPath id="clip0_16_40">
<rect width="140.124" height="143.828" fill="white" transform="translate(21.5144 0.351288) rotate(8.58098)"/>
</clipPath>
</defs>
</svg>
