<svg width="161" height="164" viewBox="0 0 161 164" fill="none" xmlns="http://www.w3.org/2000/svg">
<g clip-path="url(#clip0_16_860)">
<path d="M81.8614 16.4112C81.1905 16.4003 80.6318 16.9302 80.621 17.5901C80.6099 18.2721 81.1512 18.809 81.8221 18.8199C82.493 18.8308 83.0406 18.3117 83.0517 17.6298C83.0624 16.9699 82.5323 16.4222 81.8614 16.4112Z" fill="#181818"/>
<path d="M60.4552 17.7245C60.0686 18.9333 60.8106 19.9682 62.4833 20.4968L64.493 21.1236C66.2488 21.6627 66.0149 23.2855 64.8726 23.6121C63.1487 24.1049 62.2419 22.934 61.8641 22.1726L61.7054 22.2179L62.2134 23.9947C62.2134 23.9947 63.2469 24.2484 64.918 23.7707C66.4939 23.3202 66.7793 22.3577 66.7793 22.3577C67.2807 20.9101 66.232 20.123 64.7436 19.679L62.7536 19.081C61.2244 18.5343 61.0352 16.7921 62.3996 16.4021C64.2399 15.876 65.2177 17.2554 65.662 18.1694L65.8207 18.1241L65.2402 16.0934C65.2402 16.0934 64.2368 15.7053 62.3542 16.2435C60.6832 16.7212 60.4552 17.7245 60.4552 17.7245Z" fill="#181818"/>
<path d="M49.2209 24.2018C48.7582 22.8212 49.4128 21.6036 50.3948 21.108C51.4259 20.5876 52.5627 20.6915 54.005 23.5492C55.4324 26.3774 54.8852 27.3682 53.8246 27.9035C52.872 28.3843 51.7992 28.285 50.6434 27.0201L50.4961 27.0945L51.1416 28.6909C52.013 28.8794 52.8875 28.5613 53.8989 28.0508C55.971 27.005 56.568 24.8678 55.5173 22.7859C54.4715 20.7139 52.3925 19.9149 50.3205 20.9607C49.2697 21.491 48.6566 21.9606 48.1727 22.8086L49.0736 24.2761L49.2209 24.2018Z" fill="#181818"/>
<path d="M42.5573 32.7751C41.3643 31.2504 42.0747 30.6946 42.9931 29.9761L43.2616 29.7659L45.6476 32.8155L45.379 33.0256C44.4954 33.717 43.7639 34.3172 42.5573 32.7751ZM37.0245 30.1486C37.2633 29.9896 37.9455 29.6655 38.6339 30.1883C40.4227 31.5821 41.2333 31.2971 41.7915 30.8324C40.8803 31.685 40.496 32.5862 41.3704 33.7038C42.5024 35.1506 43.7567 34.5044 45.4807 33.1555L47.378 31.6711L47.2763 31.5411C46.8951 31.8394 46.5535 31.8133 46.1333 31.2762L42.8322 27.0571C42.3171 26.3987 42.3352 25.9935 42.7077 25.702L42.6061 25.572L40.3709 27.3208L40.4726 27.4508C40.8364 27.1661 41.2756 27.2276 41.7433 27.8253L43.16 29.636L42.7528 29.9546C42.6401 30.0427 41.7998 30.7002 40.835 30.0025C38.8096 28.5564 38.9915 28.414 37.6506 29.4492L36.9229 30.0186L37.0245 30.1486Z" fill="#181818"/>
<path d="M31.7622 40.9865C29.454 39.0312 29.412 37.9577 30.2509 36.9672C31.097 35.9684 32.17 35.825 34.4782 37.7802C36.778 39.7284 36.9052 40.8885 36.0591 41.8873C35.2202 42.8778 34.0619 42.9346 31.7622 40.9865ZM30.7312 42.2035C32.3931 43.6113 34.6208 43.8405 36.185 41.994C37.7492 40.1475 37.1568 37.9878 35.4949 36.58C33.8246 35.1651 31.6892 35.0141 30.125 36.8606C28.5608 38.7071 29.0609 40.7886 30.7312 42.2035Z" fill="#181818"/>
<path d="M23.4008 51.3797C21.5863 50.0658 22.7281 47.9695 23.0122 47.4479L23.2016 47.1001L28.8527 50.1781C29.5483 50.5569 29.502 51.0328 29.2758 51.4481L29.4207 51.5271L30.8781 48.8512L30.7332 48.7723C30.507 49.1877 30.1085 49.3214 29.5192 49.0004L24.9017 46.4854C24.2448 46.1276 23.954 45.7187 24.1802 45.3033L24.0353 45.2244L21.231 50.3732L23.3272 51.515L23.4008 51.3797Z" fill="#181818"/>
<path d="M18.9295 63.051C16.8933 62.1166 17.6038 59.8378 17.7806 59.2707L17.8985 58.8926L24.0418 60.808C24.7979 61.0437 24.8455 61.5194 24.7047 61.971L24.8622 62.0201L25.7691 59.1112L25.6116 59.0621C25.4708 59.5137 25.1061 59.7226 24.4655 59.5228L19.4458 57.9578C18.7317 57.7352 18.3667 57.3909 18.5075 56.9394L18.3499 56.8902L16.6048 62.4875L18.8836 63.198L18.9295 63.051Z" fill="#181818"/>
<path d="M16.8648 79.4445C16.8648 80.1155 17.4039 80.6654 18.0639 80.6653C18.7459 80.6653 19.2738 80.1152 19.2738 79.4442C19.2737 78.7732 18.7456 78.2343 18.0636 78.2343C17.4036 78.2344 16.8647 78.7735 16.8648 79.4445Z" fill="#181818"/>
<path d="M18.5289 100.826C19.744 101.193 20.7665 100.434 21.2676 98.7528L21.8613 96.7331C22.3715 94.9687 23.998 95.1759 24.3432 96.3127C24.8643 98.0283 23.7085 98.9541 22.9533 99.3444L23.0012 99.5023L24.7695 98.9653C24.7695 98.9653 25.0062 97.9277 24.5011 96.2647C24.0248 94.6965 23.0577 94.4269 23.0577 94.4269C21.6021 93.9493 20.8323 95.0108 20.4128 96.5062L19.8475 98.5058C19.326 100.044 17.5872 100.261 17.1748 98.9037C16.6186 97.0723 17.9817 96.072 18.8884 95.6127L18.8404 95.4548L16.8196 96.0686C16.8196 96.0686 16.4479 97.0782 17.0169 98.9517C17.522 100.615 18.5289 100.826 18.5289 100.826Z" fill="#181818"/>
<path d="M25.1899 111.953C23.817 112.438 22.5889 111.803 22.0772 110.83C21.54 109.807 21.6252 108.669 24.4588 107.18C27.2632 105.706 28.2629 106.237 28.8155 107.289C29.3119 108.233 29.2302 109.307 27.9845 110.484L28.0613 110.63L29.6468 109.958C29.8211 109.084 29.4886 108.215 28.9616 107.212C27.882 105.157 25.7352 104.595 23.6708 105.68C21.6162 106.76 20.8515 108.852 21.9312 110.906C22.4787 111.948 22.9583 112.554 23.8141 113.023L25.2666 112.099L25.1899 111.953Z" fill="#181818"/>
<path d="M33.8713 118.475C32.3663 119.692 31.7989 118.991 31.0654 118.085L30.8509 117.82L33.8608 115.384L34.0754 115.649C34.7812 116.521 35.3933 117.243 33.8713 118.475ZM31.3358 124.05C31.173 123.814 30.8377 123.137 31.3492 122.44C32.7134 120.629 32.4151 119.823 31.9413 119.272C32.8087 120.169 33.7162 120.539 34.8192 119.646C36.2473 118.491 35.5806 117.247 34.2036 115.545L32.6882 113.673L32.56 113.777C32.8644 114.153 32.844 114.495 32.3138 114.924L28.1495 118.294C27.4996 118.819 27.0941 118.808 26.7966 118.44L26.6683 118.544L28.4536 120.75L28.5818 120.646C28.2912 120.287 28.3455 119.847 28.9355 119.37L30.7226 117.924L31.0479 118.325C31.1378 118.437 31.809 119.266 31.1273 120.242C29.7146 122.291 29.5693 122.111 30.6263 123.435L31.2076 124.154L31.3358 124.05Z" fill="#181818"/>
<path d="M42.2588 129.133C40.3417 131.473 39.269 131.533 38.2649 130.71C37.2524 129.881 37.0913 128.81 39.0084 126.47C40.9186 124.139 42.0765 123.993 43.0891 124.822C44.0931 125.645 44.169 126.802 42.2588 129.133ZM43.4926 130.144C44.8729 128.459 45.0656 126.228 43.1936 124.695C41.3217 123.161 39.172 123.789 37.7917 125.473C36.4044 127.167 36.2884 129.304 38.1604 130.838C40.0323 132.372 42.1053 131.838 43.4926 130.144Z" fill="#181818"/>
<path d="M52.7878 137.323C51.5037 139.159 49.389 138.052 48.8628 137.776L48.512 137.593L51.4968 131.892C51.8642 131.19 52.3407 131.228 52.7597 131.448L52.8363 131.302L50.1369 129.888L50.0603 130.035C50.4794 130.254 50.6196 130.65 50.3083 131.245L47.8695 135.903C47.5225 136.565 47.1184 136.863 46.6994 136.644L46.6229 136.79L51.817 139.509L52.9242 137.395L52.7878 137.323Z" fill="#181818"/>
<path d="M64.5312 141.603C63.6304 143.654 61.3402 142.981 60.7703 142.813L60.3904 142.702L62.2046 136.528C62.4279 135.768 62.9028 135.712 63.3566 135.846L63.4031 135.688L60.4797 134.828L60.4332 134.987C60.887 135.12 61.1019 135.481 60.9127 136.125L59.4303 141.17C59.2194 141.887 58.8812 142.258 58.4274 142.125L58.3808 142.283L64.006 143.936L64.679 141.646L64.5312 141.603Z" fill="#181818"/>
<path d="M78.0767 143.359C78.7474 143.379 79.3127 142.856 79.3318 142.196C79.3514 141.514 78.8169 140.971 78.1461 140.951C77.4754 140.932 76.9214 141.444 76.9018 142.126C76.8827 142.786 77.406 143.34 78.0767 143.359Z" fill="#181818"/>
<path d="M99.4979 142.314C99.8996 141.11 99.1706 140.066 97.5046 139.517L95.5029 138.865C93.754 138.304 94.0082 136.684 95.1545 136.372C96.8844 135.901 97.7765 137.083 98.1448 137.849L98.304 137.805L97.8183 136.022C97.8183 136.022 96.788 135.756 95.1111 136.213C93.5297 136.643 93.2323 137.602 93.2323 137.602C92.7128 139.043 93.7515 139.844 95.2342 140.306L97.2166 140.929C98.7388 141.495 98.9062 143.239 97.537 143.612C95.6903 144.115 94.7299 142.724 94.297 141.804L94.1378 141.847L94.6928 143.885C94.6928 143.885 95.6912 144.286 97.5804 143.771C99.2573 143.315 99.4979 142.314 99.4979 142.314Z" fill="#181818"/>
<path d="M110.812 135.978C111.258 137.364 110.588 138.574 109.6 139.057C108.562 139.564 107.427 139.446 106.02 136.571C104.628 133.725 105.188 132.741 106.255 132.219C107.214 131.75 108.285 131.863 109.425 133.142L109.573 133.07L108.948 131.465C108.079 131.266 107.2 131.573 106.183 132.071C104.098 133.091 103.474 135.22 104.499 137.315C105.518 139.4 107.587 140.225 109.672 139.205C110.729 138.688 111.348 138.226 111.843 137.384L110.96 135.906L110.812 135.978Z" fill="#181818"/>
<path d="M117.583 127.489C118.757 129.028 118.039 129.575 117.112 130.282L116.841 130.489L114.493 127.41L114.765 127.203C115.657 126.523 116.396 125.932 117.583 127.489ZM123.082 130.184C122.842 130.34 122.155 130.656 121.474 130.125C119.702 128.709 118.888 128.983 118.324 129.441C119.246 128.6 119.642 127.704 118.781 126.575C117.668 125.114 116.405 125.745 114.665 127.072L112.749 128.532L112.849 128.664C113.234 128.37 113.575 128.4 113.988 128.943L117.236 133.203C117.743 133.868 117.72 134.273 117.344 134.56L117.444 134.691L119.701 132.97L119.601 132.839C119.233 133.119 118.795 133.052 118.335 132.448L116.941 130.62L117.352 130.307C117.466 130.22 118.314 129.573 119.27 130.283C121.277 131.754 121.094 131.894 122.448 130.876L123.182 130.316L123.082 130.184Z" fill="#181818"/>
<path d="M128.48 119.413C130.763 121.397 130.792 122.471 129.941 123.451C129.082 124.439 128.007 124.569 125.724 122.585C123.449 120.609 123.336 119.447 124.194 118.459C125.046 117.479 126.205 117.437 128.48 119.413ZM129.526 118.209C127.882 116.781 125.657 116.524 124.07 118.35C122.483 120.177 123.048 122.344 124.692 123.773C126.345 125.208 128.478 125.386 130.065 123.559C131.652 121.733 131.178 119.645 129.526 118.209Z" fill="#181818"/>
<path d="M136.971 109.126C138.769 110.462 137.601 112.544 137.31 113.062L137.116 113.407L131.504 110.259C130.814 109.871 130.866 109.396 131.097 108.984L130.953 108.903L129.462 111.56L129.606 111.641C129.838 111.229 130.238 111.1 130.823 111.428L135.409 114.001C136.061 114.367 136.347 114.779 136.115 115.192L136.259 115.273L139.128 110.159L137.046 108.991L136.971 109.126Z" fill="#181818"/>
<path d="M141.588 97.5112C143.612 98.471 142.873 100.741 142.69 101.306L142.567 101.682L136.448 99.69C135.695 99.4448 135.653 98.9685 135.8 98.5188L135.643 98.4677L134.7 101.365L134.857 101.416C135.003 100.966 135.37 100.762 136.008 100.97L141.008 102.597C141.719 102.829 142.08 103.178 141.934 103.628L142.091 103.679L143.906 98.1037L141.636 97.3648L141.588 97.5112Z" fill="#181818"/>
<path d="M143.858 81.1449C143.866 80.474 143.334 79.9173 142.674 79.9091C141.992 79.9007 141.457 80.4441 141.449 81.115C141.441 81.786 141.962 82.3315 142.644 82.34C143.304 82.3482 143.85 81.8159 143.858 81.1449Z" fill="#181818"/>
<path d="M142.461 59.744C141.251 59.3621 140.219 60.1082 139.697 61.783L139.078 63.7951C138.545 65.553 136.922 65.3253 136.591 64.1844C136.091 62.4624 137.258 61.5511 138.018 61.1702L137.972 61.0118L136.198 61.5266C136.198 61.5266 135.948 62.5612 136.432 64.2303C136.889 65.8045 137.852 66.0861 137.852 66.0861C139.302 66.5819 140.085 65.5301 140.523 64.04L141.113 62.0477C141.654 60.5164 143.396 60.3205 143.791 61.6833C144.324 63.5215 142.949 64.5047 142.036 64.9526L142.082 65.1111L144.111 64.5226C144.111 64.5226 144.495 63.5178 143.949 61.6373C143.465 59.9681 142.461 59.744 142.461 59.744Z" fill="#181818"/>
<path d="M135.94 48.5351C137.319 48.067 138.539 48.7169 139.039 49.697C139.563 50.7261 139.464 51.8632 136.612 53.3166C133.789 54.755 132.796 54.2116 132.257 53.1532C131.772 52.2025 131.867 51.1293 133.128 49.9685L133.053 49.8215L131.459 50.4732C131.274 51.3454 131.595 52.2186 132.11 53.2281C133.163 55.296 135.303 55.8848 137.381 54.8259C139.449 53.7721 140.24 51.69 139.186 49.6221C138.651 48.5734 138.179 47.9621 137.33 47.4815L135.866 48.3881L135.94 48.5351Z" fill="#181818"/>
<path d="M127.341 41.9048C128.861 40.7059 129.42 41.4141 130.142 42.3296L130.353 42.5974L127.313 44.9952L127.102 44.7274C126.407 43.8464 125.804 43.1173 127.341 41.9048ZM129.946 36.3618C130.106 36.6 130.433 37.2808 129.913 37.9713C128.526 39.7655 128.814 40.575 129.281 41.1314C128.425 40.2235 127.522 39.8428 126.408 40.7215C124.965 41.8591 125.616 43.1108 126.972 44.8296L128.464 46.7211L128.593 46.6189C128.294 46.2389 128.318 45.8972 128.854 45.4748L133.06 42.1574C133.716 41.6397 134.122 41.6563 134.415 42.0277L134.544 41.9255L132.787 39.6971L132.657 39.7993C132.943 40.1621 132.884 40.6015 132.288 41.0715L130.482 42.4952L130.162 42.0892C130.074 41.977 129.413 41.1392 130.107 40.1716C131.545 38.1407 131.688 38.322 130.648 36.9851L130.076 36.2596L129.946 36.3618Z" fill="#181818"/>
<path d="M119.088 31.1419C121.034 28.8261 122.108 28.7799 123.101 29.615C124.103 30.4572 124.251 31.5296 122.305 33.8454C120.366 36.1527 119.206 36.2845 118.204 35.4423C117.21 34.6072 117.149 33.4492 119.088 31.1419ZM117.867 30.1157C116.466 31.783 116.245 34.0116 118.098 35.5686C119.95 37.1256 122.108 36.5248 123.509 34.8574C124.917 33.1817 125.06 31.0457 123.207 29.4887C121.355 27.9317 119.275 28.4399 117.867 30.1157Z" fill="#181818"/>
<path d="M108.662 22.821C109.969 21.0014 112.07 22.135 112.592 22.4171L112.941 22.6051L109.885 28.2682C109.509 28.9652 109.033 28.9208 108.617 28.6962L108.538 28.8414L111.22 30.2884L111.298 30.1432C110.882 29.9185 110.747 29.5206 111.065 28.9301L113.562 24.3028C113.917 23.6446 114.325 23.3521 114.742 23.5768L114.82 23.4315L109.66 20.6472L108.527 22.7479L108.662 22.821Z" fill="#181818"/>
<path d="M96.9733 18.3948C97.8998 16.355 100.181 17.0566 100.749 17.2312L101.128 17.3476L99.2361 23.4983C99.0034 24.2554 98.5278 24.3048 98.0757 24.1657L98.0272 24.3235L100.94 25.2191L100.988 25.0613C100.536 24.9223 100.326 24.5584 100.523 23.9171L102.068 18.8913C102.288 18.1764 102.631 17.8099 103.083 17.949L103.132 17.7913L97.5277 16.068L96.8261 18.3495L96.9733 18.3948Z" fill="#181818"/>
<path d="M113 88.5L39.5 88.5L59 63" stroke="#181818" stroke-width="5"/>
</g>
<defs>
<clipPath id="clip0_16_860">
<rect width="140.124" height="143.828" fill="white" transform="translate(21.5146 0.351318) rotate(8.58098)"/>
</clipPath>
</defs>
</svg>
